%TF.GenerationSoftware,KiCad,Pcbnew,9.0.5*%
%TF.CreationDate,2025-12-07T13:39:54+02:00*%
%TF.ProjectId,scheme,73636865-6d65-42e6-9b69-6361645f7063,rev?*%
%TF.SameCoordinates,Original*%
%TF.FileFunction,Copper,L2,Bot*%
%TF.FilePolarity,Positive*%
%FSLAX46Y46*%
G04 Gerber Fmt 4.6, Leading zero omitted, Abs format (unit mm)*
G04 Created by KiCad (PCBNEW 9.0.5) date 2025-12-07 13:39:54*
%MOMM*%
%LPD*%
G01*
G04 APERTURE LIST*
G04 Aperture macros list*
%AMRoundRect*
0 Rectangle with rounded corners*
0 $1 Rounding radius*
0 $2 $3 $4 $5 $6 $7 $8 $9 X,Y pos of 4 corners*
0 Add a 4 corners polygon primitive as box body*
4,1,4,$2,$3,$4,$5,$6,$7,$8,$9,$2,$3,0*
0 Add four circle primitives for the rounded corners*
1,1,$1+$1,$2,$3*
1,1,$1+$1,$4,$5*
1,1,$1+$1,$6,$7*
1,1,$1+$1,$8,$9*
0 Add four rect primitives between the rounded corners*
20,1,$1+$1,$2,$3,$4,$5,0*
20,1,$1+$1,$4,$5,$6,$7,0*
20,1,$1+$1,$6,$7,$8,$9,0*
20,1,$1+$1,$8,$9,$2,$3,0*%
G04 Aperture macros list end*
%TA.AperFunction,ComponentPad*%
%ADD10RoundRect,0.249200X-0.450800X0.600800X-0.450800X-0.600800X0.450800X-0.600800X0.450800X0.600800X0*%
%TD*%
%TA.AperFunction,ComponentPad*%
%ADD11O,1.400000X1.700000*%
%TD*%
%TA.AperFunction,ComponentPad*%
%ADD12R,3.000000X3.000000*%
%TD*%
%TA.AperFunction,ComponentPad*%
%ADD13C,3.000000*%
%TD*%
%TA.AperFunction,SMDPad,CuDef*%
%ADD14RoundRect,0.243750X-0.456250X0.243750X-0.456250X-0.243750X0.456250X-0.243750X0.456250X0.243750X0*%
%TD*%
%TA.AperFunction,ComponentPad*%
%ADD15R,1.800000X1.800000*%
%TD*%
%TA.AperFunction,ComponentPad*%
%ADD16C,1.800000*%
%TD*%
%TA.AperFunction,ComponentPad*%
%ADD17R,2.000000X1.905000*%
%TD*%
%TA.AperFunction,ComponentPad*%
%ADD18O,2.000000X1.905000*%
%TD*%
%TA.AperFunction,ViaPad*%
%ADD19C,0.800000*%
%TD*%
%TA.AperFunction,Conductor*%
%ADD20C,1.016000*%
%TD*%
%TA.AperFunction,Conductor*%
%ADD21C,0.762000*%
%TD*%
G04 APERTURE END LIST*
D10*
%TO.P,D1,1,K*%
%TO.N,GND*%
X39436250Y-32060000D03*
D11*
%TO.P,D1,2,A*%
%TO.N,Net-(D1-A)*%
X39436250Y-37140000D03*
%TD*%
D12*
%TO.P,BT1,1,+*%
%TO.N,Net-(BT1-+)*%
X49036250Y-41000000D03*
D13*
%TO.P,BT1,2,-*%
%TO.N,GND*%
X49036250Y-28300000D03*
%TD*%
D14*
%TO.P,D5,1,K*%
%TO.N,GND*%
X36500000Y-47862500D03*
%TO.P,D5,2,A*%
%TO.N,Net-(D5-A)*%
X36500000Y-49737500D03*
%TD*%
D15*
%TO.P,D4,1,K*%
%TO.N,GND*%
X107515000Y-41225000D03*
D16*
%TO.P,D4,2,A*%
%TO.N,Net-(D4-A)*%
X107515000Y-43765000D03*
%TD*%
D15*
%TO.P,D2,1,K*%
%TO.N,GND*%
X107515000Y-33225000D03*
D16*
%TO.P,D2,2,A*%
%TO.N,Net-(D2-A)*%
X107515000Y-35765000D03*
%TD*%
D17*
%TO.P,U1,1,VI*%
%TO.N,Net-(D6-A1)*%
X23986250Y-32060000D03*
D18*
%TO.P,U1,2,GND*%
%TO.N,GND*%
X23986250Y-34600000D03*
%TO.P,U1,3,VO*%
%TO.N,+5V*%
X23986250Y-37140000D03*
%TD*%
D15*
%TO.P,D3,1,K*%
%TO.N,GND*%
X107515000Y-25225000D03*
D16*
%TO.P,D3,2,A*%
%TO.N,Net-(D3-A)*%
X107515000Y-27765000D03*
%TD*%
D19*
%TO.N,Net-(D1-A)*%
X55836250Y-40000000D03*
X65436250Y-40000000D03*
%TO.N,(2.5V)*%
X77536250Y-23720000D03*
X84936250Y-39720000D03*
%TO.N,Net-(D5-A)*%
X33000000Y-49750000D03*
%TD*%
D20*
%TO.N,Net-(D1-A)*%
X55836250Y-40000000D02*
X65436250Y-40000000D01*
D21*
%TO.N,(2.5V)*%
X84936250Y-39720000D02*
X84936250Y-28100000D01*
X84936250Y-28100000D02*
X80556250Y-23720000D01*
X80556250Y-23720000D02*
X77536250Y-23720000D01*
D20*
%TO.N,Net-(D5-A)*%
X36487500Y-49750000D02*
X36500000Y-49737500D01*
X33000000Y-49750000D02*
X36487500Y-49750000D01*
%TD*%
%TA.AperFunction,Conductor*%
%TO.N,GND*%
G36*
X109370370Y-18030502D02*
G01*
X109431844Y-18030500D01*
X109440681Y-18030815D01*
X109640818Y-18045125D01*
X109658327Y-18047641D01*
X109850063Y-18089347D01*
X109867037Y-18094331D01*
X109958959Y-18128613D01*
X110050887Y-18162898D01*
X110066967Y-18170241D01*
X110239186Y-18264276D01*
X110254070Y-18273841D01*
X110411149Y-18391426D01*
X110424520Y-18403012D01*
X110563260Y-18541749D01*
X110574846Y-18555119D01*
X110692436Y-18712197D01*
X110702002Y-18727081D01*
X110796041Y-18899297D01*
X110803387Y-18915383D01*
X110871958Y-19099223D01*
X110876942Y-19116198D01*
X110918651Y-19307928D01*
X110921169Y-19325440D01*
X110935434Y-19524880D01*
X110935750Y-19533727D01*
X110935750Y-49756584D01*
X110935749Y-49756588D01*
X110935749Y-49780917D01*
X110935749Y-49799613D01*
X110935749Y-49818046D01*
X110935433Y-49826896D01*
X110921102Y-50027179D01*
X110918580Y-50044704D01*
X110876819Y-50236545D01*
X110871828Y-50253532D01*
X110803167Y-50437480D01*
X110795808Y-50453582D01*
X110701652Y-50625875D01*
X110692074Y-50640766D01*
X110574337Y-50797897D01*
X110562736Y-50811271D01*
X110423829Y-50950026D01*
X110410441Y-50961613D01*
X110253183Y-51079173D01*
X110238283Y-51088734D01*
X110065886Y-51182702D01*
X110049774Y-51190044D01*
X109865748Y-51258501D01*
X109848757Y-51263473D01*
X109656866Y-51305024D01*
X109639338Y-51307526D01*
X109438716Y-51321660D01*
X109429865Y-51321967D01*
X109363598Y-51321894D01*
X109363565Y-51321895D01*
X23265264Y-51228110D01*
X22510508Y-51227288D01*
X22510506Y-51227288D01*
X22510262Y-51227287D01*
X22449038Y-51227220D01*
X22440201Y-51226895D01*
X22240212Y-51212384D01*
X22222714Y-51209850D01*
X22031172Y-51167994D01*
X22014214Y-51162999D01*
X21830552Y-51094322D01*
X21814474Y-51086964D01*
X21800231Y-51079173D01*
X21642451Y-50992866D01*
X21627600Y-50983308D01*
X21470687Y-50865687D01*
X21457360Y-50854125D01*
X21318770Y-50715383D01*
X21307208Y-50702025D01*
X21189775Y-50545007D01*
X21180224Y-50530132D01*
X21086318Y-50358011D01*
X21078979Y-50341928D01*
X21010501Y-50158193D01*
X21005523Y-50141227D01*
X20963876Y-49949637D01*
X20961361Y-49932137D01*
X20955443Y-49849329D01*
X20947064Y-49732083D01*
X20946750Y-49723247D01*
X20946751Y-49661828D01*
X20946750Y-49661824D01*
X20946750Y-49650666D01*
X31991500Y-49650666D01*
X31991500Y-49849333D01*
X32030254Y-50044161D01*
X32030256Y-50044169D01*
X32106277Y-50227701D01*
X32106282Y-50227710D01*
X32216646Y-50392880D01*
X32216649Y-50392884D01*
X32357115Y-50533350D01*
X32357119Y-50533353D01*
X32522289Y-50643717D01*
X32522295Y-50643720D01*
X32522296Y-50643721D01*
X32705831Y-50719744D01*
X32883880Y-50755160D01*
X32900666Y-50758499D01*
X32900670Y-50758500D01*
X32900671Y-50758500D01*
X36586830Y-50758500D01*
X36586830Y-50758499D01*
X36740752Y-50727883D01*
X36764943Y-50725500D01*
X37005843Y-50725500D01*
X37005848Y-50725500D01*
X37107775Y-50715087D01*
X37272925Y-50660362D01*
X37421003Y-50569026D01*
X37544026Y-50446003D01*
X37635362Y-50297925D01*
X37690087Y-50132775D01*
X37700500Y-50030848D01*
X37700500Y-49444152D01*
X37690087Y-49342225D01*
X37635362Y-49177075D01*
X37635358Y-49177069D01*
X37635357Y-49177066D01*
X37544028Y-49029000D01*
X37544025Y-49028996D01*
X37421003Y-48905974D01*
X37420995Y-48905968D01*
X37419812Y-48905238D01*
X37419171Y-48904525D01*
X37415336Y-48901493D01*
X37415854Y-48900837D01*
X37373091Y-48853287D01*
X37361875Y-48784323D01*
X37389723Y-48720243D01*
X37415123Y-48698238D01*
X37415023Y-48698112D01*
X37417842Y-48695882D01*
X37419832Y-48694159D01*
X37420692Y-48693628D01*
X37543629Y-48570691D01*
X37634903Y-48422714D01*
X37634905Y-48422709D01*
X37689592Y-48257673D01*
X37699999Y-48155815D01*
X37700000Y-48155802D01*
X37700000Y-48112500D01*
X35300000Y-48112500D01*
X35300000Y-48155815D01*
X35310407Y-48257673D01*
X35365094Y-48422709D01*
X35365096Y-48422714D01*
X35445090Y-48552403D01*
X35463530Y-48619795D01*
X35442608Y-48686459D01*
X35388966Y-48731229D01*
X35339551Y-48741500D01*
X32900666Y-48741500D01*
X32705838Y-48780254D01*
X32705830Y-48780256D01*
X32522298Y-48856277D01*
X32522289Y-48856282D01*
X32357119Y-48966646D01*
X32357115Y-48966649D01*
X32216649Y-49107115D01*
X32216646Y-49107119D01*
X32106282Y-49272289D01*
X32106277Y-49272298D01*
X32030256Y-49455830D01*
X32030254Y-49455838D01*
X31991500Y-49650666D01*
X20946750Y-49650666D01*
X20946750Y-47569184D01*
X35300000Y-47569184D01*
X35300000Y-47612500D01*
X36250000Y-47612500D01*
X36750000Y-47612500D01*
X37700000Y-47612500D01*
X37700000Y-47569197D01*
X37699999Y-47569184D01*
X37689592Y-47467326D01*
X37634905Y-47302290D01*
X37634903Y-47302285D01*
X37543629Y-47154308D01*
X37420691Y-47031370D01*
X37272714Y-46940096D01*
X37272709Y-46940094D01*
X37107673Y-46885407D01*
X37005815Y-46875000D01*
X36750000Y-46875000D01*
X36750000Y-47612500D01*
X36250000Y-47612500D01*
X36250000Y-46875000D01*
X35994184Y-46875000D01*
X35892326Y-46885407D01*
X35727290Y-46940094D01*
X35727285Y-46940096D01*
X35579308Y-47031370D01*
X35456370Y-47154308D01*
X35365096Y-47302285D01*
X35365094Y-47302290D01*
X35310407Y-47467326D01*
X35300000Y-47569184D01*
X20946750Y-47569184D01*
X20946750Y-45627973D01*
X71635750Y-45627973D01*
X71635750Y-45872026D01*
X71673928Y-46113072D01*
X71749347Y-46345187D01*
X71860146Y-46562642D01*
X72003589Y-46760076D01*
X72003593Y-46760081D01*
X72176168Y-46932656D01*
X72176173Y-46932660D01*
X72312037Y-47031370D01*
X72373611Y-47076106D01*
X72591065Y-47186904D01*
X72823174Y-47262321D01*
X73064223Y-47300500D01*
X73064224Y-47300500D01*
X73308276Y-47300500D01*
X73308277Y-47300500D01*
X73549326Y-47262321D01*
X73781435Y-47186904D01*
X73998889Y-47076106D01*
X74196333Y-46932655D01*
X74368905Y-46760083D01*
X74512356Y-46562639D01*
X74623154Y-46345185D01*
X74698571Y-46113076D01*
X74736750Y-45872027D01*
X74736750Y-45627973D01*
X74698571Y-45386924D01*
X74623154Y-45154815D01*
X74512356Y-44937361D01*
X74436710Y-44833243D01*
X74368910Y-44739923D01*
X74368906Y-44739918D01*
X74196331Y-44567343D01*
X74196326Y-44567339D01*
X73998892Y-44423896D01*
X73998891Y-44423895D01*
X73998889Y-44423894D01*
X73781435Y-44313096D01*
X73549326Y-44237679D01*
X73549324Y-44237678D01*
X73549322Y-44237678D01*
X73381019Y-44211021D01*
X73308277Y-44199500D01*
X73064223Y-44199500D01*
X73008343Y-44208350D01*
X72823177Y-44237678D01*
X72591062Y-44313097D01*
X72373607Y-44423896D01*
X72176173Y-44567339D01*
X72176168Y-44567343D01*
X72003593Y-44739918D01*
X72003589Y-44739923D01*
X71860146Y-44937357D01*
X71749347Y-45154812D01*
X71673928Y-45386927D01*
X71635750Y-45627973D01*
X20946750Y-45627973D01*
X20946750Y-43654778D01*
X106114500Y-43654778D01*
X106114500Y-43875221D01*
X106148985Y-44092952D01*
X106217103Y-44302603D01*
X106217104Y-44302606D01*
X106317187Y-44499025D01*
X106446752Y-44677358D01*
X106446756Y-44677363D01*
X106602636Y-44833243D01*
X106602641Y-44833247D01*
X106745938Y-44937357D01*
X106780978Y-44962815D01*
X106909375Y-45028237D01*
X106977393Y-45062895D01*
X106977396Y-45062896D01*
X107082221Y-45096955D01*
X107187049Y-45131015D01*
X107404778Y-45165500D01*
X107404779Y-45165500D01*
X107625221Y-45165500D01*
X107625222Y-45165500D01*
X107842951Y-45131015D01*
X108052606Y-45062895D01*
X108249022Y-44962815D01*
X108427365Y-44833242D01*
X108583242Y-44677365D01*
X108712815Y-44499022D01*
X108812895Y-44302606D01*
X108881015Y-44092951D01*
X108915500Y-43875222D01*
X108915500Y-43654778D01*
X108881015Y-43437049D01*
X108812895Y-43227394D01*
X108812895Y-43227393D01*
X108778237Y-43159375D01*
X108712815Y-43030978D01*
X108586811Y-42857547D01*
X108583247Y-42852641D01*
X108583243Y-42852636D01*
X108532683Y-42802076D01*
X108499198Y-42740753D01*
X108504182Y-42671061D01*
X108546054Y-42615128D01*
X108577031Y-42598213D01*
X108657086Y-42568354D01*
X108657093Y-42568350D01*
X108772187Y-42482190D01*
X108772190Y-42482187D01*
X108858350Y-42367093D01*
X108858354Y-42367086D01*
X108908596Y-42232379D01*
X108908598Y-42232372D01*
X108914999Y-42172844D01*
X108915000Y-42172827D01*
X108915000Y-41475000D01*
X107890278Y-41475000D01*
X107934333Y-41398694D01*
X107965000Y-41284244D01*
X107965000Y-41165756D01*
X107934333Y-41051306D01*
X107890278Y-40975000D01*
X108915000Y-40975000D01*
X108915000Y-40277172D01*
X108914999Y-40277155D01*
X108908598Y-40217627D01*
X108908596Y-40217620D01*
X108858354Y-40082913D01*
X108858350Y-40082906D01*
X108772190Y-39967812D01*
X108772187Y-39967809D01*
X108657093Y-39881649D01*
X108657086Y-39881645D01*
X108522379Y-39831403D01*
X108522372Y-39831401D01*
X108462844Y-39825000D01*
X107765000Y-39825000D01*
X107765000Y-40849722D01*
X107688694Y-40805667D01*
X107574244Y-40775000D01*
X107455756Y-40775000D01*
X107341306Y-40805667D01*
X107265000Y-40849722D01*
X107265000Y-39825000D01*
X106567155Y-39825000D01*
X106507627Y-39831401D01*
X106507620Y-39831403D01*
X106372913Y-39881645D01*
X106372906Y-39881649D01*
X106257812Y-39967809D01*
X106257809Y-39967812D01*
X106171649Y-40082906D01*
X106171645Y-40082913D01*
X106121403Y-40217620D01*
X106121401Y-40217627D01*
X106115000Y-40277155D01*
X106115000Y-40975000D01*
X107139722Y-40975000D01*
X107095667Y-41051306D01*
X107065000Y-41165756D01*
X107065000Y-41284244D01*
X107095667Y-41398694D01*
X107139722Y-41475000D01*
X106115000Y-41475000D01*
X106115000Y-42172844D01*
X106121401Y-42232372D01*
X106121403Y-42232379D01*
X106171645Y-42367086D01*
X106171649Y-42367093D01*
X106257809Y-42482187D01*
X106257812Y-42482190D01*
X106372906Y-42568350D01*
X106372913Y-42568354D01*
X106452968Y-42598213D01*
X106508902Y-42640084D01*
X106533319Y-42705549D01*
X106518467Y-42773822D01*
X106497317Y-42802075D01*
X106446756Y-42852636D01*
X106446752Y-42852641D01*
X106317187Y-43030974D01*
X106217104Y-43227393D01*
X106217103Y-43227396D01*
X106148985Y-43437047D01*
X106114500Y-43654778D01*
X20946750Y-43654778D01*
X20946750Y-39452135D01*
X47035750Y-39452135D01*
X47035750Y-42547870D01*
X47035751Y-42547876D01*
X47042158Y-42607483D01*
X47092452Y-42742328D01*
X47092456Y-42742335D01*
X47178702Y-42857544D01*
X47178705Y-42857547D01*
X47293914Y-42943793D01*
X47293921Y-42943797D01*
X47428767Y-42994091D01*
X47428766Y-42994091D01*
X47435694Y-42994835D01*
X47488377Y-43000500D01*
X50584122Y-43000499D01*
X50643733Y-42994091D01*
X50778581Y-42943796D01*
X50893796Y-42857546D01*
X50980046Y-42742331D01*
X51030341Y-42607483D01*
X51036750Y-42547873D01*
X51036749Y-39900666D01*
X54827750Y-39900666D01*
X54827750Y-40099333D01*
X54866504Y-40294161D01*
X54866506Y-40294169D01*
X54942527Y-40477701D01*
X54942532Y-40477710D01*
X55052896Y-40642880D01*
X55052899Y-40642884D01*
X55193365Y-40783350D01*
X55193369Y-40783353D01*
X55358539Y-40893717D01*
X55358545Y-40893720D01*
X55358546Y-40893721D01*
X55542081Y-40969744D01*
X55736916Y-41008499D01*
X55736920Y-41008500D01*
X55736921Y-41008500D01*
X65535580Y-41008500D01*
X65535581Y-41008499D01*
X65730419Y-40969744D01*
X65913954Y-40893721D01*
X66079131Y-40783353D01*
X66219603Y-40642881D01*
X66329971Y-40477704D01*
X66405994Y-40294169D01*
X66444750Y-40099329D01*
X66444750Y-39900671D01*
X66405994Y-39705831D01*
X66340523Y-39547770D01*
X66329972Y-39522298D01*
X66329967Y-39522289D01*
X66219603Y-39357119D01*
X66219600Y-39357115D01*
X66079134Y-39216649D01*
X66079130Y-39216646D01*
X65913960Y-39106282D01*
X65913951Y-39106277D01*
X65730419Y-39030256D01*
X65730411Y-39030254D01*
X65535583Y-38991500D01*
X65535579Y-38991500D01*
X55736921Y-38991500D01*
X55736916Y-38991500D01*
X55542088Y-39030254D01*
X55542080Y-39030256D01*
X55358548Y-39106277D01*
X55358539Y-39106282D01*
X55193369Y-39216646D01*
X55193365Y-39216649D01*
X55052899Y-39357115D01*
X55052896Y-39357119D01*
X54942532Y-39522289D01*
X54942527Y-39522298D01*
X54866506Y-39705830D01*
X54866504Y-39705838D01*
X54827750Y-39900666D01*
X51036749Y-39900666D01*
X51036749Y-39452128D01*
X51030341Y-39392517D01*
X51017138Y-39357119D01*
X50980047Y-39257671D01*
X50980043Y-39257664D01*
X50893797Y-39142455D01*
X50893794Y-39142452D01*
X50778585Y-39056206D01*
X50778578Y-39056202D01*
X50643732Y-39005908D01*
X50643733Y-39005908D01*
X50584133Y-38999501D01*
X50584131Y-38999500D01*
X50584123Y-38999500D01*
X50584114Y-38999500D01*
X47488379Y-38999500D01*
X47488373Y-38999501D01*
X47428766Y-39005908D01*
X47293921Y-39056202D01*
X47293914Y-39056206D01*
X47178705Y-39142452D01*
X47178702Y-39142455D01*
X47092456Y-39257664D01*
X47092452Y-39257671D01*
X47042158Y-39392517D01*
X47035751Y-39452116D01*
X47035751Y-39452123D01*
X47035750Y-39452135D01*
X20946750Y-39452135D01*
X20946750Y-31059635D01*
X22485750Y-31059635D01*
X22485750Y-33060370D01*
X22485751Y-33060376D01*
X22492158Y-33119983D01*
X22542452Y-33254828D01*
X22542456Y-33254835D01*
X22628702Y-33370044D01*
X22628705Y-33370047D01*
X22743914Y-33456293D01*
X22743917Y-33456295D01*
X22743918Y-33456295D01*
X22743919Y-33456296D01*
X22772275Y-33466872D01*
X22828208Y-33508742D01*
X22852626Y-33574206D01*
X22837775Y-33642479D01*
X22829260Y-33655939D01*
X22696463Y-33838719D01*
X22592667Y-34042429D01*
X22522015Y-34259871D01*
X22507741Y-34350000D01*
X23495502Y-34350000D01*
X23473732Y-34387708D01*
X23436250Y-34527591D01*
X23436250Y-34672409D01*
X23473732Y-34812292D01*
X23495502Y-34850000D01*
X22507741Y-34850000D01*
X22522015Y-34940128D01*
X22592667Y-35157570D01*
X22696461Y-35361276D01*
X22830847Y-35546242D01*
X22992507Y-35707902D01*
X22992513Y-35707907D01*
X23077113Y-35769372D01*
X23119779Y-35824701D01*
X23125758Y-35894315D01*
X23093153Y-35956110D01*
X23077114Y-35970007D01*
X22992190Y-36031709D01*
X22992181Y-36031716D01*
X22830466Y-36193431D01*
X22830466Y-36193432D01*
X22830464Y-36193434D01*
X22772730Y-36272896D01*
X22696033Y-36378461D01*
X22592200Y-36582244D01*
X22521528Y-36799750D01*
X22521528Y-36799753D01*
X22485750Y-37025646D01*
X22485750Y-37254353D01*
X22521528Y-37480246D01*
X22521528Y-37480249D01*
X22592200Y-37697755D01*
X22696033Y-37901538D01*
X22830464Y-38086566D01*
X22992184Y-38248286D01*
X23177212Y-38382717D01*
X23380992Y-38486548D01*
X23380994Y-38486549D01*
X23598501Y-38557221D01*
X23598502Y-38557221D01*
X23598505Y-38557222D01*
X23824396Y-38593000D01*
X23824397Y-38593000D01*
X24148103Y-38593000D01*
X24148104Y-38593000D01*
X24373995Y-38557222D01*
X24373998Y-38557221D01*
X24373999Y-38557221D01*
X24591505Y-38486549D01*
X24591505Y-38486548D01*
X24591508Y-38486548D01*
X24795288Y-38382717D01*
X24980316Y-38248286D01*
X25142036Y-38086566D01*
X25276467Y-37901538D01*
X25380298Y-37697758D01*
X25450972Y-37480245D01*
X25486750Y-37254354D01*
X25486750Y-37025646D01*
X25466139Y-36895513D01*
X38235750Y-36895513D01*
X38235750Y-37384486D01*
X38265309Y-37571118D01*
X38323704Y-37750836D01*
X38400491Y-37901538D01*
X38409490Y-37919199D01*
X38520560Y-38072073D01*
X38654177Y-38205690D01*
X38807051Y-38316760D01*
X38886597Y-38357290D01*
X38975413Y-38402545D01*
X38975415Y-38402545D01*
X38975418Y-38402547D01*
X39071747Y-38433846D01*
X39155131Y-38460940D01*
X39341764Y-38490500D01*
X39341769Y-38490500D01*
X39530736Y-38490500D01*
X39717368Y-38460940D01*
X39897082Y-38402547D01*
X40065449Y-38316760D01*
X40218323Y-38205690D01*
X40351940Y-38072073D01*
X40463010Y-37919199D01*
X40548797Y-37750832D01*
X40607190Y-37571118D01*
X40621583Y-37480245D01*
X40636750Y-37384486D01*
X40636750Y-36895513D01*
X40607190Y-36708881D01*
X40580096Y-36625497D01*
X40548797Y-36529168D01*
X40548795Y-36529165D01*
X40548795Y-36529163D01*
X40503540Y-36440347D01*
X40463010Y-36360801D01*
X40351940Y-36207927D01*
X40218323Y-36074310D01*
X40065449Y-35963240D01*
X40051456Y-35956110D01*
X39897086Y-35877454D01*
X39717368Y-35819059D01*
X39530736Y-35789500D01*
X39530731Y-35789500D01*
X39341769Y-35789500D01*
X39341764Y-35789500D01*
X39155131Y-35819059D01*
X38975413Y-35877454D01*
X38807050Y-35963240D01*
X38719829Y-36026610D01*
X38654177Y-36074310D01*
X38654175Y-36074312D01*
X38654174Y-36074312D01*
X38520562Y-36207924D01*
X38520562Y-36207925D01*
X38520560Y-36207927D01*
X38472860Y-36273579D01*
X38409490Y-36360800D01*
X38323704Y-36529163D01*
X38265309Y-36708881D01*
X38235750Y-36895513D01*
X25466139Y-36895513D01*
X25450972Y-36799755D01*
X25450971Y-36799750D01*
X25380299Y-36582244D01*
X25276466Y-36378461D01*
X25142036Y-36193434D01*
X24980316Y-36031714D01*
X24895384Y-35970007D01*
X24852720Y-35914678D01*
X24846741Y-35845064D01*
X24879347Y-35783269D01*
X24895387Y-35769371D01*
X24979989Y-35707905D01*
X25141652Y-35546242D01*
X25276038Y-35361276D01*
X25379832Y-35157570D01*
X25450484Y-34940128D01*
X25464759Y-34850000D01*
X24476998Y-34850000D01*
X24498768Y-34812292D01*
X24536250Y-34672409D01*
X24536250Y-34527591D01*
X24498768Y-34387708D01*
X24476998Y-34350000D01*
X25464759Y-34350000D01*
X25450484Y-34259871D01*
X25379832Y-34042429D01*
X25276038Y-33838723D01*
X25143238Y-33655940D01*
X25119758Y-33590133D01*
X25135583Y-33522079D01*
X25185689Y-33473384D01*
X25200216Y-33466875D01*
X25228581Y-33456296D01*
X25343796Y-33370046D01*
X25430046Y-33254831D01*
X25480341Y-33119983D01*
X25486750Y-33060373D01*
X25486750Y-32710730D01*
X38236251Y-32710730D01*
X38246732Y-32813332D01*
X38246733Y-32813335D01*
X38301821Y-32979578D01*
X38301823Y-32979583D01*
X38393766Y-33128645D01*
X38517604Y-33252483D01*
X38666666Y-33344426D01*
X38666671Y-33344428D01*
X38832916Y-33399516D01*
X38832923Y-33399517D01*
X38935527Y-33409999D01*
X39186249Y-33409999D01*
X39686250Y-33409999D01*
X39936964Y-33409999D01*
X39936980Y-33409998D01*
X40039582Y-33399517D01*
X40039585Y-33399516D01*
X40205828Y-33344428D01*
X40205833Y-33344426D01*
X40354895Y-33252483D01*
X40478733Y-33128645D01*
X40570676Y-32979583D01*
X40570678Y-32979578D01*
X40625766Y-32813333D01*
X40625767Y-32813326D01*
X40636249Y-32710728D01*
X40636250Y-32710715D01*
X40636250Y-32310000D01*
X39686250Y-32310000D01*
X39686250Y-33409999D01*
X39186249Y-33409999D01*
X39186250Y-33409998D01*
X39186250Y-32310000D01*
X38236251Y-32310000D01*
X38236251Y-32710730D01*
X25486750Y-32710730D01*
X25486749Y-32013922D01*
X39086250Y-32013922D01*
X39086250Y-32106078D01*
X39110102Y-32195095D01*
X39156180Y-32274905D01*
X39221345Y-32340070D01*
X39301155Y-32386148D01*
X39390172Y-32410000D01*
X39482328Y-32410000D01*
X39571345Y-32386148D01*
X39651155Y-32340070D01*
X39716320Y-32274905D01*
X39762398Y-32195095D01*
X39786250Y-32106078D01*
X39786250Y-32013922D01*
X39762398Y-31924905D01*
X39716320Y-31845095D01*
X39681225Y-31810000D01*
X39686250Y-31810000D01*
X40636249Y-31810000D01*
X40636249Y-31409286D01*
X40636248Y-31409269D01*
X40625767Y-31306667D01*
X40625766Y-31306664D01*
X40570678Y-31140421D01*
X40570676Y-31140416D01*
X40478733Y-30991354D01*
X40354895Y-30867516D01*
X40205833Y-30775573D01*
X40205828Y-30775571D01*
X40039583Y-30720483D01*
X40039576Y-30720482D01*
X39936978Y-30710000D01*
X39686250Y-30710000D01*
X39686250Y-31810000D01*
X39681225Y-31810000D01*
X39651155Y-31779930D01*
X39571345Y-31733852D01*
X39482328Y-31710000D01*
X39390172Y-31710000D01*
X39301155Y-31733852D01*
X39221345Y-31779930D01*
X39156180Y-31845095D01*
X39110102Y-31924905D01*
X39086250Y-32013922D01*
X25486749Y-32013922D01*
X25486749Y-31409271D01*
X38236250Y-31409271D01*
X38236250Y-31810000D01*
X39186250Y-31810000D01*
X39186250Y-30710000D01*
X38935537Y-30710000D01*
X38935518Y-30710001D01*
X38832917Y-30720482D01*
X38832914Y-30720483D01*
X38666671Y-30775571D01*
X38666666Y-30775573D01*
X38517604Y-30867516D01*
X38393766Y-30991354D01*
X38301823Y-31140416D01*
X38301821Y-31140421D01*
X38246733Y-31306666D01*
X38246732Y-31306673D01*
X38236250Y-31409271D01*
X25486749Y-31409271D01*
X25486749Y-31406122D01*
X25486749Y-31059629D01*
X25486748Y-31059623D01*
X25486747Y-31059616D01*
X25480341Y-31000017D01*
X25430921Y-30867516D01*
X25430047Y-30865171D01*
X25430043Y-30865164D01*
X25343797Y-30749955D01*
X25343794Y-30749952D01*
X25228585Y-30663706D01*
X25228578Y-30663702D01*
X25093732Y-30613408D01*
X25093733Y-30613408D01*
X25034133Y-30607001D01*
X25034131Y-30607000D01*
X25034123Y-30607000D01*
X25034114Y-30607000D01*
X22938379Y-30607000D01*
X22938373Y-30607001D01*
X22878766Y-30613408D01*
X22743921Y-30663702D01*
X22743914Y-30663706D01*
X22628705Y-30749952D01*
X22628702Y-30749955D01*
X22542456Y-30865164D01*
X22542452Y-30865171D01*
X22492158Y-31000017D01*
X22485751Y-31059616D01*
X22485751Y-31059623D01*
X22485750Y-31059635D01*
X20946750Y-31059635D01*
X20946750Y-28168905D01*
X47036250Y-28168905D01*
X47036250Y-28431094D01*
X47070470Y-28691009D01*
X47070472Y-28691020D01*
X47138325Y-28944255D01*
X47238654Y-29186471D01*
X47238659Y-29186482D01*
X47369738Y-29413516D01*
X47369744Y-29413524D01*
X47456330Y-29526365D01*
X48028366Y-28954329D01*
X48120941Y-29081748D01*
X48254502Y-29215309D01*
X48381919Y-29307882D01*
X47809883Y-29879917D01*
X47809883Y-29879918D01*
X47922725Y-29966505D01*
X47922733Y-29966511D01*
X48149767Y-30097590D01*
X48149778Y-30097595D01*
X48391994Y-30197924D01*
X48645229Y-30265777D01*
X48645240Y-30265779D01*
X48905155Y-30299999D01*
X48905170Y-30300000D01*
X49167330Y-30300000D01*
X49167344Y-30299999D01*
X49427259Y-30265779D01*
X49427270Y-30265777D01*
X49680505Y-30197924D01*
X49922721Y-30097595D01*
X49922732Y-30097590D01*
X50149766Y-29966511D01*
X50149784Y-29966499D01*
X50262615Y-29879919D01*
X50262615Y-29879917D01*
X49690580Y-29307882D01*
X49817998Y-29215309D01*
X49951559Y-29081748D01*
X50044132Y-28954330D01*
X50616167Y-29526365D01*
X50616169Y-29526365D01*
X50702749Y-29413534D01*
X50702761Y-29413516D01*
X50833840Y-29186482D01*
X50833845Y-29186471D01*
X50934174Y-28944255D01*
X51002027Y-28691020D01*
X51002029Y-28691009D01*
X51036249Y-28431094D01*
X51036250Y-28431080D01*
X51036250Y-28168919D01*
X51036249Y-28168905D01*
X51002029Y-27908990D01*
X51002027Y-27908979D01*
X50934174Y-27655744D01*
X50833845Y-27413528D01*
X50833840Y-27413517D01*
X50702761Y-27186483D01*
X50702755Y-27186475D01*
X50616168Y-27073633D01*
X50616167Y-27073633D01*
X50044132Y-27645668D01*
X49951559Y-27518252D01*
X49817998Y-27384691D01*
X49690578Y-27292116D01*
X50262615Y-26720080D01*
X50149774Y-26633494D01*
X50149766Y-26633488D01*
X49922732Y-26502409D01*
X49922721Y-26502404D01*
X49680505Y-26402075D01*
X49427270Y-26334222D01*
X49427259Y-26334220D01*
X49167344Y-26300000D01*
X48905155Y-26300000D01*
X48645240Y-26334220D01*
X48645229Y-26334222D01*
X48391994Y-26402075D01*
X48149778Y-26502404D01*
X48149767Y-26502409D01*
X47922721Y-26633496D01*
X47809883Y-26720079D01*
X47809883Y-26720080D01*
X48381919Y-27292116D01*
X48254502Y-27384691D01*
X48120941Y-27518252D01*
X48028366Y-27645669D01*
X47456330Y-27073633D01*
X47456329Y-27073633D01*
X47369746Y-27186471D01*
X47238659Y-27413517D01*
X47238654Y-27413528D01*
X47138325Y-27655744D01*
X47070472Y-27908979D01*
X47070470Y-27908990D01*
X47036250Y-28168905D01*
X20946750Y-28168905D01*
X20946750Y-23427973D01*
X58385750Y-23427973D01*
X58385750Y-23672026D01*
X58418950Y-23881645D01*
X58423929Y-23913076D01*
X58499346Y-24145185D01*
X58536253Y-24217620D01*
X58610146Y-24362642D01*
X58753589Y-24560076D01*
X58753593Y-24560081D01*
X58926168Y-24732656D01*
X58926173Y-24732660D01*
X59098386Y-24857779D01*
X59123611Y-24876106D01*
X59341065Y-24986904D01*
X59573174Y-25062321D01*
X59814223Y-25100500D01*
X59814224Y-25100500D01*
X60058276Y-25100500D01*
X60058277Y-25100500D01*
X60299326Y-25062321D01*
X60531435Y-24986904D01*
X60748889Y-24876106D01*
X60946333Y-24732655D01*
X61118905Y-24560083D01*
X61262356Y-24362639D01*
X61373154Y-24145185D01*
X61448571Y-23913076D01*
X61486750Y-23672027D01*
X61486750Y-23631304D01*
X76635750Y-23631304D01*
X76635750Y-23808695D01*
X76670353Y-23982658D01*
X76670356Y-23982667D01*
X76738233Y-24146540D01*
X76738240Y-24146553D01*
X76836785Y-24294034D01*
X76836788Y-24294038D01*
X76962211Y-24419461D01*
X76962215Y-24419464D01*
X77109696Y-24518009D01*
X77109709Y-24518016D01*
X77211253Y-24560076D01*
X77273584Y-24585894D01*
X77273586Y-24585894D01*
X77273591Y-24585896D01*
X77447554Y-24620499D01*
X77447557Y-24620500D01*
X77447559Y-24620500D01*
X77624943Y-24620500D01*
X77682425Y-24609065D01*
X77708480Y-24603882D01*
X77732671Y-24601500D01*
X80139758Y-24601500D01*
X80206797Y-24621185D01*
X80227439Y-24637819D01*
X84018431Y-28428810D01*
X84051916Y-28490133D01*
X84054750Y-28516491D01*
X84054750Y-39523578D01*
X84052367Y-39547770D01*
X84035750Y-39631306D01*
X84035750Y-39808695D01*
X84070353Y-39982658D01*
X84070356Y-39982667D01*
X84138233Y-40146540D01*
X84138240Y-40146553D01*
X84236785Y-40294034D01*
X84236788Y-40294038D01*
X84362211Y-40419461D01*
X84362215Y-40419464D01*
X84509696Y-40518009D01*
X84509709Y-40518016D01*
X84632613Y-40568923D01*
X84673584Y-40585894D01*
X84673586Y-40585894D01*
X84673591Y-40585896D01*
X84847554Y-40620499D01*
X84847557Y-40620500D01*
X84847559Y-40620500D01*
X85024943Y-40620500D01*
X85024944Y-40620499D01*
X85082932Y-40608964D01*
X85198908Y-40585896D01*
X85198911Y-40585894D01*
X85198916Y-40585894D01*
X85362797Y-40518013D01*
X85510285Y-40419464D01*
X85635714Y-40294035D01*
X85686769Y-40217627D01*
X85695233Y-40204960D01*
X85734259Y-40146553D01*
X85734259Y-40146552D01*
X85734263Y-40146547D01*
X85802144Y-39982666D01*
X85805100Y-39967809D01*
X85836749Y-39808695D01*
X85836750Y-39808693D01*
X85836750Y-39631306D01*
X85820133Y-39547770D01*
X85817750Y-39523578D01*
X85817750Y-35654778D01*
X106114500Y-35654778D01*
X106114500Y-35875222D01*
X106114854Y-35877454D01*
X106148985Y-36092952D01*
X106217103Y-36302603D01*
X106217104Y-36302606D01*
X106317187Y-36499025D01*
X106446752Y-36677358D01*
X106446756Y-36677363D01*
X106602636Y-36833243D01*
X106602641Y-36833247D01*
X106708346Y-36910045D01*
X106780978Y-36962815D01*
X106909375Y-37028237D01*
X106977393Y-37062895D01*
X106977396Y-37062896D01*
X107082221Y-37096955D01*
X107187049Y-37131015D01*
X107404778Y-37165500D01*
X107404779Y-37165500D01*
X107625221Y-37165500D01*
X107625222Y-37165500D01*
X107842951Y-37131015D01*
X108052606Y-37062895D01*
X108249022Y-36962815D01*
X108427365Y-36833242D01*
X108583242Y-36677365D01*
X108712815Y-36499022D01*
X108812895Y-36302606D01*
X108881015Y-36092951D01*
X108915500Y-35875222D01*
X108915500Y-35654778D01*
X108881015Y-35437049D01*
X108812895Y-35227394D01*
X108812895Y-35227393D01*
X108754362Y-35112518D01*
X108712815Y-35030978D01*
X108645051Y-34937708D01*
X108583247Y-34852641D01*
X108583243Y-34852636D01*
X108532683Y-34802076D01*
X108499198Y-34740753D01*
X108504182Y-34671061D01*
X108546054Y-34615128D01*
X108577031Y-34598213D01*
X108657086Y-34568354D01*
X108657093Y-34568350D01*
X108772187Y-34482190D01*
X108772190Y-34482187D01*
X108858350Y-34367093D01*
X108858354Y-34367086D01*
X108908596Y-34232379D01*
X108908598Y-34232372D01*
X108914999Y-34172844D01*
X108915000Y-34172827D01*
X108915000Y-33475000D01*
X107890278Y-33475000D01*
X107934333Y-33398694D01*
X107965000Y-33284244D01*
X107965000Y-33165756D01*
X107934333Y-33051306D01*
X107890278Y-32975000D01*
X108915000Y-32975000D01*
X108915000Y-32277172D01*
X108914999Y-32277155D01*
X108908598Y-32217627D01*
X108908596Y-32217620D01*
X108858354Y-32082913D01*
X108858350Y-32082906D01*
X108772190Y-31967812D01*
X108772187Y-31967809D01*
X108657093Y-31881649D01*
X108657086Y-31881645D01*
X108522379Y-31831403D01*
X108522372Y-31831401D01*
X108462844Y-31825000D01*
X107765000Y-31825000D01*
X107765000Y-32849722D01*
X107688694Y-32805667D01*
X107574244Y-32775000D01*
X107455756Y-32775000D01*
X107341306Y-32805667D01*
X107265000Y-32849722D01*
X107265000Y-31825000D01*
X106567155Y-31825000D01*
X106507627Y-31831401D01*
X106507620Y-31831403D01*
X106372913Y-31881645D01*
X106372906Y-31881649D01*
X106257812Y-31967809D01*
X106257809Y-31967812D01*
X106171649Y-32082906D01*
X106171645Y-32082913D01*
X106121403Y-32217620D01*
X106121401Y-32217627D01*
X106115000Y-32277155D01*
X106115000Y-32975000D01*
X107139722Y-32975000D01*
X107095667Y-33051306D01*
X107065000Y-33165756D01*
X107065000Y-33284244D01*
X107095667Y-33398694D01*
X107139722Y-33475000D01*
X106115000Y-33475000D01*
X106115000Y-34172844D01*
X106121401Y-34232372D01*
X106121403Y-34232379D01*
X106171645Y-34367086D01*
X106171649Y-34367093D01*
X106257809Y-34482187D01*
X106257812Y-34482190D01*
X106372906Y-34568350D01*
X106372913Y-34568354D01*
X106452968Y-34598213D01*
X106508902Y-34640084D01*
X106533319Y-34705549D01*
X106518467Y-34773822D01*
X106497317Y-34802075D01*
X106446756Y-34852636D01*
X106446752Y-34852641D01*
X106317187Y-35030974D01*
X106217104Y-35227393D01*
X106217103Y-35227396D01*
X106148985Y-35437047D01*
X106148985Y-35437049D01*
X106114500Y-35654778D01*
X85817750Y-35654778D01*
X85817750Y-28013177D01*
X85783875Y-27842881D01*
X85783874Y-27842880D01*
X85783874Y-27842876D01*
X85717425Y-27682453D01*
X85717421Y-27682446D01*
X85698934Y-27654778D01*
X106114500Y-27654778D01*
X106114500Y-27875221D01*
X106148985Y-28092952D01*
X106217103Y-28302603D01*
X106217104Y-28302606D01*
X106263898Y-28394442D01*
X106299915Y-28465129D01*
X106317187Y-28499025D01*
X106446752Y-28677358D01*
X106446756Y-28677363D01*
X106602636Y-28833243D01*
X106602641Y-28833247D01*
X106734349Y-28928937D01*
X106780978Y-28962815D01*
X106909375Y-29028237D01*
X106977393Y-29062895D01*
X106977396Y-29062896D01*
X107035418Y-29081748D01*
X107187049Y-29131015D01*
X107404778Y-29165500D01*
X107404779Y-29165500D01*
X107625221Y-29165500D01*
X107625222Y-29165500D01*
X107842951Y-29131015D01*
X108052606Y-29062895D01*
X108249022Y-28962815D01*
X108427365Y-28833242D01*
X108583242Y-28677365D01*
X108712815Y-28499022D01*
X108812895Y-28302606D01*
X108881015Y-28092951D01*
X108915500Y-27875222D01*
X108915500Y-27654778D01*
X108881015Y-27437049D01*
X108812895Y-27227394D01*
X108812895Y-27227393D01*
X108763039Y-27129548D01*
X108712815Y-27030978D01*
X108696260Y-27008192D01*
X108583247Y-26852641D01*
X108583243Y-26852636D01*
X108532683Y-26802076D01*
X108499198Y-26740753D01*
X108504182Y-26671061D01*
X108546054Y-26615128D01*
X108577031Y-26598213D01*
X108657086Y-26568354D01*
X108657093Y-26568350D01*
X108772187Y-26482190D01*
X108772190Y-26482187D01*
X108858350Y-26367093D01*
X108858354Y-26367086D01*
X108908596Y-26232379D01*
X108908598Y-26232372D01*
X108914999Y-26172844D01*
X108915000Y-26172827D01*
X108915000Y-25475000D01*
X107890278Y-25475000D01*
X107934333Y-25398694D01*
X107965000Y-25284244D01*
X107965000Y-25165756D01*
X107934333Y-25051306D01*
X107890278Y-24975000D01*
X108915000Y-24975000D01*
X108915000Y-24277172D01*
X108914999Y-24277155D01*
X108908598Y-24217627D01*
X108908596Y-24217620D01*
X108858354Y-24082913D01*
X108858350Y-24082906D01*
X108772190Y-23967812D01*
X108772187Y-23967809D01*
X108657093Y-23881649D01*
X108657086Y-23881645D01*
X108522379Y-23831403D01*
X108522372Y-23831401D01*
X108462844Y-23825000D01*
X107765000Y-23825000D01*
X107765000Y-24849722D01*
X107688694Y-24805667D01*
X107574244Y-24775000D01*
X107455756Y-24775000D01*
X107341306Y-24805667D01*
X107265000Y-24849722D01*
X107265000Y-23825000D01*
X106567155Y-23825000D01*
X106507627Y-23831401D01*
X106507620Y-23831403D01*
X106372913Y-23881645D01*
X106372906Y-23881649D01*
X106257812Y-23967809D01*
X106257809Y-23967812D01*
X106171649Y-24082906D01*
X106171645Y-24082913D01*
X106121403Y-24217620D01*
X106121401Y-24217627D01*
X106115000Y-24277155D01*
X106115000Y-24975000D01*
X107139722Y-24975000D01*
X107095667Y-25051306D01*
X107065000Y-25165756D01*
X107065000Y-25284244D01*
X107095667Y-25398694D01*
X107139722Y-25475000D01*
X106115000Y-25475000D01*
X106115000Y-26172844D01*
X106121401Y-26232372D01*
X106121403Y-26232379D01*
X106171645Y-26367086D01*
X106171649Y-26367093D01*
X106257809Y-26482187D01*
X106257812Y-26482190D01*
X106372906Y-26568350D01*
X106372913Y-26568354D01*
X106452968Y-26598213D01*
X106508902Y-26640084D01*
X106533319Y-26705549D01*
X106518467Y-26773822D01*
X106497317Y-26802075D01*
X106446756Y-26852636D01*
X106446752Y-26852641D01*
X106317187Y-27030974D01*
X106217104Y-27227393D01*
X106217103Y-27227396D01*
X106148985Y-27437047D01*
X106114500Y-27654778D01*
X85698934Y-27654778D01*
X85620957Y-27538078D01*
X85601131Y-27518252D01*
X85498173Y-27415294D01*
X84549984Y-26467105D01*
X81593663Y-23510782D01*
X81510854Y-23427973D01*
X86385750Y-23427973D01*
X86385750Y-23672026D01*
X86418950Y-23881645D01*
X86423929Y-23913076D01*
X86499346Y-24145185D01*
X86536253Y-24217620D01*
X86610146Y-24362642D01*
X86753589Y-24560076D01*
X86753593Y-24560081D01*
X86926168Y-24732656D01*
X86926173Y-24732660D01*
X87098386Y-24857779D01*
X87123611Y-24876106D01*
X87341065Y-24986904D01*
X87573174Y-25062321D01*
X87814223Y-25100500D01*
X87814224Y-25100500D01*
X88058276Y-25100500D01*
X88058277Y-25100500D01*
X88299326Y-25062321D01*
X88531435Y-24986904D01*
X88748889Y-24876106D01*
X88946333Y-24732655D01*
X89118905Y-24560083D01*
X89262356Y-24362639D01*
X89373154Y-24145185D01*
X89448571Y-23913076D01*
X89486750Y-23672027D01*
X89486750Y-23427973D01*
X89448571Y-23186924D01*
X89373154Y-22954815D01*
X89262356Y-22737361D01*
X89244029Y-22712136D01*
X89118910Y-22539923D01*
X89118906Y-22539918D01*
X88946331Y-22367343D01*
X88946326Y-22367339D01*
X88748892Y-22223896D01*
X88748891Y-22223895D01*
X88748889Y-22223894D01*
X88531435Y-22113096D01*
X88299326Y-22037679D01*
X88299324Y-22037678D01*
X88299322Y-22037678D01*
X88131019Y-22011021D01*
X88058277Y-21999500D01*
X87814223Y-21999500D01*
X87758343Y-22008350D01*
X87573177Y-22037678D01*
X87341062Y-22113097D01*
X87123607Y-22223896D01*
X86926173Y-22367339D01*
X86926168Y-22367343D01*
X86753593Y-22539918D01*
X86753589Y-22539923D01*
X86610146Y-22737357D01*
X86499347Y-22954812D01*
X86423928Y-23186927D01*
X86385750Y-23427973D01*
X81510854Y-23427973D01*
X81118176Y-23035295D01*
X80973793Y-22938822D01*
X80813378Y-22872377D01*
X80813368Y-22872374D01*
X80643073Y-22838500D01*
X80643071Y-22838500D01*
X80643070Y-22838500D01*
X77732671Y-22838500D01*
X77708480Y-22836117D01*
X77682425Y-22830934D01*
X77624943Y-22819500D01*
X77624941Y-22819500D01*
X77447559Y-22819500D01*
X77447556Y-22819500D01*
X77273591Y-22854103D01*
X77273582Y-22854106D01*
X77109709Y-22921983D01*
X77109696Y-22921990D01*
X76962215Y-23020535D01*
X76962211Y-23020538D01*
X76836788Y-23145961D01*
X76836785Y-23145965D01*
X76738240Y-23293446D01*
X76738233Y-23293459D01*
X76670356Y-23457332D01*
X76670353Y-23457341D01*
X76635750Y-23631304D01*
X61486750Y-23631304D01*
X61486750Y-23427973D01*
X61448571Y-23186924D01*
X61373154Y-22954815D01*
X61262356Y-22737361D01*
X61244029Y-22712136D01*
X61118910Y-22539923D01*
X61118906Y-22539918D01*
X60946331Y-22367343D01*
X60946326Y-22367339D01*
X60748892Y-22223896D01*
X60748891Y-22223895D01*
X60748889Y-22223894D01*
X60531435Y-22113096D01*
X60299326Y-22037679D01*
X60299324Y-22037678D01*
X60299322Y-22037678D01*
X60131019Y-22011021D01*
X60058277Y-21999500D01*
X59814223Y-21999500D01*
X59758343Y-22008350D01*
X59573177Y-22037678D01*
X59341062Y-22113097D01*
X59123607Y-22223896D01*
X58926173Y-22367339D01*
X58926168Y-22367343D01*
X58753593Y-22539918D01*
X58753589Y-22539923D01*
X58610146Y-22737357D01*
X58499347Y-22954812D01*
X58423928Y-23186927D01*
X58385750Y-23427973D01*
X20946750Y-23427973D01*
X20946750Y-19534427D01*
X20947066Y-19525581D01*
X20961380Y-19325443D01*
X20961381Y-19325440D01*
X20961380Y-19325436D01*
X20963896Y-19307938D01*
X21005607Y-19116198D01*
X21010583Y-19099248D01*
X21079161Y-18915385D01*
X21086509Y-18899298D01*
X21149071Y-18784723D01*
X21180541Y-18727089D01*
X21190095Y-18712221D01*
X21307702Y-18555119D01*
X21319270Y-18541769D01*
X21458019Y-18403020D01*
X21471373Y-18391448D01*
X21628471Y-18273845D01*
X21643339Y-18264291D01*
X21815548Y-18170258D01*
X21831635Y-18162911D01*
X22015498Y-18094333D01*
X22032449Y-18089356D01*
X22224188Y-18047646D01*
X22241686Y-18045130D01*
X22441832Y-18030816D01*
X22450678Y-18030500D01*
X22512142Y-18030500D01*
X109370363Y-18030500D01*
X109370370Y-18030502D01*
G37*
%TD.AperFunction*%
%TD*%
M02*
