%TF.GenerationSoftware,KiCad,Pcbnew,9.0.5*%
%TF.CreationDate,2025-12-07T13:39:54+02:00*%
%TF.ProjectId,scheme,73636865-6d65-42e6-9b69-6361645f7063,rev?*%
%TF.SameCoordinates,Original*%
%TF.FileFunction,Copper,L1,Top*%
%TF.FilePolarity,Positive*%
%FSLAX46Y46*%
G04 Gerber Fmt 4.6, Leading zero omitted, Abs format (unit mm)*
G04 Created by KiCad (PCBNEW 9.0.5) date 2025-12-07 13:39:54*
%MOMM*%
%LPD*%
G01*
G04 APERTURE LIST*
G04 Aperture macros list*
%AMRoundRect*
0 Rectangle with rounded corners*
0 $1 Rounding radius*
0 $2 $3 $4 $5 $6 $7 $8 $9 X,Y pos of 4 corners*
0 Add a 4 corners polygon primitive as box body*
4,1,4,$2,$3,$4,$5,$6,$7,$8,$9,$2,$3,0*
0 Add four circle primitives for the rounded corners*
1,1,$1+$1,$2,$3*
1,1,$1+$1,$4,$5*
1,1,$1+$1,$6,$7*
1,1,$1+$1,$8,$9*
0 Add four rect primitives between the rounded corners*
20,1,$1+$1,$2,$3,$4,$5,0*
20,1,$1+$1,$4,$5,$6,$7,0*
20,1,$1+$1,$6,$7,$8,$9,0*
20,1,$1+$1,$8,$9,$2,$3,0*%
G04 Aperture macros list end*
%TA.AperFunction,SMDPad,CuDef*%
%ADD10RoundRect,0.250000X-1.000000X-0.650000X1.000000X-0.650000X1.000000X0.650000X-1.000000X0.650000X0*%
%TD*%
%TA.AperFunction,SMDPad,CuDef*%
%ADD11RoundRect,0.250000X-0.475000X0.250000X-0.475000X-0.250000X0.475000X-0.250000X0.475000X0.250000X0*%
%TD*%
%TA.AperFunction,SMDPad,CuDef*%
%ADD12RoundRect,0.250000X-0.262500X-0.450000X0.262500X-0.450000X0.262500X0.450000X-0.262500X0.450000X0*%
%TD*%
%TA.AperFunction,SMDPad,CuDef*%
%ADD13RoundRect,0.250000X-0.450000X0.262500X-0.450000X-0.262500X0.450000X-0.262500X0.450000X0.262500X0*%
%TD*%
%TA.AperFunction,SMDPad,CuDef*%
%ADD14RoundRect,0.250000X0.250000X0.475000X-0.250000X0.475000X-0.250000X-0.475000X0.250000X-0.475000X0*%
%TD*%
%TA.AperFunction,SMDPad,CuDef*%
%ADD15RoundRect,0.250000X0.262500X0.450000X-0.262500X0.450000X-0.262500X-0.450000X0.262500X-0.450000X0*%
%TD*%
%TA.AperFunction,SMDPad,CuDef*%
%ADD16RoundRect,0.250000X-0.550000X0.250000X-0.550000X-0.250000X0.550000X-0.250000X0.550000X0.250000X0*%
%TD*%
%TA.AperFunction,SMDPad,CuDef*%
%ADD17RoundRect,0.250000X-0.250000X-0.475000X0.250000X-0.475000X0.250000X0.475000X-0.250000X0.475000X0*%
%TD*%
%TA.AperFunction,SMDPad,CuDef*%
%ADD18RoundRect,0.250000X0.450000X-0.262500X0.450000X0.262500X-0.450000X0.262500X-0.450000X-0.262500X0*%
%TD*%
%TA.AperFunction,ComponentPad*%
%ADD19RoundRect,0.249200X-0.450800X0.600800X-0.450800X-0.600800X0.450800X-0.600800X0.450800X0.600800X0*%
%TD*%
%TA.AperFunction,ComponentPad*%
%ADD20O,1.400000X1.700000*%
%TD*%
%TA.AperFunction,SMDPad,CuDef*%
%ADD21RoundRect,0.250000X0.475000X-0.250000X0.475000X0.250000X-0.475000X0.250000X-0.475000X-0.250000X0*%
%TD*%
%TA.AperFunction,SMDPad,CuDef*%
%ADD22RoundRect,0.250000X0.550000X-0.550000X0.550000X0.550000X-0.550000X0.550000X-0.550000X-0.550000X0*%
%TD*%
%TA.AperFunction,SMDPad,CuDef*%
%ADD23RoundRect,0.250000X0.312500X0.625000X-0.312500X0.625000X-0.312500X-0.625000X0.312500X-0.625000X0*%
%TD*%
%TA.AperFunction,ComponentPad*%
%ADD24R,3.000000X3.000000*%
%TD*%
%TA.AperFunction,ComponentPad*%
%ADD25C,3.000000*%
%TD*%
%TA.AperFunction,ComponentPad*%
%ADD26R,1.800000X1.800000*%
%TD*%
%TA.AperFunction,ComponentPad*%
%ADD27C,1.800000*%
%TD*%
%TA.AperFunction,ComponentPad*%
%ADD28R,2.000000X1.905000*%
%TD*%
%TA.AperFunction,ComponentPad*%
%ADD29O,2.000000X1.905000*%
%TD*%
%TA.AperFunction,ViaPad*%
%ADD30C,0.800000*%
%TD*%
%TA.AperFunction,Conductor*%
%ADD31C,1.016000*%
%TD*%
%TA.AperFunction,Conductor*%
%ADD32C,0.762000*%
%TD*%
%TA.AperFunction,Conductor*%
%ADD33C,0.508000*%
%TD*%
G04 APERTURE END LIST*
D10*
%TO.P,D6,1,A1*%
%TO.N,Net-(D6-A1)*%
X24936250Y-22500000D03*
%TO.P,D6,2,A2*%
%TO.N,GND*%
X28936250Y-22500000D03*
%TD*%
D11*
%TO.P,C5,1*%
%TO.N,+5V*%
X51236250Y-45100000D03*
%TO.P,C5,2*%
%TO.N,GND*%
X51236250Y-47000000D03*
%TD*%
D12*
%TO.P,R7,1*%
%TO.N,Net-(R7-Pad1)*%
X101063750Y-34600000D03*
%TO.P,R7,2*%
%TO.N,Net-(D2-A)*%
X102888750Y-34600000D03*
%TD*%
%TO.P,R9,1*%
%TO.N,+5V*%
X101123750Y-42800000D03*
%TO.P,R9,2*%
%TO.N,Net-(D4-A)*%
X102948750Y-42800000D03*
%TD*%
D13*
%TO.P,R10,1*%
%TO.N,+5V*%
X29236250Y-47887500D03*
%TO.P,R10,2*%
%TO.N,Net-(D5-A)*%
X29236250Y-49712500D03*
%TD*%
D11*
%TO.P,C4,1*%
%TO.N,+5V*%
X23986250Y-47850000D03*
%TO.P,C4,2*%
%TO.N,GND*%
X23986250Y-49750000D03*
%TD*%
D14*
%TO.P,C2,1*%
%TO.N,VGND*%
X60686250Y-38320000D03*
%TO.P,C2,2*%
%TO.N,GND*%
X58786250Y-38320000D03*
%TD*%
D15*
%TO.P,R5,1*%
%TO.N,/(1.7V)*%
X75248750Y-26520000D03*
%TO.P,R5,2*%
%TO.N,(2.5V)*%
X73423750Y-26520000D03*
%TD*%
D16*
%TO.P,SW1,1,C*%
%TO.N,unconnected-(SW1-C-Pad1)*%
X30436250Y-32850000D03*
%TO.P,SW1,2,B*%
%TO.N,Net-(BT1-+)*%
X32736250Y-34600000D03*
%TO.P,SW1,3,A*%
%TO.N,Net-(SW1-A)*%
X30436250Y-36350000D03*
%TD*%
D17*
%TO.P,C3,1*%
%TO.N,Net-(SW1-A)*%
X28550000Y-42600000D03*
%TO.P,C3,2*%
%TO.N,GND*%
X30450000Y-42600000D03*
%TD*%
D15*
%TO.P,R1,1*%
%TO.N,VGND*%
X60648750Y-34920000D03*
%TO.P,R1,2*%
%TO.N,GND*%
X58823750Y-34920000D03*
%TD*%
D18*
%TO.P,R4,1*%
%TO.N,+5V*%
X81848750Y-43512500D03*
%TO.P,R4,2*%
%TO.N,(2.5V)*%
X81848750Y-41687500D03*
%TD*%
D19*
%TO.P,D1,1,K*%
%TO.N,GND*%
X39436250Y-32060000D03*
D20*
%TO.P,D1,2,A*%
%TO.N,Net-(D1-A)*%
X39436250Y-37140000D03*
%TD*%
D21*
%TO.P,C1,1*%
%TO.N,Net-(D1-A)*%
X45636250Y-35450000D03*
%TO.P,C1,2*%
%TO.N,TIA_OUT*%
X45636250Y-33550000D03*
%TD*%
D18*
%TO.P,R2,1*%
%TO.N,Net-(D1-A)*%
X49036250Y-35412500D03*
%TO.P,R2,2*%
%TO.N,TIA_OUT*%
X49036250Y-33587500D03*
%TD*%
D22*
%TO.P,U2,1*%
%TO.N,TIA_OUT*%
X65436250Y-38220000D03*
%TO.P,U2,2,-*%
%TO.N,Net-(D1-A)*%
X67976250Y-38220000D03*
%TO.P,U2,3,+*%
%TO.N,VGND*%
X70516250Y-38220000D03*
%TO.P,U2,4,V+*%
%TO.N,+5V*%
X73056250Y-38220000D03*
%TO.P,U2,5,+*%
%TO.N,TIA_OUT*%
X75596250Y-38220000D03*
%TO.P,U2,6,-*%
%TO.N,(2.5V)*%
X78136250Y-38220000D03*
%TO.P,U2,7*%
%TO.N,Net-(R7-Pad1)*%
X80676250Y-38220000D03*
%TO.P,U2,8*%
%TO.N,Net-(R8-Pad1)*%
X80676250Y-30600000D03*
%TO.P,U2,9,-*%
%TO.N,/(1.7V)*%
X78136250Y-30600000D03*
%TO.P,U2,10,+*%
%TO.N,TIA_OUT*%
X75596250Y-30600000D03*
%TO.P,U2,11,V-*%
%TO.N,GND*%
X73056250Y-30600000D03*
%TO.P,U2,12,+*%
%TO.N,(2.5V)*%
X70516250Y-30600000D03*
%TO.P,U2,13,-*%
%TO.N,Net-(U2D--)*%
X67976250Y-30600000D03*
%TO.P,U2,14*%
X65436250Y-30600000D03*
%TD*%
D18*
%TO.P,R3,1*%
%TO.N,+5V*%
X64536250Y-43232500D03*
%TO.P,R3,2*%
%TO.N,VGND*%
X64536250Y-41407500D03*
%TD*%
D12*
%TO.P,R8,1*%
%TO.N,Net-(R8-Pad1)*%
X101123750Y-26400000D03*
%TO.P,R8,2*%
%TO.N,Net-(D3-A)*%
X102948750Y-26400000D03*
%TD*%
D23*
%TO.P,F1,1*%
%TO.N,Net-(SW1-A)*%
X26898750Y-26600000D03*
%TO.P,F1,2*%
%TO.N,Net-(D6-A1)*%
X23973750Y-26600000D03*
%TD*%
D15*
%TO.P,R6,1*%
%TO.N,GND*%
X81248750Y-26520000D03*
%TO.P,R6,2*%
%TO.N,/(1.7V)*%
X79423750Y-26520000D03*
%TD*%
D24*
%TO.P,BT1,1,+*%
%TO.N,Net-(BT1-+)*%
X49036250Y-41000000D03*
D25*
%TO.P,BT1,2,-*%
%TO.N,GND*%
X49036250Y-28300000D03*
%TD*%
D26*
%TO.P,D4,1,K*%
%TO.N,GND*%
X107515000Y-41225000D03*
D27*
%TO.P,D4,2,A*%
%TO.N,Net-(D4-A)*%
X107515000Y-43765000D03*
%TD*%
D26*
%TO.P,D2,1,K*%
%TO.N,GND*%
X107515000Y-33225000D03*
D27*
%TO.P,D2,2,A*%
%TO.N,Net-(D2-A)*%
X107515000Y-35765000D03*
%TD*%
D28*
%TO.P,U1,1,VI*%
%TO.N,Net-(D6-A1)*%
X23986250Y-32060000D03*
D29*
%TO.P,U1,2,GND*%
%TO.N,GND*%
X23986250Y-34600000D03*
%TO.P,U1,3,VO*%
%TO.N,+5V*%
X23986250Y-37140000D03*
%TD*%
D26*
%TO.P,D3,1,K*%
%TO.N,GND*%
X107515000Y-25225000D03*
D27*
%TO.P,D3,2,A*%
%TO.N,Net-(D3-A)*%
X107515000Y-27765000D03*
%TD*%
D30*
%TO.N,Net-(D1-A)*%
X55836250Y-40000000D03*
X65436250Y-40000000D03*
%TO.N,(2.5V)*%
X77536250Y-23720000D03*
X84936250Y-39720000D03*
%TO.N,Net-(D5-A)*%
X33000000Y-49750000D03*
%TD*%
D31*
%TO.N,Net-(BT1-+)*%
X32736250Y-37400000D02*
X32736250Y-34600000D01*
X49036250Y-41000000D02*
X36336250Y-41000000D01*
X36336250Y-41000000D02*
X32736250Y-37400000D01*
%TO.N,Net-(D1-A)*%
X49036250Y-35412500D02*
X51248750Y-35412500D01*
X51248750Y-35412500D02*
X55836250Y-40000000D01*
X66196250Y-40000000D02*
X67976250Y-38220000D01*
X65436250Y-40000000D02*
X66196250Y-40000000D01*
X45636250Y-35450000D02*
X48998750Y-35450000D01*
X43946250Y-37140000D02*
X45636250Y-35450000D01*
X48998750Y-35450000D02*
X49036250Y-35412500D01*
X39436250Y-37140000D02*
X43946250Y-37140000D01*
%TO.N,TIA_OUT*%
X50023750Y-32600000D02*
X61236250Y-32600000D01*
X72107250Y-34729000D02*
X75596250Y-31240000D01*
X68927250Y-34729000D02*
X72105250Y-34729000D01*
X75596250Y-31240000D02*
X75596250Y-30600000D01*
X49036250Y-33587500D02*
X50023750Y-32600000D01*
X48998750Y-33550000D02*
X49036250Y-33587500D01*
X63436250Y-37400000D02*
X64256250Y-38220000D01*
X61236250Y-32600000D02*
X63436250Y-34800000D01*
X63436250Y-34800000D02*
X63436250Y-37400000D01*
X65436250Y-38220000D02*
X68927250Y-34729000D01*
X64256250Y-38220000D02*
X65436250Y-38220000D01*
X45636250Y-33550000D02*
X48998750Y-33550000D01*
X72105250Y-34729000D02*
X75596250Y-38220000D01*
D32*
%TO.N,Net-(D2-A)*%
X102888750Y-34600000D02*
X104088750Y-35800000D01*
X104088750Y-35800000D02*
X107436250Y-35800000D01*
D33*
%TO.N,Net-(D3-A)*%
X107515000Y-27765000D02*
X104313750Y-27765000D01*
X104313750Y-27765000D02*
X102948750Y-26400000D01*
D31*
%TO.N,Net-(D4-A)*%
X103913750Y-43765000D02*
X107515000Y-43765000D01*
X102948750Y-42800000D02*
X103913750Y-43765000D01*
%TO.N,VGND*%
X64536250Y-41407500D02*
X63773750Y-41407500D01*
X63773750Y-41407500D02*
X60686250Y-38320000D01*
X60686250Y-34957500D02*
X60648750Y-34920000D01*
X67328750Y-41407500D02*
X64536250Y-41407500D01*
X60686250Y-38320000D02*
X60686250Y-34957500D01*
X70516250Y-38220000D02*
X67328750Y-41407500D01*
%TO.N,Net-(SW1-A)*%
X30436250Y-36350000D02*
X28550000Y-38236250D01*
X28550000Y-38236250D02*
X28550000Y-42600000D01*
X28436250Y-34350000D02*
X28436250Y-28137500D01*
X28436250Y-28137500D02*
X26898750Y-26600000D01*
X30436250Y-36350000D02*
X28436250Y-34350000D01*
%TO.N,Net-(D6-A1)*%
X23973750Y-26600000D02*
X23973750Y-32047500D01*
X23973750Y-32047500D02*
X23986250Y-32060000D01*
X24936250Y-22500000D02*
X24936250Y-25637500D01*
X24936250Y-25637500D02*
X23973750Y-26600000D01*
D32*
%TO.N,(2.5V)*%
X82968750Y-41687500D02*
X84936250Y-39720000D01*
X73423750Y-27692500D02*
X70516250Y-30600000D01*
X77536250Y-23720000D02*
X75523750Y-23720000D01*
X81848750Y-41687500D02*
X82968750Y-41687500D01*
X78136250Y-39500000D02*
X80323750Y-41687500D01*
X73423750Y-26520000D02*
X73423750Y-27692500D01*
X75523750Y-23720000D02*
X73423750Y-25820000D01*
X78136250Y-38220000D02*
X78136250Y-39500000D01*
X80323750Y-41687500D02*
X81848750Y-41687500D01*
X73423750Y-25820000D02*
X73423750Y-26520000D01*
D31*
%TO.N,+5V*%
X66176250Y-45100000D02*
X68676250Y-42600000D01*
X29236250Y-47887500D02*
X29093750Y-47887500D01*
X81848750Y-43512500D02*
X78548750Y-43512500D01*
X51236250Y-45100000D02*
X46556250Y-45100000D01*
X29093750Y-47887500D02*
X26306250Y-45100000D01*
X68676250Y-42600000D02*
X69656250Y-41620000D01*
X69656250Y-41620000D02*
X73056250Y-38220000D01*
X56436250Y-45100000D02*
X58303750Y-43232500D01*
X23986250Y-37140000D02*
X23986250Y-42780000D01*
X76616250Y-41620000D02*
X69656250Y-41620000D01*
X56436250Y-45100000D02*
X66176250Y-45100000D01*
X23986250Y-42780000D02*
X23986250Y-47850000D01*
X76636250Y-41600000D02*
X76616250Y-41620000D01*
X100411250Y-43512500D02*
X101123750Y-42800000D01*
X23986250Y-42780000D02*
X26306250Y-45100000D01*
X51236250Y-45100000D02*
X56436250Y-45100000D01*
X58303750Y-43232500D02*
X64536250Y-43232500D01*
X34436250Y-45100000D02*
X46556250Y-45100000D01*
X26306250Y-45100000D02*
X34436250Y-45100000D01*
X78548750Y-43512500D02*
X76636250Y-41600000D01*
X81848750Y-43512500D02*
X100411250Y-43512500D01*
D33*
%TO.N,/(1.7V)*%
X75248750Y-26520000D02*
X75248750Y-27712500D01*
X75248750Y-26520000D02*
X79423750Y-26520000D01*
X75248750Y-27712500D02*
X78136250Y-30600000D01*
D31*
%TO.N,Net-(U2D--)*%
X65436250Y-30600000D02*
X67976250Y-30600000D01*
%TO.N,Net-(D5-A)*%
X29236250Y-49712500D02*
X32962500Y-49712500D01*
X32962500Y-49712500D02*
X33000000Y-49750000D01*
D32*
%TO.N,Net-(R7-Pad1)*%
X97443750Y-38220000D02*
X101063750Y-34600000D01*
X80676250Y-38220000D02*
X97443750Y-38220000D01*
D33*
%TO.N,Net-(R8-Pad1)*%
X96923750Y-30600000D02*
X101123750Y-26400000D01*
X80676250Y-30600000D02*
X96923750Y-30600000D01*
%TD*%
%TA.AperFunction,Conductor*%
%TO.N,GND*%
G36*
X109361746Y-18030501D02*
G01*
X109370366Y-18030500D01*
X109370370Y-18030502D01*
X109431840Y-18030500D01*
X109440681Y-18030815D01*
X109640818Y-18045125D01*
X109658327Y-18047641D01*
X109850063Y-18089347D01*
X109867037Y-18094331D01*
X109958959Y-18128613D01*
X110050887Y-18162898D01*
X110066967Y-18170241D01*
X110239186Y-18264276D01*
X110254070Y-18273841D01*
X110411149Y-18391426D01*
X110424520Y-18403012D01*
X110563260Y-18541749D01*
X110574846Y-18555119D01*
X110692436Y-18712197D01*
X110702002Y-18727081D01*
X110796041Y-18899297D01*
X110803387Y-18915383D01*
X110871958Y-19099223D01*
X110876942Y-19116198D01*
X110918651Y-19307928D01*
X110921169Y-19325440D01*
X110935434Y-19524880D01*
X110935750Y-19533727D01*
X110935750Y-49756584D01*
X110935749Y-49756588D01*
X110935749Y-49786593D01*
X110935749Y-49818044D01*
X110935749Y-49818046D01*
X110935433Y-49826896D01*
X110921102Y-50027179D01*
X110918580Y-50044704D01*
X110876819Y-50236545D01*
X110871828Y-50253532D01*
X110803167Y-50437480D01*
X110795808Y-50453582D01*
X110701652Y-50625875D01*
X110692074Y-50640766D01*
X110574337Y-50797897D01*
X110562736Y-50811271D01*
X110423829Y-50950026D01*
X110410441Y-50961613D01*
X110253183Y-51079173D01*
X110238283Y-51088734D01*
X110065886Y-51182702D01*
X110049774Y-51190044D01*
X109865748Y-51258501D01*
X109848757Y-51263473D01*
X109656866Y-51305024D01*
X109639338Y-51307526D01*
X109438716Y-51321660D01*
X109429865Y-51321967D01*
X109363598Y-51321894D01*
X109363565Y-51321895D01*
X23265264Y-51228110D01*
X22510508Y-51227288D01*
X22510506Y-51227288D01*
X22510262Y-51227287D01*
X22449038Y-51227220D01*
X22440201Y-51226895D01*
X22240212Y-51212384D01*
X22222714Y-51209850D01*
X22031172Y-51167994D01*
X22014214Y-51162999D01*
X21830552Y-51094322D01*
X21814474Y-51086964D01*
X21800231Y-51079173D01*
X21642451Y-50992866D01*
X21627600Y-50983308D01*
X21470687Y-50865687D01*
X21457360Y-50854125D01*
X21318770Y-50715383D01*
X21307208Y-50702025D01*
X21293995Y-50684358D01*
X21189775Y-50545007D01*
X21180224Y-50530132D01*
X21086318Y-50358011D01*
X21078979Y-50341928D01*
X21010501Y-50158193D01*
X21005523Y-50141228D01*
X21002604Y-50127799D01*
X20985689Y-50049986D01*
X22761251Y-50049986D01*
X22771744Y-50152697D01*
X22826891Y-50319119D01*
X22826893Y-50319124D01*
X22918934Y-50468345D01*
X23042904Y-50592315D01*
X23192125Y-50684356D01*
X23192130Y-50684358D01*
X23358552Y-50739505D01*
X23358559Y-50739506D01*
X23461269Y-50749999D01*
X23736249Y-50749999D01*
X24236250Y-50749999D01*
X24511222Y-50749999D01*
X24511236Y-50749998D01*
X24613947Y-50739505D01*
X24780369Y-50684358D01*
X24780374Y-50684356D01*
X24929595Y-50592315D01*
X25053565Y-50468345D01*
X25145606Y-50319124D01*
X25145608Y-50319119D01*
X25200755Y-50152697D01*
X25200756Y-50152690D01*
X25211249Y-50049986D01*
X25211250Y-50049973D01*
X25211250Y-50000000D01*
X24236250Y-50000000D01*
X24236250Y-50749999D01*
X23736249Y-50749999D01*
X23736250Y-50749998D01*
X23736250Y-50000000D01*
X22761251Y-50000000D01*
X22761251Y-50049986D01*
X20985689Y-50049986D01*
X20963873Y-49949623D01*
X20961361Y-49932137D01*
X20955443Y-49849331D01*
X20947064Y-49732083D01*
X20946750Y-49723247D01*
X20946751Y-49661828D01*
X20946750Y-49661824D01*
X20946750Y-31059635D01*
X22485750Y-31059635D01*
X22485750Y-33060370D01*
X22485751Y-33060376D01*
X22492158Y-33119983D01*
X22542452Y-33254828D01*
X22542456Y-33254835D01*
X22628702Y-33370044D01*
X22628705Y-33370047D01*
X22743914Y-33456293D01*
X22743917Y-33456295D01*
X22743918Y-33456295D01*
X22743919Y-33456296D01*
X22772275Y-33466872D01*
X22828208Y-33508742D01*
X22852626Y-33574206D01*
X22837775Y-33642479D01*
X22829260Y-33655939D01*
X22696463Y-33838719D01*
X22592667Y-34042429D01*
X22522015Y-34259871D01*
X22507741Y-34350000D01*
X23495502Y-34350000D01*
X23473732Y-34387708D01*
X23436250Y-34527591D01*
X23436250Y-34672409D01*
X23473732Y-34812292D01*
X23495502Y-34850000D01*
X22507741Y-34850000D01*
X22522015Y-34940128D01*
X22592667Y-35157570D01*
X22696461Y-35361276D01*
X22830847Y-35546242D01*
X22992507Y-35707902D01*
X22992513Y-35707907D01*
X23077113Y-35769372D01*
X23119779Y-35824701D01*
X23125758Y-35894315D01*
X23093153Y-35956110D01*
X23077114Y-35970007D01*
X22992190Y-36031709D01*
X22992181Y-36031716D01*
X22830466Y-36193431D01*
X22830466Y-36193432D01*
X22830464Y-36193434D01*
X22780416Y-36262319D01*
X22696033Y-36378461D01*
X22592200Y-36582244D01*
X22521528Y-36799750D01*
X22521528Y-36799753D01*
X22494302Y-36971653D01*
X22485750Y-37025646D01*
X22485750Y-37254354D01*
X22501427Y-37353333D01*
X22521528Y-37480246D01*
X22521528Y-37480249D01*
X22592200Y-37697755D01*
X22623171Y-37758539D01*
X22696033Y-37901538D01*
X22830464Y-38086566D01*
X22830466Y-38086568D01*
X22941431Y-38197533D01*
X22974916Y-38258856D01*
X22977750Y-38285214D01*
X22977750Y-47020770D01*
X22958065Y-47087809D01*
X22941431Y-47108451D01*
X22918539Y-47131342D01*
X22826437Y-47280663D01*
X22826435Y-47280668D01*
X22818155Y-47305657D01*
X22771251Y-47447203D01*
X22771251Y-47447204D01*
X22771250Y-47447204D01*
X22760750Y-47549983D01*
X22760750Y-48150001D01*
X22760751Y-48150019D01*
X22771250Y-48252796D01*
X22771251Y-48252799D01*
X22787819Y-48302797D01*
X22826436Y-48419334D01*
X22918538Y-48568656D01*
X23042594Y-48692712D01*
X23045878Y-48694737D01*
X23045903Y-48694753D01*
X23047695Y-48696746D01*
X23048261Y-48697193D01*
X23048184Y-48697289D01*
X23092629Y-48746699D01*
X23103853Y-48815661D01*
X23076011Y-48879744D01*
X23045915Y-48905826D01*
X23042910Y-48907679D01*
X23042905Y-48907683D01*
X22918934Y-49031654D01*
X22826893Y-49180875D01*
X22826891Y-49180880D01*
X22771744Y-49347302D01*
X22771743Y-49347309D01*
X22761250Y-49450013D01*
X22761250Y-49500000D01*
X25211249Y-49500000D01*
X25211249Y-49450028D01*
X25211248Y-49450013D01*
X25200755Y-49347302D01*
X25145608Y-49180880D01*
X25145606Y-49180875D01*
X25053565Y-49031654D01*
X24929594Y-48907683D01*
X24929591Y-48907681D01*
X24926589Y-48905829D01*
X24924963Y-48904021D01*
X24923927Y-48903202D01*
X24924067Y-48903024D01*
X24879867Y-48853880D01*
X24868647Y-48784917D01*
X24896493Y-48720836D01*
X24926594Y-48694754D01*
X24929906Y-48692712D01*
X25053962Y-48568656D01*
X25146064Y-48419334D01*
X25201249Y-48252797D01*
X25211750Y-48150009D01*
X25211749Y-47549992D01*
X25203802Y-47472200D01*
X25201249Y-47447203D01*
X25201248Y-47447200D01*
X25186499Y-47402690D01*
X25146064Y-47280666D01*
X25053962Y-47131344D01*
X25031069Y-47108451D01*
X24997584Y-47047128D01*
X24994750Y-47020770D01*
X24994750Y-45514096D01*
X25014435Y-45447057D01*
X25067239Y-45401302D01*
X25136397Y-45391358D01*
X25199953Y-45420383D01*
X25206431Y-45426415D01*
X28010897Y-48230881D01*
X28044382Y-48292204D01*
X28045545Y-48299504D01*
X28046249Y-48302793D01*
X28101435Y-48469331D01*
X28101437Y-48469336D01*
X28193539Y-48618657D01*
X28287201Y-48712319D01*
X28320686Y-48773642D01*
X28315702Y-48843334D01*
X28287201Y-48887681D01*
X28193539Y-48981342D01*
X28101437Y-49130663D01*
X28101436Y-49130666D01*
X28046251Y-49297203D01*
X28046251Y-49297204D01*
X28046250Y-49297204D01*
X28035750Y-49399983D01*
X28035750Y-50025001D01*
X28035751Y-50025019D01*
X28046250Y-50127796D01*
X28046251Y-50127799D01*
X28101435Y-50294331D01*
X28101437Y-50294336D01*
X28130792Y-50341928D01*
X28193538Y-50443656D01*
X28317594Y-50567712D01*
X28466916Y-50659814D01*
X28633453Y-50714999D01*
X28736241Y-50725500D01*
X29736258Y-50725499D01*
X29774017Y-50721641D01*
X29786617Y-50721000D01*
X32699935Y-50721000D01*
X32724125Y-50723382D01*
X32763625Y-50731239D01*
X32900668Y-50758500D01*
X32900671Y-50758500D01*
X33099331Y-50758500D01*
X33099332Y-50758499D01*
X33294168Y-50719744D01*
X33477704Y-50643721D01*
X33642881Y-50533353D01*
X33783353Y-50392881D01*
X33893721Y-50227704D01*
X33969744Y-50044168D01*
X34008500Y-49849329D01*
X34008500Y-49650671D01*
X34008500Y-49650668D01*
X34008499Y-49650666D01*
X33969744Y-49455832D01*
X33893721Y-49272296D01*
X33893720Y-49272295D01*
X33893717Y-49272289D01*
X33783353Y-49107119D01*
X33783350Y-49107115D01*
X33605384Y-48929149D01*
X33605380Y-48929146D01*
X33440210Y-48818782D01*
X33440201Y-48818777D01*
X33256669Y-48742756D01*
X33256661Y-48742754D01*
X33061833Y-48704000D01*
X33061829Y-48704000D01*
X30448495Y-48704000D01*
X30381456Y-48684315D01*
X30335701Y-48631511D01*
X30325757Y-48562353D01*
X30342957Y-48514903D01*
X30371059Y-48469342D01*
X30371058Y-48469342D01*
X30371064Y-48469334D01*
X30426249Y-48302797D01*
X30436750Y-48200009D01*
X30436749Y-47574992D01*
X30426249Y-47472203D01*
X30371064Y-47305666D01*
X30371060Y-47305660D01*
X30371059Y-47305657D01*
X30367561Y-47299986D01*
X50011251Y-47299986D01*
X50021744Y-47402697D01*
X50076891Y-47569119D01*
X50076893Y-47569124D01*
X50168934Y-47718345D01*
X50292904Y-47842315D01*
X50442125Y-47934356D01*
X50442130Y-47934358D01*
X50608552Y-47989505D01*
X50608559Y-47989506D01*
X50711269Y-47999999D01*
X50986249Y-47999999D01*
X51486250Y-47999999D01*
X51761222Y-47999999D01*
X51761236Y-47999998D01*
X51863947Y-47989505D01*
X52030369Y-47934358D01*
X52030374Y-47934356D01*
X52179595Y-47842315D01*
X52303565Y-47718345D01*
X52395606Y-47569124D01*
X52395608Y-47569119D01*
X52450755Y-47402697D01*
X52450756Y-47402690D01*
X52461249Y-47299986D01*
X52461250Y-47299973D01*
X52461250Y-47250000D01*
X51486250Y-47250000D01*
X51486250Y-47999999D01*
X50986249Y-47999999D01*
X50986250Y-47999998D01*
X50986250Y-47250000D01*
X50011251Y-47250000D01*
X50011251Y-47299986D01*
X30367561Y-47299986D01*
X30345201Y-47263735D01*
X30345200Y-47263734D01*
X30344328Y-47262321D01*
X30278962Y-47156344D01*
X30154906Y-47032288D01*
X30005584Y-46940186D01*
X29839047Y-46885001D01*
X29839045Y-46885000D01*
X29736266Y-46874500D01*
X29736259Y-46874500D01*
X29558346Y-46874500D01*
X29491307Y-46854815D01*
X29470665Y-46838181D01*
X28952665Y-46320181D01*
X28919180Y-46258858D01*
X28924164Y-46189166D01*
X28966036Y-46133233D01*
X29031500Y-46108816D01*
X29040346Y-46108500D01*
X50053562Y-46108500D01*
X50120601Y-46128185D01*
X50166356Y-46180989D01*
X50176300Y-46250147D01*
X50159101Y-46297597D01*
X50076893Y-46430875D01*
X50076891Y-46430880D01*
X50021744Y-46597302D01*
X50021743Y-46597309D01*
X50011250Y-46700013D01*
X50011250Y-46750000D01*
X52461249Y-46750000D01*
X52461249Y-46700028D01*
X52461248Y-46700013D01*
X52450755Y-46597302D01*
X52395608Y-46430880D01*
X52395606Y-46430875D01*
X52313399Y-46297597D01*
X52294959Y-46230204D01*
X52315882Y-46163541D01*
X52369523Y-46118771D01*
X52418938Y-46108500D01*
X66275580Y-46108500D01*
X66275581Y-46108499D01*
X66470419Y-46069744D01*
X66653954Y-45993721D01*
X66819131Y-45883353D01*
X66959603Y-45742881D01*
X67074511Y-45627973D01*
X71635750Y-45627973D01*
X71635750Y-45872026D01*
X71667065Y-46069743D01*
X71673929Y-46113076D01*
X71718466Y-46250147D01*
X71749347Y-46345187D01*
X71860146Y-46562642D01*
X72003589Y-46760076D01*
X72003593Y-46760081D01*
X72176168Y-46932656D01*
X72176173Y-46932660D01*
X72313302Y-47032289D01*
X72373611Y-47076106D01*
X72591065Y-47186904D01*
X72823174Y-47262321D01*
X73064223Y-47300500D01*
X73064224Y-47300500D01*
X73308276Y-47300500D01*
X73308277Y-47300500D01*
X73549326Y-47262321D01*
X73781435Y-47186904D01*
X73998889Y-47076106D01*
X74196333Y-46932655D01*
X74368905Y-46760083D01*
X74512356Y-46562639D01*
X74623154Y-46345185D01*
X74698571Y-46113076D01*
X74736750Y-45872027D01*
X74736750Y-45627973D01*
X74698571Y-45386924D01*
X74623154Y-45154815D01*
X74512356Y-44937361D01*
X74436710Y-44833243D01*
X74368910Y-44739923D01*
X74368906Y-44739918D01*
X74196331Y-44567343D01*
X74196326Y-44567339D01*
X73998892Y-44423896D01*
X73998891Y-44423895D01*
X73998889Y-44423894D01*
X73781435Y-44313096D01*
X73549326Y-44237679D01*
X73549324Y-44237678D01*
X73549322Y-44237678D01*
X73381019Y-44211021D01*
X73308277Y-44199500D01*
X73064223Y-44199500D01*
X73008343Y-44208350D01*
X72823177Y-44237678D01*
X72591062Y-44313097D01*
X72373607Y-44423896D01*
X72176173Y-44567339D01*
X72176168Y-44567343D01*
X72003593Y-44739918D01*
X72003589Y-44739923D01*
X71860146Y-44937357D01*
X71749347Y-45154812D01*
X71673928Y-45386927D01*
X71635750Y-45627973D01*
X67074511Y-45627973D01*
X69459603Y-43242881D01*
X70037665Y-42664819D01*
X70098988Y-42631334D01*
X70125346Y-42628500D01*
X76187154Y-42628500D01*
X76254193Y-42648185D01*
X76274835Y-42664819D01*
X77765397Y-44155381D01*
X77847694Y-44237678D01*
X77905870Y-44295854D01*
X78071039Y-44406217D01*
X78071045Y-44406220D01*
X78071046Y-44406221D01*
X78254581Y-44482244D01*
X78449416Y-44520999D01*
X78449420Y-44521000D01*
X78449421Y-44521000D01*
X81298375Y-44521000D01*
X81310976Y-44521641D01*
X81348741Y-44525500D01*
X82348758Y-44525499D01*
X82386517Y-44521641D01*
X82399117Y-44521000D01*
X100510580Y-44521000D01*
X100510581Y-44520999D01*
X100705419Y-44482244D01*
X100888954Y-44406221D01*
X101054131Y-44295853D01*
X101194603Y-44155381D01*
X101313166Y-44036818D01*
X101374489Y-44003333D01*
X101400847Y-44000499D01*
X101436252Y-44000499D01*
X101436258Y-44000499D01*
X101539047Y-43989999D01*
X101705584Y-43934814D01*
X101854906Y-43842712D01*
X101948569Y-43749049D01*
X102009892Y-43715564D01*
X102079584Y-43720548D01*
X102123931Y-43749049D01*
X102217594Y-43842712D01*
X102366916Y-43934814D01*
X102533453Y-43989999D01*
X102636241Y-44000500D01*
X102671652Y-44000499D01*
X102738690Y-44020182D01*
X102759334Y-44036818D01*
X103270865Y-44548350D01*
X103270869Y-44548353D01*
X103436039Y-44658717D01*
X103436045Y-44658720D01*
X103436046Y-44658721D01*
X103619581Y-44734744D01*
X103814416Y-44773499D01*
X103814420Y-44773500D01*
X103814421Y-44773500D01*
X104013079Y-44773500D01*
X106491531Y-44773500D01*
X106558570Y-44793185D01*
X106579212Y-44809819D01*
X106602636Y-44833243D01*
X106602641Y-44833247D01*
X106745938Y-44937357D01*
X106780978Y-44962815D01*
X106909375Y-45028237D01*
X106977393Y-45062895D01*
X106977396Y-45062896D01*
X107082221Y-45096955D01*
X107187049Y-45131015D01*
X107404778Y-45165500D01*
X107404779Y-45165500D01*
X107625221Y-45165500D01*
X107625222Y-45165500D01*
X107842951Y-45131015D01*
X108052606Y-45062895D01*
X108249022Y-44962815D01*
X108427365Y-44833242D01*
X108583242Y-44677365D01*
X108712815Y-44499022D01*
X108812895Y-44302606D01*
X108881015Y-44092951D01*
X108915500Y-43875222D01*
X108915500Y-43654778D01*
X108881015Y-43437049D01*
X108813026Y-43227796D01*
X108812896Y-43227396D01*
X108812895Y-43227393D01*
X108760732Y-43125019D01*
X108712815Y-43030978D01*
X108632184Y-42919998D01*
X108583247Y-42852641D01*
X108583243Y-42852636D01*
X108532683Y-42802076D01*
X108499198Y-42740753D01*
X108504182Y-42671061D01*
X108546054Y-42615128D01*
X108577031Y-42598213D01*
X108657086Y-42568354D01*
X108657093Y-42568350D01*
X108772187Y-42482190D01*
X108772190Y-42482187D01*
X108858350Y-42367093D01*
X108858354Y-42367086D01*
X108908596Y-42232379D01*
X108908598Y-42232372D01*
X108914999Y-42172844D01*
X108915000Y-42172827D01*
X108915000Y-41475000D01*
X107890278Y-41475000D01*
X107934333Y-41398694D01*
X107965000Y-41284244D01*
X107965000Y-41165756D01*
X107934333Y-41051306D01*
X107890278Y-40975000D01*
X108915000Y-40975000D01*
X108915000Y-40277172D01*
X108914999Y-40277155D01*
X108908598Y-40217627D01*
X108908596Y-40217620D01*
X108858354Y-40082913D01*
X108858350Y-40082906D01*
X108772190Y-39967812D01*
X108772187Y-39967809D01*
X108657093Y-39881649D01*
X108657086Y-39881645D01*
X108522379Y-39831403D01*
X108522372Y-39831401D01*
X108462844Y-39825000D01*
X107765000Y-39825000D01*
X107765000Y-40849722D01*
X107688694Y-40805667D01*
X107574244Y-40775000D01*
X107455756Y-40775000D01*
X107341306Y-40805667D01*
X107265000Y-40849722D01*
X107265000Y-39825000D01*
X106567155Y-39825000D01*
X106507627Y-39831401D01*
X106507620Y-39831403D01*
X106372913Y-39881645D01*
X106372906Y-39881649D01*
X106257812Y-39967809D01*
X106257809Y-39967812D01*
X106171649Y-40082906D01*
X106171645Y-40082913D01*
X106121403Y-40217620D01*
X106121401Y-40217627D01*
X106115000Y-40277155D01*
X106115000Y-40975000D01*
X107139722Y-40975000D01*
X107095667Y-41051306D01*
X107065000Y-41165756D01*
X107065000Y-41284244D01*
X107095667Y-41398694D01*
X107139722Y-41475000D01*
X106115000Y-41475000D01*
X106115000Y-42172844D01*
X106121401Y-42232372D01*
X106121403Y-42232379D01*
X106171645Y-42367086D01*
X106171649Y-42367093D01*
X106257809Y-42482187D01*
X106325998Y-42533234D01*
X106367868Y-42589168D01*
X106372852Y-42658859D01*
X106339366Y-42720182D01*
X106278043Y-42753667D01*
X106251686Y-42756500D01*
X104382846Y-42756500D01*
X104315807Y-42736815D01*
X104295165Y-42720181D01*
X103998068Y-42423084D01*
X103964583Y-42361761D01*
X103961749Y-42335403D01*
X103961749Y-42299998D01*
X103961748Y-42299981D01*
X103951249Y-42197203D01*
X103951248Y-42197200D01*
X103943177Y-42172844D01*
X103896064Y-42030666D01*
X103803962Y-41881344D01*
X103679906Y-41757288D01*
X103530584Y-41665186D01*
X103364047Y-41610001D01*
X103364045Y-41610000D01*
X103261260Y-41599500D01*
X102636248Y-41599500D01*
X102636230Y-41599501D01*
X102533453Y-41610000D01*
X102533450Y-41610001D01*
X102366918Y-41665185D01*
X102366913Y-41665187D01*
X102217592Y-41757289D01*
X102123931Y-41850951D01*
X102062608Y-41884436D01*
X101992916Y-41879452D01*
X101948569Y-41850951D01*
X101854907Y-41757289D01*
X101854906Y-41757288D01*
X101705584Y-41665186D01*
X101539047Y-41610001D01*
X101539045Y-41610000D01*
X101436260Y-41599500D01*
X100811248Y-41599500D01*
X100811230Y-41599501D01*
X100708453Y-41610000D01*
X100708450Y-41610001D01*
X100541918Y-41665185D01*
X100541913Y-41665187D01*
X100392592Y-41757289D01*
X100268539Y-41881342D01*
X100176437Y-42030663D01*
X100176435Y-42030668D01*
X100148599Y-42114670D01*
X100121251Y-42197203D01*
X100121251Y-42197204D01*
X100121250Y-42197204D01*
X100110750Y-42299983D01*
X100110750Y-42335402D01*
X100102106Y-42364838D01*
X100095583Y-42394828D01*
X100091827Y-42399844D01*
X100091065Y-42402441D01*
X100074432Y-42423082D01*
X100029835Y-42467680D01*
X99968512Y-42501166D01*
X99942153Y-42504000D01*
X83698243Y-42504000D01*
X83631204Y-42484315D01*
X83585449Y-42431511D01*
X83575505Y-42362353D01*
X83604530Y-42298797D01*
X83610562Y-42292319D01*
X85116564Y-40786315D01*
X85420678Y-40482200D01*
X85439451Y-40466792D01*
X85510285Y-40419464D01*
X85635714Y-40294035D01*
X85686769Y-40217627D01*
X85695233Y-40204960D01*
X85734259Y-40146553D01*
X85734259Y-40146552D01*
X85734263Y-40146547D01*
X85802144Y-39982666D01*
X85804303Y-39971815D01*
X85836749Y-39808695D01*
X85836750Y-39808693D01*
X85836750Y-39631306D01*
X85836749Y-39631304D01*
X85802146Y-39457341D01*
X85802143Y-39457332D01*
X85799990Y-39452135D01*
X85773305Y-39387710D01*
X85734266Y-39293459D01*
X85731390Y-39288078D01*
X85732696Y-39287379D01*
X85714012Y-39227722D01*
X85732492Y-39160341D01*
X85784467Y-39113647D01*
X85837992Y-39101500D01*
X97530573Y-39101500D01*
X97645143Y-39078709D01*
X97700874Y-39067624D01*
X97781085Y-39034399D01*
X97861293Y-39001177D01*
X97861294Y-39001176D01*
X97861297Y-39001175D01*
X98005674Y-38904706D01*
X101073561Y-35836817D01*
X101134884Y-35803333D01*
X101161242Y-35800499D01*
X101376252Y-35800499D01*
X101376258Y-35800499D01*
X101479047Y-35789999D01*
X101645584Y-35734814D01*
X101794906Y-35642712D01*
X101888569Y-35549049D01*
X101949892Y-35515564D01*
X102019584Y-35520548D01*
X102063931Y-35549049D01*
X102157594Y-35642712D01*
X102306916Y-35734814D01*
X102473453Y-35789999D01*
X102576241Y-35800500D01*
X102791257Y-35800499D01*
X102858297Y-35820183D01*
X102878939Y-35836818D01*
X103404044Y-36361923D01*
X103467619Y-36425498D01*
X103526828Y-36484707D01*
X103526831Y-36484709D01*
X103593368Y-36529168D01*
X103593369Y-36529168D01*
X103671203Y-36581175D01*
X103671205Y-36581176D01*
X103671209Y-36581178D01*
X103831621Y-36647622D01*
X103831626Y-36647624D01*
X103831630Y-36647624D01*
X103831631Y-36647625D01*
X104001926Y-36681500D01*
X104001929Y-36681500D01*
X104001930Y-36681500D01*
X106399531Y-36681500D01*
X106466570Y-36701185D01*
X106487212Y-36717819D01*
X106602636Y-36833243D01*
X106602641Y-36833247D01*
X106721361Y-36919501D01*
X106780978Y-36962815D01*
X106909375Y-37028237D01*
X106977393Y-37062895D01*
X106977396Y-37062896D01*
X107076208Y-37095001D01*
X107187049Y-37131015D01*
X107404778Y-37165500D01*
X107404779Y-37165500D01*
X107625221Y-37165500D01*
X107625222Y-37165500D01*
X107842951Y-37131015D01*
X108052606Y-37062895D01*
X108249022Y-36962815D01*
X108427365Y-36833242D01*
X108583242Y-36677365D01*
X108712815Y-36499022D01*
X108812895Y-36302606D01*
X108881015Y-36092951D01*
X108915500Y-35875222D01*
X108915500Y-35654778D01*
X108881015Y-35437049D01*
X108841633Y-35315843D01*
X108812896Y-35227396D01*
X108812895Y-35227393D01*
X108754362Y-35112518D01*
X108712815Y-35030978D01*
X108645051Y-34937708D01*
X108583247Y-34852641D01*
X108583243Y-34852636D01*
X108532683Y-34802076D01*
X108499198Y-34740753D01*
X108504182Y-34671061D01*
X108546054Y-34615128D01*
X108577031Y-34598213D01*
X108657086Y-34568354D01*
X108657093Y-34568350D01*
X108772187Y-34482190D01*
X108772190Y-34482187D01*
X108858350Y-34367093D01*
X108858354Y-34367086D01*
X108908596Y-34232379D01*
X108908598Y-34232372D01*
X108914999Y-34172844D01*
X108915000Y-34172827D01*
X108915000Y-33475000D01*
X107890278Y-33475000D01*
X107934333Y-33398694D01*
X107965000Y-33284244D01*
X107965000Y-33165756D01*
X107934333Y-33051306D01*
X107890278Y-32975000D01*
X108915000Y-32975000D01*
X108915000Y-32277172D01*
X108914999Y-32277155D01*
X108908598Y-32217627D01*
X108908596Y-32217620D01*
X108858354Y-32082913D01*
X108858350Y-32082906D01*
X108772190Y-31967812D01*
X108772187Y-31967809D01*
X108657093Y-31881649D01*
X108657086Y-31881645D01*
X108522379Y-31831403D01*
X108522372Y-31831401D01*
X108462844Y-31825000D01*
X107765000Y-31825000D01*
X107765000Y-32849722D01*
X107688694Y-32805667D01*
X107574244Y-32775000D01*
X107455756Y-32775000D01*
X107341306Y-32805667D01*
X107265000Y-32849722D01*
X107265000Y-31825000D01*
X106567155Y-31825000D01*
X106507627Y-31831401D01*
X106507620Y-31831403D01*
X106372913Y-31881645D01*
X106372906Y-31881649D01*
X106257812Y-31967809D01*
X106257809Y-31967812D01*
X106171649Y-32082906D01*
X106171645Y-32082913D01*
X106121403Y-32217620D01*
X106121401Y-32217627D01*
X106115000Y-32277155D01*
X106115000Y-32975000D01*
X107139722Y-32975000D01*
X107095667Y-33051306D01*
X107065000Y-33165756D01*
X107065000Y-33284244D01*
X107095667Y-33398694D01*
X107139722Y-33475000D01*
X106115000Y-33475000D01*
X106115000Y-34172844D01*
X106121401Y-34232372D01*
X106121403Y-34232379D01*
X106171645Y-34367086D01*
X106171649Y-34367093D01*
X106257809Y-34482187D01*
X106257812Y-34482190D01*
X106372906Y-34568350D01*
X106372913Y-34568354D01*
X106452968Y-34598213D01*
X106479021Y-34617715D01*
X106505836Y-34636156D01*
X106506834Y-34638536D01*
X106508902Y-34640084D01*
X106520275Y-34670577D01*
X106532864Y-34700587D01*
X106532416Y-34703130D01*
X106533319Y-34705549D01*
X106526402Y-34737343D01*
X106520767Y-34769401D01*
X106518846Y-34772076D01*
X106518467Y-34773822D01*
X106500768Y-34798483D01*
X106499073Y-34800319D01*
X106446758Y-34852635D01*
X106431777Y-34873253D01*
X106426856Y-34878588D01*
X106402860Y-34892970D01*
X106380710Y-34910051D01*
X106371470Y-34911786D01*
X106366928Y-34914509D01*
X106358391Y-34914242D01*
X106335723Y-34918500D01*
X104505241Y-34918500D01*
X104438202Y-34898815D01*
X104417560Y-34882181D01*
X103938068Y-34402688D01*
X103904583Y-34341365D01*
X103901749Y-34315007D01*
X103901749Y-34099998D01*
X103901748Y-34099981D01*
X103891249Y-33997203D01*
X103891248Y-33997200D01*
X103874165Y-33945648D01*
X103836064Y-33830666D01*
X103743962Y-33681344D01*
X103619906Y-33557288D01*
X103470584Y-33465186D01*
X103304047Y-33410001D01*
X103304045Y-33410000D01*
X103201260Y-33399500D01*
X102576248Y-33399500D01*
X102576230Y-33399501D01*
X102473453Y-33410000D01*
X102473450Y-33410001D01*
X102306918Y-33465185D01*
X102306913Y-33465187D01*
X102157592Y-33557289D01*
X102063931Y-33650951D01*
X102002608Y-33684436D01*
X101932916Y-33679452D01*
X101888569Y-33650951D01*
X101794907Y-33557289D01*
X101794906Y-33557288D01*
X101645584Y-33465186D01*
X101479047Y-33410001D01*
X101479045Y-33410000D01*
X101376260Y-33399500D01*
X100751248Y-33399500D01*
X100751230Y-33399501D01*
X100648453Y-33410000D01*
X100648450Y-33410001D01*
X100481918Y-33465185D01*
X100481913Y-33465187D01*
X100332592Y-33557289D01*
X100208539Y-33681342D01*
X100116437Y-33830663D01*
X100116435Y-33830668D01*
X100093458Y-33900009D01*
X100061251Y-33997203D01*
X100061251Y-33997204D01*
X100061250Y-33997204D01*
X100050750Y-34099983D01*
X100050750Y-34315007D01*
X100031065Y-34382046D01*
X100014431Y-34402688D01*
X97114939Y-37302181D01*
X97053616Y-37335666D01*
X97027258Y-37338500D01*
X81972767Y-37338500D01*
X81905728Y-37318815D01*
X81867228Y-37279596D01*
X81818962Y-37201344D01*
X81694907Y-37077289D01*
X81694906Y-37077288D01*
X81545584Y-36985186D01*
X81379047Y-36930001D01*
X81379045Y-36930000D01*
X81276260Y-36919500D01*
X80076248Y-36919500D01*
X80076231Y-36919501D01*
X79973453Y-36930000D01*
X79973450Y-36930001D01*
X79806918Y-36985185D01*
X79806913Y-36985187D01*
X79657592Y-37077289D01*
X79533538Y-37201343D01*
X79533535Y-37201347D01*
X79511788Y-37236605D01*
X79459840Y-37283330D01*
X79390878Y-37294551D01*
X79326796Y-37266708D01*
X79300712Y-37236605D01*
X79278964Y-37201347D01*
X79278961Y-37201343D01*
X79154907Y-37077289D01*
X79154906Y-37077288D01*
X79005584Y-36985186D01*
X78839047Y-36930001D01*
X78839045Y-36930000D01*
X78736260Y-36919500D01*
X77536248Y-36919500D01*
X77536231Y-36919501D01*
X77433453Y-36930000D01*
X77433450Y-36930001D01*
X77266918Y-36985185D01*
X77266913Y-36985187D01*
X77117592Y-37077289D01*
X76993538Y-37201343D01*
X76993535Y-37201347D01*
X76971788Y-37236605D01*
X76919840Y-37283330D01*
X76850878Y-37294551D01*
X76786796Y-37266708D01*
X76760712Y-37236605D01*
X76738964Y-37201347D01*
X76738961Y-37201343D01*
X76614907Y-37077289D01*
X76614906Y-37077288D01*
X76465584Y-36985186D01*
X76299047Y-36930001D01*
X76299045Y-36930000D01*
X76196266Y-36919500D01*
X76196259Y-36919500D01*
X75773347Y-36919500D01*
X75706308Y-36899815D01*
X75685666Y-36883181D01*
X73620165Y-34817680D01*
X73586680Y-34756357D01*
X73591664Y-34686665D01*
X73620165Y-34642318D01*
X76076314Y-32186170D01*
X76383911Y-31878573D01*
X76384937Y-31879599D01*
X76435746Y-31844700D01*
X76465584Y-31834814D01*
X76614906Y-31742712D01*
X76738962Y-31618656D01*
X76760711Y-31583394D01*
X76812659Y-31536670D01*
X76881621Y-31525447D01*
X76945703Y-31553290D01*
X76971789Y-31583395D01*
X76989821Y-31612631D01*
X76993538Y-31618656D01*
X77117594Y-31742712D01*
X77266916Y-31834814D01*
X77433453Y-31889999D01*
X77536241Y-31900500D01*
X78736258Y-31900499D01*
X78839047Y-31889999D01*
X79005584Y-31834814D01*
X79154906Y-31742712D01*
X79278962Y-31618656D01*
X79300711Y-31583394D01*
X79352659Y-31536670D01*
X79421621Y-31525447D01*
X79485703Y-31553290D01*
X79511789Y-31583395D01*
X79529821Y-31612631D01*
X79533538Y-31618656D01*
X79657594Y-31742712D01*
X79806916Y-31834814D01*
X79973453Y-31889999D01*
X80076241Y-31900500D01*
X81276258Y-31900499D01*
X81379047Y-31889999D01*
X81545584Y-31834814D01*
X81694906Y-31742712D01*
X81818962Y-31618656D01*
X81911064Y-31469334D01*
X81920951Y-31439495D01*
X81960724Y-31382051D01*
X82025240Y-31355228D01*
X82038657Y-31354500D01*
X96843304Y-31354500D01*
X96843324Y-31354501D01*
X96849438Y-31354501D01*
X96998064Y-31354501D01*
X97034759Y-31347200D01*
X97119644Y-31330315D01*
X97143830Y-31325505D01*
X97200705Y-31301946D01*
X97281139Y-31268630D01*
X97404716Y-31186059D01*
X100953956Y-27636817D01*
X101015279Y-27603333D01*
X101041637Y-27600499D01*
X101436252Y-27600499D01*
X101436258Y-27600499D01*
X101539047Y-27589999D01*
X101705584Y-27534814D01*
X101854906Y-27442712D01*
X101948569Y-27349049D01*
X102009892Y-27315564D01*
X102079584Y-27320548D01*
X102123931Y-27349049D01*
X102217594Y-27442712D01*
X102366916Y-27534814D01*
X102533453Y-27589999D01*
X102636241Y-27600500D01*
X103030862Y-27600499D01*
X103097901Y-27620183D01*
X103118543Y-27636818D01*
X103723350Y-28241624D01*
X103723371Y-28241647D01*
X103832779Y-28351055D01*
X103832782Y-28351057D01*
X103832784Y-28351059D01*
X103915355Y-28406230D01*
X103956361Y-28433630D01*
X104036795Y-28466946D01*
X104093670Y-28490505D01*
X104093679Y-28490506D01*
X104093680Y-28490507D01*
X104117853Y-28495315D01*
X104117860Y-28495316D01*
X104239436Y-28519501D01*
X104239438Y-28519501D01*
X104394176Y-28519501D01*
X104394196Y-28519500D01*
X106268882Y-28519500D01*
X106335921Y-28539185D01*
X106369197Y-28570612D01*
X106395342Y-28606596D01*
X106446758Y-28677365D01*
X106602636Y-28833243D01*
X106602641Y-28833247D01*
X106734349Y-28928937D01*
X106780978Y-28962815D01*
X106909375Y-29028237D01*
X106977393Y-29062895D01*
X106977396Y-29062896D01*
X107035418Y-29081748D01*
X107187049Y-29131015D01*
X107404778Y-29165500D01*
X107404779Y-29165500D01*
X107625221Y-29165500D01*
X107625222Y-29165500D01*
X107842951Y-29131015D01*
X108052606Y-29062895D01*
X108249022Y-28962815D01*
X108427365Y-28833242D01*
X108583242Y-28677365D01*
X108712815Y-28499022D01*
X108812895Y-28302606D01*
X108881015Y-28092951D01*
X108915500Y-27875222D01*
X108915500Y-27654778D01*
X108881015Y-27437049D01*
X108841543Y-27315564D01*
X108812896Y-27227396D01*
X108812895Y-27227393D01*
X108763039Y-27129548D01*
X108712815Y-27030978D01*
X108664880Y-26965001D01*
X108583247Y-26852641D01*
X108583243Y-26852636D01*
X108532683Y-26802076D01*
X108499198Y-26740753D01*
X108504182Y-26671061D01*
X108546054Y-26615128D01*
X108577031Y-26598213D01*
X108657086Y-26568354D01*
X108657093Y-26568350D01*
X108772187Y-26482190D01*
X108772190Y-26482187D01*
X108858350Y-26367093D01*
X108858354Y-26367086D01*
X108908596Y-26232379D01*
X108908598Y-26232372D01*
X108914999Y-26172844D01*
X108915000Y-26172827D01*
X108915000Y-25475000D01*
X107890278Y-25475000D01*
X107934333Y-25398694D01*
X107965000Y-25284244D01*
X107965000Y-25165756D01*
X107934333Y-25051306D01*
X107890278Y-24975000D01*
X108915000Y-24975000D01*
X108915000Y-24277172D01*
X108914999Y-24277155D01*
X108908598Y-24217627D01*
X108908596Y-24217620D01*
X108858354Y-24082913D01*
X108858350Y-24082906D01*
X108772190Y-23967812D01*
X108772187Y-23967809D01*
X108657093Y-23881649D01*
X108657086Y-23881645D01*
X108522379Y-23831403D01*
X108522372Y-23831401D01*
X108462844Y-23825000D01*
X107765000Y-23825000D01*
X107765000Y-24849722D01*
X107688694Y-24805667D01*
X107574244Y-24775000D01*
X107455756Y-24775000D01*
X107341306Y-24805667D01*
X107265000Y-24849722D01*
X107265000Y-23825000D01*
X106567155Y-23825000D01*
X106507627Y-23831401D01*
X106507620Y-23831403D01*
X106372913Y-23881645D01*
X106372906Y-23881649D01*
X106257812Y-23967809D01*
X106257809Y-23967812D01*
X106171649Y-24082906D01*
X106171645Y-24082913D01*
X106121403Y-24217620D01*
X106121401Y-24217627D01*
X106115000Y-24277155D01*
X106115000Y-24975000D01*
X107139722Y-24975000D01*
X107095667Y-25051306D01*
X107065000Y-25165756D01*
X107065000Y-25284244D01*
X107095667Y-25398694D01*
X107139722Y-25475000D01*
X106115000Y-25475000D01*
X106115000Y-26172844D01*
X106121401Y-26232372D01*
X106121403Y-26232379D01*
X106171645Y-26367086D01*
X106171649Y-26367093D01*
X106257809Y-26482187D01*
X106257812Y-26482190D01*
X106372906Y-26568350D01*
X106372913Y-26568354D01*
X106452968Y-26598213D01*
X106476174Y-26615584D01*
X106500998Y-26630557D01*
X106503805Y-26636269D01*
X106508902Y-26640084D01*
X106519031Y-26667242D01*
X106531821Y-26693260D01*
X106531094Y-26699585D01*
X106533319Y-26705549D01*
X106527157Y-26733874D01*
X106523850Y-26762674D01*
X106519480Y-26769162D01*
X106518467Y-26773822D01*
X106505622Y-26792896D01*
X106501693Y-26797699D01*
X106446758Y-26852635D01*
X106367115Y-26962254D01*
X106364869Y-26965001D01*
X106338849Y-26982789D01*
X106313871Y-27002051D01*
X106309465Y-27002878D01*
X106307190Y-27004434D01*
X106300107Y-27004635D01*
X106268882Y-27010500D01*
X104677636Y-27010500D01*
X104610597Y-26990815D01*
X104589955Y-26974181D01*
X103998068Y-26382293D01*
X103964583Y-26320970D01*
X103961749Y-26294612D01*
X103961749Y-25899998D01*
X103961748Y-25899981D01*
X103951249Y-25797203D01*
X103951248Y-25797200D01*
X103935828Y-25750666D01*
X103896064Y-25630666D01*
X103803962Y-25481344D01*
X103679906Y-25357288D01*
X103530584Y-25265186D01*
X103364047Y-25210001D01*
X103364045Y-25210000D01*
X103261260Y-25199500D01*
X102636248Y-25199500D01*
X102636230Y-25199501D01*
X102533453Y-25210000D01*
X102533450Y-25210001D01*
X102366918Y-25265185D01*
X102366913Y-25265187D01*
X102217592Y-25357289D01*
X102123931Y-25450951D01*
X102062608Y-25484436D01*
X101992916Y-25479452D01*
X101948569Y-25450951D01*
X101854907Y-25357289D01*
X101854906Y-25357288D01*
X101705584Y-25265186D01*
X101539047Y-25210001D01*
X101539045Y-25210000D01*
X101436260Y-25199500D01*
X100811248Y-25199500D01*
X100811230Y-25199501D01*
X100708453Y-25210000D01*
X100708450Y-25210001D01*
X100541918Y-25265185D01*
X100541913Y-25265187D01*
X100392592Y-25357289D01*
X100268539Y-25481342D01*
X100176437Y-25630663D01*
X100176436Y-25630666D01*
X100121251Y-25797203D01*
X100121251Y-25797204D01*
X100121250Y-25797204D01*
X100110750Y-25899983D01*
X100110750Y-26294612D01*
X100091065Y-26361651D01*
X100074431Y-26382293D01*
X96647544Y-29809181D01*
X96586221Y-29842666D01*
X96559863Y-29845500D01*
X82038657Y-29845500D01*
X81971618Y-29825815D01*
X81925863Y-29773011D01*
X81920951Y-29760504D01*
X81911064Y-29730666D01*
X81818962Y-29581344D01*
X81694906Y-29457288D01*
X81545584Y-29365186D01*
X81379047Y-29310001D01*
X81379045Y-29310000D01*
X81276260Y-29299500D01*
X80076248Y-29299500D01*
X80076231Y-29299501D01*
X79973453Y-29310000D01*
X79973450Y-29310001D01*
X79806918Y-29365185D01*
X79806913Y-29365187D01*
X79657592Y-29457289D01*
X79533538Y-29581343D01*
X79533535Y-29581347D01*
X79511788Y-29616605D01*
X79459840Y-29663330D01*
X79390878Y-29674551D01*
X79326796Y-29646708D01*
X79300712Y-29616605D01*
X79278964Y-29581347D01*
X79278961Y-29581343D01*
X79154907Y-29457289D01*
X79154906Y-29457288D01*
X79005584Y-29365186D01*
X78839047Y-29310001D01*
X78839045Y-29310000D01*
X78736266Y-29299500D01*
X78736259Y-29299500D01*
X77954136Y-29299500D01*
X77887097Y-29279815D01*
X77866455Y-29263181D01*
X76149626Y-27546351D01*
X76135448Y-27520386D01*
X76118997Y-27495800D01*
X76118890Y-27490063D01*
X76116141Y-27485028D01*
X76118251Y-27455517D01*
X76117704Y-27425943D01*
X76120891Y-27418608D01*
X76121125Y-27415336D01*
X76131765Y-27393578D01*
X76168883Y-27333402D01*
X76220831Y-27286678D01*
X76274421Y-27274500D01*
X78398079Y-27274500D01*
X78465118Y-27294185D01*
X78503617Y-27333402D01*
X78568538Y-27438656D01*
X78692594Y-27562712D01*
X78841916Y-27654814D01*
X79008453Y-27709999D01*
X79111241Y-27720500D01*
X79736258Y-27720499D01*
X79736266Y-27720498D01*
X79736269Y-27720498D01*
X79792552Y-27714748D01*
X79839047Y-27709999D01*
X80005584Y-27654814D01*
X80154906Y-27562712D01*
X80248925Y-27468692D01*
X80310244Y-27435210D01*
X80379936Y-27440194D01*
X80424284Y-27468695D01*
X80517904Y-27562315D01*
X80667125Y-27654356D01*
X80667130Y-27654358D01*
X80833552Y-27709505D01*
X80833559Y-27709506D01*
X80936269Y-27719999D01*
X81498750Y-27719999D01*
X81561222Y-27719999D01*
X81561236Y-27719998D01*
X81663947Y-27709505D01*
X81830369Y-27654358D01*
X81830374Y-27654356D01*
X81979595Y-27562315D01*
X82103565Y-27438345D01*
X82195606Y-27289124D01*
X82195608Y-27289119D01*
X82250755Y-27122697D01*
X82250756Y-27122690D01*
X82261249Y-27019986D01*
X82261250Y-27019973D01*
X82261250Y-26770000D01*
X81498750Y-26770000D01*
X81498750Y-27719999D01*
X80936269Y-27719999D01*
X80998749Y-27719998D01*
X80998750Y-27719998D01*
X80998750Y-26270000D01*
X81498750Y-26270000D01*
X82261249Y-26270000D01*
X82261249Y-26020028D01*
X82261248Y-26020013D01*
X82250755Y-25917302D01*
X82195608Y-25750880D01*
X82195606Y-25750875D01*
X82103565Y-25601654D01*
X81979595Y-25477684D01*
X81830374Y-25385643D01*
X81830369Y-25385641D01*
X81663947Y-25330494D01*
X81663940Y-25330493D01*
X81561236Y-25320000D01*
X81498750Y-25320000D01*
X81498750Y-26270000D01*
X80998750Y-26270000D01*
X80998750Y-25320000D01*
X80998749Y-25319999D01*
X80936278Y-25320000D01*
X80936261Y-25320001D01*
X80833552Y-25330494D01*
X80667130Y-25385641D01*
X80667125Y-25385643D01*
X80517907Y-25477682D01*
X80424284Y-25571305D01*
X80362960Y-25604789D01*
X80293269Y-25599805D01*
X80248922Y-25571304D01*
X80154907Y-25477289D01*
X80154906Y-25477288D01*
X80033583Y-25402456D01*
X80005586Y-25385187D01*
X80005581Y-25385185D01*
X79966585Y-25372263D01*
X79839047Y-25330001D01*
X79839045Y-25330000D01*
X79736260Y-25319500D01*
X79111248Y-25319500D01*
X79111230Y-25319501D01*
X79008453Y-25330000D01*
X79008450Y-25330001D01*
X78841918Y-25385185D01*
X78841913Y-25385187D01*
X78692592Y-25477289D01*
X78568539Y-25601342D01*
X78503618Y-25706597D01*
X78451670Y-25753321D01*
X78398079Y-25765500D01*
X76274421Y-25765500D01*
X76207382Y-25745815D01*
X76168882Y-25706597D01*
X76137469Y-25655668D01*
X76103962Y-25601344D01*
X75979906Y-25477288D01*
X75858583Y-25402456D01*
X75830586Y-25385187D01*
X75830581Y-25385185D01*
X75791585Y-25372263D01*
X75664047Y-25330001D01*
X75664045Y-25330000D01*
X75561266Y-25319500D01*
X75561259Y-25319500D01*
X75470240Y-25319500D01*
X75403201Y-25299815D01*
X75357446Y-25247011D01*
X75347502Y-25177853D01*
X75376527Y-25114297D01*
X75382559Y-25107819D01*
X75541685Y-24948694D01*
X75852560Y-24637819D01*
X75913883Y-24604334D01*
X75940241Y-24601500D01*
X77339829Y-24601500D01*
X77364019Y-24603882D01*
X77383404Y-24607738D01*
X77447556Y-24620500D01*
X77447559Y-24620500D01*
X77624943Y-24620500D01*
X77624944Y-24620499D01*
X77682932Y-24608964D01*
X77798908Y-24585896D01*
X77798911Y-24585894D01*
X77798916Y-24585894D01*
X77962797Y-24518013D01*
X78110285Y-24419464D01*
X78235714Y-24294035D01*
X78334263Y-24146547D01*
X78402144Y-23982666D01*
X78405100Y-23967809D01*
X78436749Y-23808695D01*
X78436750Y-23808693D01*
X78436750Y-23631306D01*
X78436749Y-23631304D01*
X78402145Y-23457339D01*
X78402144Y-23457334D01*
X78389982Y-23427973D01*
X86385750Y-23427973D01*
X86385750Y-23672026D01*
X86421857Y-23899999D01*
X86423929Y-23913076D01*
X86499346Y-24145185D01*
X86536253Y-24217620D01*
X86610146Y-24362642D01*
X86753589Y-24560076D01*
X86753593Y-24560081D01*
X86926168Y-24732656D01*
X86926173Y-24732660D01*
X87098386Y-24857779D01*
X87123611Y-24876106D01*
X87341065Y-24986904D01*
X87573174Y-25062321D01*
X87814223Y-25100500D01*
X87814224Y-25100500D01*
X88058276Y-25100500D01*
X88058277Y-25100500D01*
X88299326Y-25062321D01*
X88531435Y-24986904D01*
X88748889Y-24876106D01*
X88946333Y-24732655D01*
X89118905Y-24560083D01*
X89262356Y-24362639D01*
X89373154Y-24145185D01*
X89448571Y-23913076D01*
X89486750Y-23672027D01*
X89486750Y-23427973D01*
X89448571Y-23186924D01*
X89373154Y-22954815D01*
X89262356Y-22737361D01*
X89234222Y-22698638D01*
X89118910Y-22539923D01*
X89118906Y-22539918D01*
X88946331Y-22367343D01*
X88946326Y-22367339D01*
X88748892Y-22223896D01*
X88748891Y-22223895D01*
X88748889Y-22223894D01*
X88531435Y-22113096D01*
X88299326Y-22037679D01*
X88299324Y-22037678D01*
X88299322Y-22037678D01*
X88131019Y-22011021D01*
X88058277Y-21999500D01*
X87814223Y-21999500D01*
X87758343Y-22008350D01*
X87573177Y-22037678D01*
X87341062Y-22113097D01*
X87123607Y-22223896D01*
X86926173Y-22367339D01*
X86926168Y-22367343D01*
X86753593Y-22539918D01*
X86753589Y-22539923D01*
X86610146Y-22737357D01*
X86499347Y-22954812D01*
X86423928Y-23186927D01*
X86385750Y-23427973D01*
X78389982Y-23427973D01*
X78334266Y-23293459D01*
X78334259Y-23293446D01*
X78235714Y-23145965D01*
X78235711Y-23145961D01*
X78110288Y-23020538D01*
X78110284Y-23020535D01*
X77962803Y-22921990D01*
X77962790Y-22921983D01*
X77798917Y-22854106D01*
X77798908Y-22854103D01*
X77624944Y-22819500D01*
X77624941Y-22819500D01*
X77447559Y-22819500D01*
X77447557Y-22819500D01*
X77390074Y-22830934D01*
X77364019Y-22836117D01*
X77339829Y-22838500D01*
X75436928Y-22838500D01*
X75266631Y-22872374D01*
X75266621Y-22872377D01*
X75106209Y-22938821D01*
X75106196Y-22938828D01*
X74961828Y-23035292D01*
X74961826Y-23035295D01*
X72739046Y-25258072D01*
X72739045Y-25258073D01*
X72642572Y-25402456D01*
X72576127Y-25562871D01*
X72576126Y-25562874D01*
X72572798Y-25579603D01*
X72556722Y-25620498D01*
X72542021Y-25644333D01*
X72476436Y-25750666D01*
X72421251Y-25917203D01*
X72421251Y-25917204D01*
X72421250Y-25917204D01*
X72410750Y-26019983D01*
X72410750Y-27020001D01*
X72410751Y-27020019D01*
X72421250Y-27122796D01*
X72421251Y-27122799D01*
X72478225Y-27294733D01*
X72480627Y-27364561D01*
X72448200Y-27421418D01*
X70606437Y-29263181D01*
X70545114Y-29296666D01*
X70518756Y-29299500D01*
X69916248Y-29299500D01*
X69916230Y-29299501D01*
X69813453Y-29310000D01*
X69813450Y-29310001D01*
X69646918Y-29365185D01*
X69646913Y-29365187D01*
X69497592Y-29457289D01*
X69373538Y-29581343D01*
X69373535Y-29581347D01*
X69351788Y-29616605D01*
X69299840Y-29663330D01*
X69230878Y-29674551D01*
X69166796Y-29646708D01*
X69140712Y-29616605D01*
X69118964Y-29581347D01*
X69118961Y-29581343D01*
X68994907Y-29457289D01*
X68994906Y-29457288D01*
X68845584Y-29365186D01*
X68679047Y-29310001D01*
X68679045Y-29310000D01*
X68576260Y-29299500D01*
X67376248Y-29299500D01*
X67376231Y-29299501D01*
X67273453Y-29310000D01*
X67273450Y-29310001D01*
X67106918Y-29365185D01*
X67106913Y-29365187D01*
X66957595Y-29457287D01*
X66859700Y-29555182D01*
X66832766Y-29569888D01*
X66806954Y-29586477D01*
X66800753Y-29587368D01*
X66798377Y-29588666D01*
X66772019Y-29591500D01*
X66640481Y-29591500D01*
X66573442Y-29571815D01*
X66552800Y-29555182D01*
X66523983Y-29526365D01*
X66454906Y-29457288D01*
X66305584Y-29365186D01*
X66139047Y-29310001D01*
X66139045Y-29310000D01*
X66036260Y-29299500D01*
X64836248Y-29299500D01*
X64836231Y-29299501D01*
X64733453Y-29310000D01*
X64733450Y-29310001D01*
X64566918Y-29365185D01*
X64566913Y-29365187D01*
X64417592Y-29457289D01*
X64293539Y-29581342D01*
X64201437Y-29730663D01*
X64201435Y-29730668D01*
X64187404Y-29773011D01*
X64146251Y-29897203D01*
X64146251Y-29897204D01*
X64146250Y-29897204D01*
X64135750Y-29999983D01*
X64135750Y-31200001D01*
X64135751Y-31200018D01*
X64146250Y-31302796D01*
X64146251Y-31302799D01*
X64172513Y-31382051D01*
X64201436Y-31469334D01*
X64293538Y-31618656D01*
X64417594Y-31742712D01*
X64566916Y-31834814D01*
X64733453Y-31889999D01*
X64836241Y-31900500D01*
X66036258Y-31900499D01*
X66139047Y-31889999D01*
X66305584Y-31834814D01*
X66454906Y-31742712D01*
X66552800Y-31644818D01*
X66579733Y-31630111D01*
X66605546Y-31613523D01*
X66611746Y-31612631D01*
X66614123Y-31611334D01*
X66640481Y-31608500D01*
X66772019Y-31608500D01*
X66839058Y-31628185D01*
X66859700Y-31644818D01*
X66957594Y-31742712D01*
X67106916Y-31834814D01*
X67273453Y-31889999D01*
X67376241Y-31900500D01*
X68576258Y-31900499D01*
X68679047Y-31889999D01*
X68845584Y-31834814D01*
X68994906Y-31742712D01*
X69118962Y-31618656D01*
X69140711Y-31583394D01*
X69192659Y-31536670D01*
X69261621Y-31525447D01*
X69325703Y-31553290D01*
X69351789Y-31583395D01*
X69369821Y-31612631D01*
X69373538Y-31618656D01*
X69497594Y-31742712D01*
X69646916Y-31834814D01*
X69813453Y-31889999D01*
X69916241Y-31900500D01*
X71116258Y-31900499D01*
X71219047Y-31889999D01*
X71385584Y-31834814D01*
X71534906Y-31742712D01*
X71658962Y-31618656D01*
X71681005Y-31582917D01*
X71732951Y-31536194D01*
X71801913Y-31524971D01*
X71865995Y-31552814D01*
X71892081Y-31582917D01*
X71913932Y-31618343D01*
X72037904Y-31742315D01*
X72187125Y-31834356D01*
X72187130Y-31834358D01*
X72353552Y-31889505D01*
X72353559Y-31889506D01*
X72456269Y-31899999D01*
X72806249Y-31899999D01*
X72806250Y-31899998D01*
X72806250Y-30724000D01*
X72825935Y-30656961D01*
X72878739Y-30611206D01*
X72930250Y-30600000D01*
X73182250Y-30600000D01*
X73249289Y-30619685D01*
X73295044Y-30672489D01*
X73306250Y-30724000D01*
X73306250Y-31899999D01*
X73320452Y-31914201D01*
X73353937Y-31975524D01*
X73348953Y-32045216D01*
X73320452Y-32089563D01*
X71725835Y-33684181D01*
X71664512Y-33717666D01*
X71638154Y-33720500D01*
X68827916Y-33720500D01*
X68633088Y-33759254D01*
X68633080Y-33759256D01*
X68571379Y-33784814D01*
X68449550Y-33835276D01*
X68449536Y-33835284D01*
X68284373Y-33945642D01*
X68284365Y-33945648D01*
X65346833Y-36883181D01*
X65285510Y-36916666D01*
X65259152Y-36919500D01*
X64836248Y-36919500D01*
X64836230Y-36919501D01*
X64733453Y-36930000D01*
X64733450Y-36930001D01*
X64607754Y-36971653D01*
X64537925Y-36974055D01*
X64477884Y-36938323D01*
X64446691Y-36875802D01*
X64444750Y-36853947D01*
X64444750Y-34700670D01*
X64444749Y-34700666D01*
X64405994Y-34505831D01*
X64363814Y-34404000D01*
X64359138Y-34392712D01*
X64329973Y-34322299D01*
X64329972Y-34322296D01*
X64219604Y-34157119D01*
X64219601Y-34157115D01*
X61879134Y-31816649D01*
X61879130Y-31816646D01*
X61713954Y-31706279D01*
X61713944Y-31706275D01*
X61530419Y-31630256D01*
X61530411Y-31630254D01*
X61335583Y-31591500D01*
X61335579Y-31591500D01*
X49924421Y-31591500D01*
X49924416Y-31591500D01*
X49729588Y-31630253D01*
X49729588Y-31630254D01*
X49729585Y-31630255D01*
X49729581Y-31630256D01*
X49675825Y-31652522D01*
X49546050Y-31706275D01*
X49546049Y-31706276D01*
X49380869Y-31816646D01*
X49380865Y-31816649D01*
X48692335Y-32505181D01*
X48631012Y-32538666D01*
X48604654Y-32541500D01*
X45536921Y-32541500D01*
X45511254Y-32546604D01*
X45508675Y-32547118D01*
X45484486Y-32549500D01*
X45111248Y-32549500D01*
X45111230Y-32549501D01*
X45008453Y-32560000D01*
X45008450Y-32560001D01*
X44841918Y-32615185D01*
X44841913Y-32615187D01*
X44692592Y-32707289D01*
X44568539Y-32831342D01*
X44476437Y-32980663D01*
X44476436Y-32980666D01*
X44421251Y-33147203D01*
X44421251Y-33147204D01*
X44421250Y-33147204D01*
X44410750Y-33249983D01*
X44410750Y-33850001D01*
X44410751Y-33850019D01*
X44421250Y-33952796D01*
X44421251Y-33952799D01*
X44476435Y-34119331D01*
X44476437Y-34119336D01*
X44495894Y-34150880D01*
X44564650Y-34262353D01*
X44568539Y-34268657D01*
X44692596Y-34392714D01*
X44695432Y-34394463D01*
X44696967Y-34396170D01*
X44698261Y-34397193D01*
X44698086Y-34397414D01*
X44742155Y-34446411D01*
X44753376Y-34515374D01*
X44725532Y-34579456D01*
X44695432Y-34605537D01*
X44692596Y-34607285D01*
X44568539Y-34731342D01*
X44476437Y-34880663D01*
X44476435Y-34880668D01*
X44463899Y-34918500D01*
X44421251Y-35047203D01*
X44421251Y-35047204D01*
X44421250Y-35047204D01*
X44410750Y-35149983D01*
X44410750Y-35197903D01*
X44391065Y-35264942D01*
X44374431Y-35285584D01*
X43564835Y-36095181D01*
X43503512Y-36128666D01*
X43477154Y-36131500D01*
X40326875Y-36131500D01*
X40259836Y-36111815D01*
X40239194Y-36095181D01*
X40218325Y-36074312D01*
X40218323Y-36074310D01*
X40065449Y-35963240D01*
X40033975Y-35947203D01*
X39897086Y-35877454D01*
X39717368Y-35819059D01*
X39530736Y-35789500D01*
X39530731Y-35789500D01*
X39341769Y-35789500D01*
X39341764Y-35789500D01*
X39155131Y-35819059D01*
X38975413Y-35877454D01*
X38807050Y-35963240D01*
X38752340Y-36002990D01*
X38654177Y-36074310D01*
X38654175Y-36074312D01*
X38654174Y-36074312D01*
X38520562Y-36207924D01*
X38520562Y-36207925D01*
X38520560Y-36207927D01*
X38481042Y-36262319D01*
X38409490Y-36360800D01*
X38323704Y-36529163D01*
X38265309Y-36708881D01*
X38235750Y-36895513D01*
X38235750Y-37384486D01*
X38265309Y-37571118D01*
X38323704Y-37750836D01*
X38346214Y-37795013D01*
X38409490Y-37919199D01*
X38520560Y-38072073D01*
X38654177Y-38205690D01*
X38807051Y-38316760D01*
X38886597Y-38357290D01*
X38975413Y-38402545D01*
X38975415Y-38402545D01*
X38975418Y-38402547D01*
X39071747Y-38433846D01*
X39155131Y-38460940D01*
X39341764Y-38490500D01*
X39341769Y-38490500D01*
X39530736Y-38490500D01*
X39717368Y-38460940D01*
X39721646Y-38459550D01*
X39897082Y-38402547D01*
X40065449Y-38316760D01*
X40218323Y-38205690D01*
X40239194Y-38184819D01*
X40300517Y-38151334D01*
X40326875Y-38148500D01*
X44045580Y-38148500D01*
X44045581Y-38148499D01*
X44240419Y-38109744D01*
X44423954Y-38033721D01*
X44589131Y-37923353D01*
X44729603Y-37782881D01*
X46017665Y-36494819D01*
X46078988Y-36461334D01*
X46105346Y-36458500D01*
X49098081Y-36458500D01*
X49202831Y-36437663D01*
X49252005Y-36427881D01*
X49276196Y-36425499D01*
X49536252Y-36425499D01*
X49536258Y-36425499D01*
X49574017Y-36421641D01*
X49586617Y-36421000D01*
X50779654Y-36421000D01*
X50846693Y-36440685D01*
X50867335Y-36457319D01*
X55193365Y-40783351D01*
X55193373Y-40783357D01*
X55358536Y-40893715D01*
X55358539Y-40893716D01*
X55358547Y-40893722D01*
X55542082Y-40969744D01*
X55542084Y-40969744D01*
X55542089Y-40969746D01*
X55736916Y-41008499D01*
X55736919Y-41008500D01*
X55736921Y-41008500D01*
X55935580Y-41008500D01*
X55935581Y-41008499D01*
X56000525Y-40995581D01*
X56130411Y-40969746D01*
X56130414Y-40969744D01*
X56130419Y-40969744D01*
X56313954Y-40893722D01*
X56479131Y-40783354D01*
X56619604Y-40642881D01*
X56729972Y-40477704D01*
X56805994Y-40294169D01*
X56809379Y-40277155D01*
X56844749Y-40099333D01*
X56844750Y-40099330D01*
X56844750Y-39900668D01*
X56844749Y-39900666D01*
X56805996Y-39705839D01*
X56805993Y-39705831D01*
X56739583Y-39545500D01*
X56729975Y-39522304D01*
X56729974Y-39522303D01*
X56729972Y-39522297D01*
X56729800Y-39522040D01*
X56619607Y-39357123D01*
X56619601Y-39357115D01*
X56107472Y-38844986D01*
X57786251Y-38844986D01*
X57796744Y-38947697D01*
X57851891Y-39114119D01*
X57851893Y-39114124D01*
X57943934Y-39263345D01*
X58067904Y-39387315D01*
X58217125Y-39479356D01*
X58217130Y-39479358D01*
X58383552Y-39534505D01*
X58383559Y-39534506D01*
X58486269Y-39544999D01*
X58536249Y-39544998D01*
X58536250Y-39544998D01*
X58536250Y-38570000D01*
X57786251Y-38570000D01*
X57786251Y-38844986D01*
X56107472Y-38844986D01*
X55142031Y-37879545D01*
X55057499Y-37795013D01*
X57786250Y-37795013D01*
X57786250Y-38070000D01*
X58536250Y-38070000D01*
X58536250Y-37095000D01*
X58536249Y-37094999D01*
X58486279Y-37095000D01*
X58486261Y-37095001D01*
X58383552Y-37105494D01*
X58217130Y-37160641D01*
X58217125Y-37160643D01*
X58067904Y-37252684D01*
X57943934Y-37376654D01*
X57851893Y-37525875D01*
X57851891Y-37525880D01*
X57796744Y-37692302D01*
X57796743Y-37692309D01*
X57786250Y-37795013D01*
X55057499Y-37795013D01*
X52682471Y-35419986D01*
X57811251Y-35419986D01*
X57821744Y-35522697D01*
X57876891Y-35689119D01*
X57876893Y-35689124D01*
X57968934Y-35838345D01*
X58092904Y-35962315D01*
X58242125Y-36054356D01*
X58242130Y-36054358D01*
X58408552Y-36109505D01*
X58408559Y-36109506D01*
X58511269Y-36119999D01*
X58573749Y-36119998D01*
X58573750Y-36119998D01*
X58573750Y-35170000D01*
X57811251Y-35170000D01*
X57811251Y-35419986D01*
X52682471Y-35419986D01*
X52468804Y-35206319D01*
X51891634Y-34629149D01*
X51891630Y-34629146D01*
X51726460Y-34518782D01*
X51726447Y-34518775D01*
X51695196Y-34505831D01*
X51695195Y-34505831D01*
X51542919Y-34442756D01*
X51542911Y-34442754D01*
X51348083Y-34404000D01*
X51348079Y-34404000D01*
X50248495Y-34404000D01*
X50181456Y-34384315D01*
X50135701Y-34331511D01*
X50125757Y-34262353D01*
X50142957Y-34214903D01*
X50168899Y-34172844D01*
X50171064Y-34169334D01*
X50226249Y-34002797D01*
X50236750Y-33900009D01*
X50236749Y-33864595D01*
X50245393Y-33835155D01*
X50251917Y-33805167D01*
X50255669Y-33800153D01*
X50256432Y-33797558D01*
X50273058Y-33776924D01*
X50405166Y-33644817D01*
X50466489Y-33611334D01*
X50492846Y-33608500D01*
X58092083Y-33608500D01*
X58159122Y-33628185D01*
X58204877Y-33680989D01*
X58214821Y-33750147D01*
X58185796Y-33813703D01*
X58157180Y-33838039D01*
X58092904Y-33877684D01*
X57968934Y-34001654D01*
X57876893Y-34150875D01*
X57876891Y-34150880D01*
X57821744Y-34317302D01*
X57821743Y-34317309D01*
X57811250Y-34420013D01*
X57811250Y-34670000D01*
X58699750Y-34670000D01*
X58766789Y-34689685D01*
X58812544Y-34742489D01*
X58823750Y-34794000D01*
X58823750Y-34920000D01*
X58949750Y-34920000D01*
X59016789Y-34939685D01*
X59062544Y-34992489D01*
X59073750Y-35044000D01*
X59073750Y-36119999D01*
X59136222Y-36119999D01*
X59136236Y-36119998D01*
X59238947Y-36109505D01*
X59405369Y-36054358D01*
X59405380Y-36054353D01*
X59488653Y-36002990D01*
X59556045Y-35984549D01*
X59622709Y-36005471D01*
X59667479Y-36059113D01*
X59677750Y-36108528D01*
X59677750Y-37137311D01*
X59658065Y-37204350D01*
X59605261Y-37250105D01*
X59536103Y-37260049D01*
X59488654Y-37242850D01*
X59355378Y-37160645D01*
X59355369Y-37160641D01*
X59188947Y-37105494D01*
X59188940Y-37105493D01*
X59086236Y-37095000D01*
X59036250Y-37095000D01*
X59036250Y-39544999D01*
X59086222Y-39544999D01*
X59086236Y-39544998D01*
X59188947Y-39534505D01*
X59355369Y-39479358D01*
X59355374Y-39479356D01*
X59504595Y-39387315D01*
X59628568Y-39263342D01*
X59630415Y-39260348D01*
X59632219Y-39258724D01*
X59633048Y-39257677D01*
X59633226Y-39257818D01*
X59682360Y-39213621D01*
X59751323Y-39202396D01*
X59815406Y-39230236D01*
X59841493Y-39260341D01*
X59843538Y-39263656D01*
X59967594Y-39387712D01*
X60116916Y-39479814D01*
X60283453Y-39534999D01*
X60386241Y-39545500D01*
X60434152Y-39545499D01*
X60501190Y-39565182D01*
X60521834Y-39581818D01*
X62952335Y-42012319D01*
X62985820Y-42073642D01*
X62980836Y-42143334D01*
X62938964Y-42199267D01*
X62873500Y-42223684D01*
X62864654Y-42224000D01*
X58204416Y-42224000D01*
X58009588Y-42262754D01*
X58009580Y-42262756D01*
X57964940Y-42281247D01*
X57964939Y-42281247D01*
X57826045Y-42338778D01*
X57826042Y-42338779D01*
X57660869Y-42449145D01*
X57660865Y-42449148D01*
X56054835Y-44055181D01*
X55993512Y-44088666D01*
X55967154Y-44091500D01*
X26775346Y-44091500D01*
X26708307Y-44071815D01*
X26687665Y-44055181D01*
X25031069Y-42398585D01*
X24997584Y-42337262D01*
X24994750Y-42310904D01*
X24994750Y-38285214D01*
X25014435Y-38218175D01*
X25031069Y-38197533D01*
X25080103Y-38148499D01*
X25142036Y-38086566D01*
X25276467Y-37901538D01*
X25380298Y-37697758D01*
X25381467Y-37694161D01*
X25450971Y-37480249D01*
X25450971Y-37480248D01*
X25450972Y-37480245D01*
X25486750Y-37254354D01*
X25486750Y-37025646D01*
X25450972Y-36799755D01*
X25450971Y-36799751D01*
X25450971Y-36799750D01*
X25380299Y-36582244D01*
X25335754Y-36494819D01*
X25276467Y-36378462D01*
X25142036Y-36193434D01*
X24980316Y-36031714D01*
X24895384Y-35970007D01*
X24852720Y-35914678D01*
X24846741Y-35845064D01*
X24879347Y-35783269D01*
X24895387Y-35769371D01*
X24979989Y-35707905D01*
X25141652Y-35546242D01*
X25276038Y-35361276D01*
X25379832Y-35157570D01*
X25450484Y-34940128D01*
X25464759Y-34850000D01*
X24476998Y-34850000D01*
X24498768Y-34812292D01*
X24536250Y-34672409D01*
X24536250Y-34527591D01*
X24498768Y-34387708D01*
X24476998Y-34350000D01*
X25464759Y-34350000D01*
X25450484Y-34259871D01*
X25379832Y-34042429D01*
X25276038Y-33838723D01*
X25143238Y-33655940D01*
X25119758Y-33590133D01*
X25135583Y-33522079D01*
X25185689Y-33473384D01*
X25200216Y-33466875D01*
X25228581Y-33456296D01*
X25343796Y-33370046D01*
X25430046Y-33254831D01*
X25480341Y-33119983D01*
X25486750Y-33060373D01*
X25486749Y-31059628D01*
X25480341Y-31000017D01*
X25430921Y-30867516D01*
X25430047Y-30865171D01*
X25430043Y-30865164D01*
X25343797Y-30749955D01*
X25343794Y-30749952D01*
X25228585Y-30663706D01*
X25228578Y-30663702D01*
X25093733Y-30613409D01*
X25092989Y-30613329D01*
X25092449Y-30613105D01*
X25086188Y-30611626D01*
X25086427Y-30610610D01*
X25028439Y-30586588D01*
X24988594Y-30529193D01*
X24982250Y-30490040D01*
X24982250Y-27530585D01*
X24988544Y-27491581D01*
X24989047Y-27490063D01*
X25026249Y-27377797D01*
X25036750Y-27275009D01*
X25036749Y-27014594D01*
X25056433Y-26947556D01*
X25073063Y-26926919D01*
X25517797Y-26482187D01*
X25624069Y-26375916D01*
X25685392Y-26342431D01*
X25755084Y-26347415D01*
X25811017Y-26389287D01*
X25835434Y-26454751D01*
X25835750Y-26463597D01*
X25835750Y-27275001D01*
X25835751Y-27275018D01*
X25846250Y-27377796D01*
X25846251Y-27377799D01*
X25901435Y-27544331D01*
X25901437Y-27544336D01*
X25929602Y-27589998D01*
X25993538Y-27693656D01*
X26117594Y-27817712D01*
X26266916Y-27909814D01*
X26433453Y-27964999D01*
X26536241Y-27975500D01*
X26796653Y-27975499D01*
X26863692Y-27995183D01*
X26884334Y-28011818D01*
X27391431Y-28518915D01*
X27424916Y-28580238D01*
X27427750Y-28606596D01*
X27427750Y-34449333D01*
X27466504Y-34644161D01*
X27466507Y-34644173D01*
X27484173Y-34686821D01*
X27542527Y-34827700D01*
X27542532Y-34827710D01*
X27652896Y-34992880D01*
X27652899Y-34992884D01*
X28922334Y-36262319D01*
X28955819Y-36323642D01*
X28950835Y-36393334D01*
X28922334Y-36437681D01*
X28402755Y-36957261D01*
X27907119Y-37452897D01*
X27860687Y-37499329D01*
X27766645Y-37593370D01*
X27656282Y-37758539D01*
X27656277Y-37758548D01*
X27580256Y-37942080D01*
X27580254Y-37942088D01*
X27541500Y-38136916D01*
X27541500Y-42699328D01*
X27547118Y-42727575D01*
X27549500Y-42751764D01*
X27549500Y-43125001D01*
X27549501Y-43125019D01*
X27560000Y-43227796D01*
X27560001Y-43227799D01*
X27564999Y-43242881D01*
X27615186Y-43394334D01*
X27707288Y-43543656D01*
X27831344Y-43667712D01*
X27980666Y-43759814D01*
X28147203Y-43814999D01*
X28249991Y-43825500D01*
X28850008Y-43825499D01*
X28850016Y-43825498D01*
X28850019Y-43825498D01*
X28906302Y-43819748D01*
X28952797Y-43814999D01*
X29119334Y-43759814D01*
X29268656Y-43667712D01*
X29392712Y-43543656D01*
X29394752Y-43540347D01*
X29396745Y-43538555D01*
X29397193Y-43537989D01*
X29397289Y-43538065D01*
X29446694Y-43493623D01*
X29515656Y-43482395D01*
X29579740Y-43510234D01*
X29605829Y-43540339D01*
X29607681Y-43543341D01*
X29607683Y-43543344D01*
X29731654Y-43667315D01*
X29880875Y-43759356D01*
X29880880Y-43759358D01*
X30047302Y-43814505D01*
X30047309Y-43814506D01*
X30150019Y-43824999D01*
X30700000Y-43824999D01*
X30749972Y-43824999D01*
X30749986Y-43824998D01*
X30852697Y-43814505D01*
X31019119Y-43759358D01*
X31019124Y-43759356D01*
X31168345Y-43667315D01*
X31292315Y-43543345D01*
X31384356Y-43394124D01*
X31384358Y-43394119D01*
X31439505Y-43227697D01*
X31439506Y-43227690D01*
X31449999Y-43124986D01*
X31450000Y-43124973D01*
X31450000Y-42850000D01*
X30700000Y-42850000D01*
X30700000Y-43824999D01*
X30150019Y-43824999D01*
X30199999Y-43824998D01*
X30200000Y-43824998D01*
X30200000Y-42350000D01*
X30700000Y-42350000D01*
X31449999Y-42350000D01*
X31449999Y-42075028D01*
X31449998Y-42075013D01*
X31439505Y-41972302D01*
X31384358Y-41805880D01*
X31384356Y-41805875D01*
X31292315Y-41656654D01*
X31168345Y-41532684D01*
X31019124Y-41440643D01*
X31019119Y-41440641D01*
X30852697Y-41385494D01*
X30852690Y-41385493D01*
X30749986Y-41375000D01*
X30700000Y-41375000D01*
X30700000Y-42350000D01*
X30200000Y-42350000D01*
X30200000Y-41375000D01*
X30199999Y-41374999D01*
X30150029Y-41375000D01*
X30150011Y-41375001D01*
X30047302Y-41385494D01*
X29880880Y-41440641D01*
X29880871Y-41440645D01*
X29747596Y-41522850D01*
X29680204Y-41541290D01*
X29613540Y-41520367D01*
X29568771Y-41466725D01*
X29558500Y-41417311D01*
X29558500Y-38705345D01*
X29578185Y-38638306D01*
X29594814Y-38617669D01*
X30825665Y-37386817D01*
X30886988Y-37353333D01*
X30913346Y-37350499D01*
X31036252Y-37350499D01*
X31036258Y-37350499D01*
X31139047Y-37339999D01*
X31305584Y-37284814D01*
X31454906Y-37192712D01*
X31516069Y-37131549D01*
X31577392Y-37098064D01*
X31647084Y-37103048D01*
X31703017Y-37144920D01*
X31727434Y-37210384D01*
X31727750Y-37219230D01*
X31727750Y-37499333D01*
X31766504Y-37694161D01*
X31766506Y-37694169D01*
X31842527Y-37877701D01*
X31842532Y-37877710D01*
X31952896Y-38042880D01*
X31952899Y-38042884D01*
X35693365Y-41783351D01*
X35693369Y-41783354D01*
X35858539Y-41893718D01*
X35858541Y-41893719D01*
X35858546Y-41893722D01*
X35981436Y-41944624D01*
X35981439Y-41944625D01*
X35981440Y-41944626D01*
X36042076Y-41969742D01*
X36042081Y-41969744D01*
X36236916Y-42008499D01*
X36236920Y-42008500D01*
X36236921Y-42008500D01*
X36435579Y-42008500D01*
X46911751Y-42008500D01*
X46978790Y-42028185D01*
X47024545Y-42080989D01*
X47035751Y-42132500D01*
X47035751Y-42547876D01*
X47042158Y-42607483D01*
X47092452Y-42742328D01*
X47092456Y-42742335D01*
X47178702Y-42857544D01*
X47178705Y-42857547D01*
X47293914Y-42943793D01*
X47293921Y-42943797D01*
X47428767Y-42994091D01*
X47428766Y-42994091D01*
X47435694Y-42994835D01*
X47488377Y-43000500D01*
X50584122Y-43000499D01*
X50643733Y-42994091D01*
X50778581Y-42943796D01*
X50893796Y-42857546D01*
X50980046Y-42742331D01*
X51030341Y-42607483D01*
X51036750Y-42547873D01*
X51036749Y-39452128D01*
X51030341Y-39392517D01*
X51019224Y-39362712D01*
X50980047Y-39257671D01*
X50980043Y-39257664D01*
X50893797Y-39142455D01*
X50893794Y-39142452D01*
X50778585Y-39056206D01*
X50778578Y-39056202D01*
X50643732Y-39005908D01*
X50643733Y-39005908D01*
X50584133Y-38999501D01*
X50584131Y-38999500D01*
X50584123Y-38999500D01*
X50584114Y-38999500D01*
X47488379Y-38999500D01*
X47488373Y-38999501D01*
X47428766Y-39005908D01*
X47293921Y-39056202D01*
X47293914Y-39056206D01*
X47178705Y-39142452D01*
X47178702Y-39142455D01*
X47092456Y-39257664D01*
X47092452Y-39257671D01*
X47042158Y-39392517D01*
X47040174Y-39410976D01*
X47035751Y-39452123D01*
X47035750Y-39452135D01*
X47035750Y-39867500D01*
X47016065Y-39934539D01*
X46963261Y-39980294D01*
X46911750Y-39991500D01*
X36805347Y-39991500D01*
X36738308Y-39971815D01*
X36717666Y-39955181D01*
X33781069Y-37018584D01*
X33747584Y-36957261D01*
X33744750Y-36930903D01*
X33744750Y-35504230D01*
X33764435Y-35437191D01*
X33781069Y-35416549D01*
X33814383Y-35383235D01*
X33878962Y-35318656D01*
X33971064Y-35169334D01*
X34026249Y-35002797D01*
X34036750Y-34900009D01*
X34036749Y-34299992D01*
X34026249Y-34197203D01*
X33971064Y-34030666D01*
X33878962Y-33881344D01*
X33754906Y-33757288D01*
X33650211Y-33692712D01*
X33605586Y-33665187D01*
X33605581Y-33665185D01*
X33568948Y-33653046D01*
X33439047Y-33610001D01*
X33439045Y-33610000D01*
X33336266Y-33599500D01*
X33336259Y-33599500D01*
X32888013Y-33599500D01*
X32863823Y-33597118D01*
X32835579Y-33591500D01*
X32636921Y-33591500D01*
X32611254Y-33596604D01*
X32608675Y-33597118D01*
X32584486Y-33599500D01*
X32136248Y-33599500D01*
X32136230Y-33599501D01*
X32033453Y-33610000D01*
X32033450Y-33610001D01*
X31866918Y-33665185D01*
X31866909Y-33665189D01*
X31751332Y-33736478D01*
X31683940Y-33754918D01*
X31617276Y-33733995D01*
X31572507Y-33680353D01*
X31563846Y-33611022D01*
X31580695Y-33565844D01*
X31671064Y-33419334D01*
X31726249Y-33252797D01*
X31736750Y-33150009D01*
X31736749Y-32710730D01*
X38236251Y-32710730D01*
X38246732Y-32813332D01*
X38246733Y-32813335D01*
X38301821Y-32979578D01*
X38301823Y-32979583D01*
X38393766Y-33128645D01*
X38517604Y-33252483D01*
X38666666Y-33344426D01*
X38666671Y-33344428D01*
X38832916Y-33399516D01*
X38832923Y-33399517D01*
X38935527Y-33409999D01*
X39186249Y-33409999D01*
X39686250Y-33409999D01*
X39936964Y-33409999D01*
X39936980Y-33409998D01*
X40039582Y-33399517D01*
X40039585Y-33399516D01*
X40205828Y-33344428D01*
X40205833Y-33344426D01*
X40354895Y-33252483D01*
X40478733Y-33128645D01*
X40570676Y-32979583D01*
X40570678Y-32979578D01*
X40625766Y-32813333D01*
X40625767Y-32813326D01*
X40636249Y-32710728D01*
X40636250Y-32710715D01*
X40636250Y-32310000D01*
X39686250Y-32310000D01*
X39686250Y-33409999D01*
X39186249Y-33409999D01*
X39186250Y-33409998D01*
X39186250Y-32310000D01*
X38236251Y-32310000D01*
X38236251Y-32710730D01*
X31736749Y-32710730D01*
X31736749Y-32549992D01*
X31736455Y-32547118D01*
X31726249Y-32447203D01*
X31726248Y-32447200D01*
X31706017Y-32386148D01*
X31671064Y-32280666D01*
X31578962Y-32131344D01*
X31461540Y-32013922D01*
X39086250Y-32013922D01*
X39086250Y-32106078D01*
X39110102Y-32195095D01*
X39156180Y-32274905D01*
X39221345Y-32340070D01*
X39301155Y-32386148D01*
X39390172Y-32410000D01*
X39482328Y-32410000D01*
X39571345Y-32386148D01*
X39651155Y-32340070D01*
X39716320Y-32274905D01*
X39762398Y-32195095D01*
X39786250Y-32106078D01*
X39786250Y-32013922D01*
X39762398Y-31924905D01*
X39716320Y-31845095D01*
X39681225Y-31810000D01*
X39686250Y-31810000D01*
X40636249Y-31810000D01*
X40636249Y-31409286D01*
X40636248Y-31409269D01*
X40625767Y-31306667D01*
X40625766Y-31306664D01*
X40570678Y-31140421D01*
X40570676Y-31140416D01*
X40478733Y-30991354D01*
X40354895Y-30867516D01*
X40205833Y-30775573D01*
X40205828Y-30775571D01*
X40039583Y-30720483D01*
X40039576Y-30720482D01*
X39936978Y-30710000D01*
X39686250Y-30710000D01*
X39686250Y-31810000D01*
X39681225Y-31810000D01*
X39651155Y-31779930D01*
X39571345Y-31733852D01*
X39482328Y-31710000D01*
X39390172Y-31710000D01*
X39301155Y-31733852D01*
X39221345Y-31779930D01*
X39156180Y-31845095D01*
X39110102Y-31924905D01*
X39086250Y-32013922D01*
X31461540Y-32013922D01*
X31454906Y-32007288D01*
X31305584Y-31915186D01*
X31139047Y-31860001D01*
X31139045Y-31860000D01*
X31036260Y-31849500D01*
X29836248Y-31849500D01*
X29836231Y-31849501D01*
X29733453Y-31860000D01*
X29733450Y-31860001D01*
X29607754Y-31901653D01*
X29537925Y-31904055D01*
X29477884Y-31868323D01*
X29446691Y-31805802D01*
X29444750Y-31783947D01*
X29444750Y-31409271D01*
X38236250Y-31409271D01*
X38236250Y-31810000D01*
X39186250Y-31810000D01*
X39186250Y-30710000D01*
X38935537Y-30710000D01*
X38935518Y-30710001D01*
X38832917Y-30720482D01*
X38832914Y-30720483D01*
X38666671Y-30775571D01*
X38666666Y-30775573D01*
X38517604Y-30867516D01*
X38393766Y-30991354D01*
X38301823Y-31140416D01*
X38301821Y-31140421D01*
X38246733Y-31306666D01*
X38246732Y-31306673D01*
X38236250Y-31409271D01*
X29444750Y-31409271D01*
X29444750Y-28168905D01*
X47036250Y-28168905D01*
X47036250Y-28431094D01*
X47070470Y-28691009D01*
X47070472Y-28691020D01*
X47138325Y-28944255D01*
X47238654Y-29186471D01*
X47238659Y-29186482D01*
X47369738Y-29413516D01*
X47369744Y-29413524D01*
X47456330Y-29526365D01*
X48028366Y-28954329D01*
X48120941Y-29081748D01*
X48254502Y-29215309D01*
X48381919Y-29307882D01*
X47809883Y-29879917D01*
X47809883Y-29879918D01*
X47922725Y-29966505D01*
X47922733Y-29966511D01*
X48149767Y-30097590D01*
X48149778Y-30097595D01*
X48391994Y-30197924D01*
X48645229Y-30265777D01*
X48645240Y-30265779D01*
X48905155Y-30299999D01*
X48905170Y-30300000D01*
X49167330Y-30300000D01*
X49167344Y-30299999D01*
X49427259Y-30265779D01*
X49427270Y-30265777D01*
X49680505Y-30197924D01*
X49922721Y-30097595D01*
X49922732Y-30097590D01*
X50149766Y-29966511D01*
X50149784Y-29966499D01*
X50262615Y-29879919D01*
X50262615Y-29879917D01*
X49690580Y-29307882D01*
X49817998Y-29215309D01*
X49951559Y-29081748D01*
X50044132Y-28954330D01*
X50616167Y-29526365D01*
X50616169Y-29526365D01*
X50702749Y-29413534D01*
X50702761Y-29413516D01*
X50833840Y-29186482D01*
X50833845Y-29186471D01*
X50934174Y-28944255D01*
X51002027Y-28691020D01*
X51002029Y-28691009D01*
X51036249Y-28431094D01*
X51036250Y-28431080D01*
X51036250Y-28168919D01*
X51036249Y-28168905D01*
X51002029Y-27908990D01*
X51002027Y-27908979D01*
X50934174Y-27655744D01*
X50833845Y-27413528D01*
X50833840Y-27413517D01*
X50702761Y-27186483D01*
X50702755Y-27186475D01*
X50616168Y-27073633D01*
X50616167Y-27073633D01*
X50044132Y-27645668D01*
X49951559Y-27518252D01*
X49817998Y-27384691D01*
X49690578Y-27292116D01*
X50262615Y-26720080D01*
X50149774Y-26633494D01*
X50149766Y-26633488D01*
X49922732Y-26502409D01*
X49922721Y-26502404D01*
X49680505Y-26402075D01*
X49427270Y-26334222D01*
X49427259Y-26334220D01*
X49167344Y-26300000D01*
X48905155Y-26300000D01*
X48645240Y-26334220D01*
X48645229Y-26334222D01*
X48391994Y-26402075D01*
X48149778Y-26502404D01*
X48149767Y-26502409D01*
X47922721Y-26633496D01*
X47809883Y-26720079D01*
X47809883Y-26720080D01*
X48381919Y-27292116D01*
X48254502Y-27384691D01*
X48120941Y-27518252D01*
X48028366Y-27645669D01*
X47456330Y-27073633D01*
X47456329Y-27073633D01*
X47369746Y-27186471D01*
X47238659Y-27413517D01*
X47238654Y-27413528D01*
X47138325Y-27655744D01*
X47070472Y-27908979D01*
X47070470Y-27908990D01*
X47036250Y-28168905D01*
X29444750Y-28168905D01*
X29444750Y-28038170D01*
X29444749Y-28038166D01*
X29426505Y-27946446D01*
X29405994Y-27843331D01*
X29329971Y-27659796D01*
X29329970Y-27659795D01*
X29329967Y-27659789D01*
X29219604Y-27494620D01*
X29150927Y-27425943D01*
X29079131Y-27354147D01*
X27998068Y-26273084D01*
X27964583Y-26211761D01*
X27961749Y-26185403D01*
X27961749Y-25924998D01*
X27961748Y-25924981D01*
X27951249Y-25822203D01*
X27951248Y-25822200D01*
X27932459Y-25765500D01*
X27896064Y-25655666D01*
X27803962Y-25506344D01*
X27679906Y-25382288D01*
X27578922Y-25320001D01*
X27530586Y-25290187D01*
X27530581Y-25290185D01*
X27512652Y-25284244D01*
X27364047Y-25235001D01*
X27364045Y-25235000D01*
X27261260Y-25224500D01*
X26536248Y-25224500D01*
X26536230Y-25224501D01*
X26433453Y-25235000D01*
X26433450Y-25235001D01*
X26266918Y-25290185D01*
X26266909Y-25290189D01*
X26133846Y-25372263D01*
X26066454Y-25390703D01*
X25999790Y-25369780D01*
X25955021Y-25316138D01*
X25944750Y-25266724D01*
X25944750Y-24016717D01*
X25964435Y-23949678D01*
X26017239Y-23903923D01*
X26056148Y-23893359D01*
X26089047Y-23889999D01*
X26255584Y-23834814D01*
X26404906Y-23742712D01*
X26528962Y-23618656D01*
X26621064Y-23469334D01*
X26676249Y-23302797D01*
X26686750Y-23200009D01*
X26686750Y-23199986D01*
X27186251Y-23199986D01*
X27196744Y-23302697D01*
X27251891Y-23469119D01*
X27251893Y-23469124D01*
X27343934Y-23618345D01*
X27467904Y-23742315D01*
X27617125Y-23834356D01*
X27617130Y-23834358D01*
X27783552Y-23889505D01*
X27783559Y-23889506D01*
X27886269Y-23899999D01*
X28686249Y-23899999D01*
X29186250Y-23899999D01*
X29986222Y-23899999D01*
X29986236Y-23899998D01*
X30088947Y-23889505D01*
X30255369Y-23834358D01*
X30255374Y-23834356D01*
X30404595Y-23742315D01*
X30528565Y-23618345D01*
X30620606Y-23469124D01*
X30620608Y-23469119D01*
X30634243Y-23427973D01*
X58385750Y-23427973D01*
X58385750Y-23672026D01*
X58421857Y-23899999D01*
X58423929Y-23913076D01*
X58499346Y-24145185D01*
X58536253Y-24217620D01*
X58610146Y-24362642D01*
X58753589Y-24560076D01*
X58753593Y-24560081D01*
X58926168Y-24732656D01*
X58926173Y-24732660D01*
X59098386Y-24857779D01*
X59123611Y-24876106D01*
X59341065Y-24986904D01*
X59573174Y-25062321D01*
X59814223Y-25100500D01*
X59814224Y-25100500D01*
X60058276Y-25100500D01*
X60058277Y-25100500D01*
X60299326Y-25062321D01*
X60531435Y-24986904D01*
X60748889Y-24876106D01*
X60946333Y-24732655D01*
X61118905Y-24560083D01*
X61262356Y-24362639D01*
X61373154Y-24145185D01*
X61448571Y-23913076D01*
X61486750Y-23672027D01*
X61486750Y-23427973D01*
X61448571Y-23186924D01*
X61373154Y-22954815D01*
X61262356Y-22737361D01*
X61234222Y-22698638D01*
X61118910Y-22539923D01*
X61118906Y-22539918D01*
X60946331Y-22367343D01*
X60946326Y-22367339D01*
X60748892Y-22223896D01*
X60748891Y-22223895D01*
X60748889Y-22223894D01*
X60531435Y-22113096D01*
X60299326Y-22037679D01*
X60299324Y-22037678D01*
X60299322Y-22037678D01*
X60131019Y-22011021D01*
X60058277Y-21999500D01*
X59814223Y-21999500D01*
X59758343Y-22008350D01*
X59573177Y-22037678D01*
X59341062Y-22113097D01*
X59123607Y-22223896D01*
X58926173Y-22367339D01*
X58926168Y-22367343D01*
X58753593Y-22539918D01*
X58753589Y-22539923D01*
X58610146Y-22737357D01*
X58499347Y-22954812D01*
X58423928Y-23186927D01*
X58385750Y-23427973D01*
X30634243Y-23427973D01*
X30648782Y-23384097D01*
X30675755Y-23302697D01*
X30675756Y-23302690D01*
X30686249Y-23199986D01*
X30686250Y-23199973D01*
X30686250Y-22750000D01*
X29186250Y-22750000D01*
X29186250Y-23899999D01*
X28686249Y-23899999D01*
X28686250Y-23899998D01*
X28686250Y-22750000D01*
X27186251Y-22750000D01*
X27186251Y-23199986D01*
X26686750Y-23199986D01*
X26686749Y-22367345D01*
X26686749Y-21800013D01*
X27186250Y-21800013D01*
X27186250Y-22250000D01*
X28686250Y-22250000D01*
X29186250Y-22250000D01*
X30686249Y-22250000D01*
X30686249Y-21800028D01*
X30686248Y-21800013D01*
X30675755Y-21697302D01*
X30620608Y-21530880D01*
X30620606Y-21530875D01*
X30528565Y-21381654D01*
X30404595Y-21257684D01*
X30255374Y-21165643D01*
X30255369Y-21165641D01*
X30088947Y-21110494D01*
X30088940Y-21110493D01*
X29986236Y-21100000D01*
X29186250Y-21100000D01*
X29186250Y-22250000D01*
X28686250Y-22250000D01*
X28686250Y-21100000D01*
X27886278Y-21100000D01*
X27886262Y-21100001D01*
X27783552Y-21110494D01*
X27617130Y-21165641D01*
X27617125Y-21165643D01*
X27467904Y-21257684D01*
X27343934Y-21381654D01*
X27251893Y-21530875D01*
X27251891Y-21530880D01*
X27196744Y-21697302D01*
X27196743Y-21697309D01*
X27186250Y-21800013D01*
X26686749Y-21800013D01*
X26686749Y-21799998D01*
X26686748Y-21799981D01*
X26676249Y-21697203D01*
X26676248Y-21697200D01*
X26621064Y-21530666D01*
X26528962Y-21381344D01*
X26404906Y-21257288D01*
X26255584Y-21165186D01*
X26089047Y-21110001D01*
X26089045Y-21110000D01*
X25986260Y-21099500D01*
X23886248Y-21099500D01*
X23886231Y-21099501D01*
X23783453Y-21110000D01*
X23783450Y-21110001D01*
X23616918Y-21165185D01*
X23616913Y-21165187D01*
X23467592Y-21257289D01*
X23343539Y-21381342D01*
X23251437Y-21530663D01*
X23251435Y-21530668D01*
X23251365Y-21530880D01*
X23196251Y-21697203D01*
X23196251Y-21697204D01*
X23196250Y-21697204D01*
X23185750Y-21799983D01*
X23185750Y-23200001D01*
X23185751Y-23200018D01*
X23196250Y-23302796D01*
X23196251Y-23302799D01*
X23223191Y-23384097D01*
X23251436Y-23469334D01*
X23343538Y-23618656D01*
X23467594Y-23742712D01*
X23616916Y-23834814D01*
X23783453Y-23889999D01*
X23816342Y-23893359D01*
X23816352Y-23893360D01*
X23881044Y-23919756D01*
X23921195Y-23976937D01*
X23927750Y-24016718D01*
X23927750Y-25100500D01*
X23908065Y-25167539D01*
X23855261Y-25213294D01*
X23803751Y-25224500D01*
X23611249Y-25224500D01*
X23611230Y-25224501D01*
X23508453Y-25235000D01*
X23508450Y-25235001D01*
X23341918Y-25290185D01*
X23341913Y-25290187D01*
X23192592Y-25382289D01*
X23068539Y-25506342D01*
X22976437Y-25655663D01*
X22976436Y-25655666D01*
X22921251Y-25822203D01*
X22921251Y-25822204D01*
X22921250Y-25822204D01*
X22910750Y-25924983D01*
X22910750Y-27275001D01*
X22910751Y-27275018D01*
X22921250Y-27377796D01*
X22958956Y-27491581D01*
X22965250Y-27530586D01*
X22965250Y-30495057D01*
X22945565Y-30562096D01*
X22892761Y-30607851D01*
X22884583Y-30611239D01*
X22743921Y-30663702D01*
X22743914Y-30663706D01*
X22628705Y-30749952D01*
X22628702Y-30749955D01*
X22542456Y-30865164D01*
X22542452Y-30865171D01*
X22492158Y-31000017D01*
X22485751Y-31059616D01*
X22485751Y-31059623D01*
X22485750Y-31059635D01*
X20946750Y-31059635D01*
X20946750Y-19534427D01*
X20947066Y-19525581D01*
X20961380Y-19325443D01*
X20961381Y-19325440D01*
X20961380Y-19325436D01*
X20963896Y-19307938D01*
X21005607Y-19116198D01*
X21010583Y-19099248D01*
X21079161Y-18915385D01*
X21086509Y-18899298D01*
X21149071Y-18784723D01*
X21180541Y-18727089D01*
X21190095Y-18712221D01*
X21307702Y-18555119D01*
X21319270Y-18541769D01*
X21458019Y-18403020D01*
X21471373Y-18391448D01*
X21628471Y-18273845D01*
X21643339Y-18264291D01*
X21815548Y-18170258D01*
X21831635Y-18162911D01*
X22015498Y-18094333D01*
X22032449Y-18089356D01*
X22224188Y-18047646D01*
X22241686Y-18045130D01*
X22441832Y-18030816D01*
X22450678Y-18030500D01*
X22512142Y-18030500D01*
X109361718Y-18030500D01*
X109361746Y-18030501D01*
G37*
%TD.AperFunction*%
%TD*%
M02*
