%TF.GenerationSoftware,KiCad,Pcbnew,9.0.5*%
%TF.CreationDate,2025-12-07T13:39:54+02:00*%
%TF.ProjectId,scheme,73636865-6d65-42e6-9b69-6361645f7063,rev?*%
%TF.SameCoordinates,Original*%
%TF.FileFunction,Legend,Top*%
%TF.FilePolarity,Positive*%
%FSLAX46Y46*%
G04 Gerber Fmt 4.6, Leading zero omitted, Abs format (unit mm)*
G04 Created by KiCad (PCBNEW 9.0.5) date 2025-12-07 13:39:54*
%MOMM*%
%LPD*%
G01*
G04 APERTURE LIST*
%ADD10C,0.150000*%
%ADD11C,0.120000*%
G04 APERTURE END LIST*
D10*
X26198155Y-20454819D02*
X26198155Y-19454819D01*
X26198155Y-19454819D02*
X26436250Y-19454819D01*
X26436250Y-19454819D02*
X26579107Y-19502438D01*
X26579107Y-19502438D02*
X26674345Y-19597676D01*
X26674345Y-19597676D02*
X26721964Y-19692914D01*
X26721964Y-19692914D02*
X26769583Y-19883390D01*
X26769583Y-19883390D02*
X26769583Y-20026247D01*
X26769583Y-20026247D02*
X26721964Y-20216723D01*
X26721964Y-20216723D02*
X26674345Y-20311961D01*
X26674345Y-20311961D02*
X26579107Y-20407200D01*
X26579107Y-20407200D02*
X26436250Y-20454819D01*
X26436250Y-20454819D02*
X26198155Y-20454819D01*
X27626726Y-19454819D02*
X27436250Y-19454819D01*
X27436250Y-19454819D02*
X27341012Y-19502438D01*
X27341012Y-19502438D02*
X27293393Y-19550057D01*
X27293393Y-19550057D02*
X27198155Y-19692914D01*
X27198155Y-19692914D02*
X27150536Y-19883390D01*
X27150536Y-19883390D02*
X27150536Y-20264342D01*
X27150536Y-20264342D02*
X27198155Y-20359580D01*
X27198155Y-20359580D02*
X27245774Y-20407200D01*
X27245774Y-20407200D02*
X27341012Y-20454819D01*
X27341012Y-20454819D02*
X27531488Y-20454819D01*
X27531488Y-20454819D02*
X27626726Y-20407200D01*
X27626726Y-20407200D02*
X27674345Y-20359580D01*
X27674345Y-20359580D02*
X27721964Y-20264342D01*
X27721964Y-20264342D02*
X27721964Y-20026247D01*
X27721964Y-20026247D02*
X27674345Y-19931009D01*
X27674345Y-19931009D02*
X27626726Y-19883390D01*
X27626726Y-19883390D02*
X27531488Y-19835771D01*
X27531488Y-19835771D02*
X27341012Y-19835771D01*
X27341012Y-19835771D02*
X27245774Y-19883390D01*
X27245774Y-19883390D02*
X27198155Y-19931009D01*
X27198155Y-19931009D02*
X27150536Y-20026247D01*
X53275830Y-46216666D02*
X53323450Y-46264285D01*
X53323450Y-46264285D02*
X53371069Y-46407142D01*
X53371069Y-46407142D02*
X53371069Y-46502380D01*
X53371069Y-46502380D02*
X53323450Y-46645237D01*
X53323450Y-46645237D02*
X53228211Y-46740475D01*
X53228211Y-46740475D02*
X53132973Y-46788094D01*
X53132973Y-46788094D02*
X52942497Y-46835713D01*
X52942497Y-46835713D02*
X52799640Y-46835713D01*
X52799640Y-46835713D02*
X52609164Y-46788094D01*
X52609164Y-46788094D02*
X52513926Y-46740475D01*
X52513926Y-46740475D02*
X52418688Y-46645237D01*
X52418688Y-46645237D02*
X52371069Y-46502380D01*
X52371069Y-46502380D02*
X52371069Y-46407142D01*
X52371069Y-46407142D02*
X52418688Y-46264285D01*
X52418688Y-46264285D02*
X52466307Y-46216666D01*
X52371069Y-45311904D02*
X52371069Y-45788094D01*
X52371069Y-45788094D02*
X52847259Y-45835713D01*
X52847259Y-45835713D02*
X52799640Y-45788094D01*
X52799640Y-45788094D02*
X52752021Y-45692856D01*
X52752021Y-45692856D02*
X52752021Y-45454761D01*
X52752021Y-45454761D02*
X52799640Y-45359523D01*
X52799640Y-45359523D02*
X52847259Y-45311904D01*
X52847259Y-45311904D02*
X52942497Y-45264285D01*
X52942497Y-45264285D02*
X53180592Y-45264285D01*
X53180592Y-45264285D02*
X53275830Y-45311904D01*
X53275830Y-45311904D02*
X53323450Y-45359523D01*
X53323450Y-45359523D02*
X53371069Y-45454761D01*
X53371069Y-45454761D02*
X53371069Y-45692856D01*
X53371069Y-45692856D02*
X53323450Y-45788094D01*
X53323450Y-45788094D02*
X53275830Y-45835713D01*
X101809583Y-33404819D02*
X101476250Y-32928628D01*
X101238155Y-33404819D02*
X101238155Y-32404819D01*
X101238155Y-32404819D02*
X101619107Y-32404819D01*
X101619107Y-32404819D02*
X101714345Y-32452438D01*
X101714345Y-32452438D02*
X101761964Y-32500057D01*
X101761964Y-32500057D02*
X101809583Y-32595295D01*
X101809583Y-32595295D02*
X101809583Y-32738152D01*
X101809583Y-32738152D02*
X101761964Y-32833390D01*
X101761964Y-32833390D02*
X101714345Y-32881009D01*
X101714345Y-32881009D02*
X101619107Y-32928628D01*
X101619107Y-32928628D02*
X101238155Y-32928628D01*
X102142917Y-32404819D02*
X102809583Y-32404819D01*
X102809583Y-32404819D02*
X102381012Y-33404819D01*
X101869583Y-41604819D02*
X101536250Y-41128628D01*
X101298155Y-41604819D02*
X101298155Y-40604819D01*
X101298155Y-40604819D02*
X101679107Y-40604819D01*
X101679107Y-40604819D02*
X101774345Y-40652438D01*
X101774345Y-40652438D02*
X101821964Y-40700057D01*
X101821964Y-40700057D02*
X101869583Y-40795295D01*
X101869583Y-40795295D02*
X101869583Y-40938152D01*
X101869583Y-40938152D02*
X101821964Y-41033390D01*
X101821964Y-41033390D02*
X101774345Y-41081009D01*
X101774345Y-41081009D02*
X101679107Y-41128628D01*
X101679107Y-41128628D02*
X101298155Y-41128628D01*
X102345774Y-41604819D02*
X102536250Y-41604819D01*
X102536250Y-41604819D02*
X102631488Y-41557200D01*
X102631488Y-41557200D02*
X102679107Y-41509580D01*
X102679107Y-41509580D02*
X102774345Y-41366723D01*
X102774345Y-41366723D02*
X102821964Y-41176247D01*
X102821964Y-41176247D02*
X102821964Y-40795295D01*
X102821964Y-40795295D02*
X102774345Y-40700057D01*
X102774345Y-40700057D02*
X102726726Y-40652438D01*
X102726726Y-40652438D02*
X102631488Y-40604819D01*
X102631488Y-40604819D02*
X102441012Y-40604819D01*
X102441012Y-40604819D02*
X102345774Y-40652438D01*
X102345774Y-40652438D02*
X102298155Y-40700057D01*
X102298155Y-40700057D02*
X102250536Y-40795295D01*
X102250536Y-40795295D02*
X102250536Y-41033390D01*
X102250536Y-41033390D02*
X102298155Y-41128628D01*
X102298155Y-41128628D02*
X102345774Y-41176247D01*
X102345774Y-41176247D02*
X102441012Y-41223866D01*
X102441012Y-41223866D02*
X102631488Y-41223866D01*
X102631488Y-41223866D02*
X102726726Y-41176247D01*
X102726726Y-41176247D02*
X102774345Y-41128628D01*
X102774345Y-41128628D02*
X102821964Y-41033390D01*
X31341069Y-49442857D02*
X30864878Y-49776190D01*
X31341069Y-50014285D02*
X30341069Y-50014285D01*
X30341069Y-50014285D02*
X30341069Y-49633333D01*
X30341069Y-49633333D02*
X30388688Y-49538095D01*
X30388688Y-49538095D02*
X30436307Y-49490476D01*
X30436307Y-49490476D02*
X30531545Y-49442857D01*
X30531545Y-49442857D02*
X30674402Y-49442857D01*
X30674402Y-49442857D02*
X30769640Y-49490476D01*
X30769640Y-49490476D02*
X30817259Y-49538095D01*
X30817259Y-49538095D02*
X30864878Y-49633333D01*
X30864878Y-49633333D02*
X30864878Y-50014285D01*
X31341069Y-48490476D02*
X31341069Y-49061904D01*
X31341069Y-48776190D02*
X30341069Y-48776190D01*
X30341069Y-48776190D02*
X30483926Y-48871428D01*
X30483926Y-48871428D02*
X30579164Y-48966666D01*
X30579164Y-48966666D02*
X30626783Y-49061904D01*
X30341069Y-47871428D02*
X30341069Y-47776190D01*
X30341069Y-47776190D02*
X30388688Y-47680952D01*
X30388688Y-47680952D02*
X30436307Y-47633333D01*
X30436307Y-47633333D02*
X30531545Y-47585714D01*
X30531545Y-47585714D02*
X30722021Y-47538095D01*
X30722021Y-47538095D02*
X30960116Y-47538095D01*
X30960116Y-47538095D02*
X31150592Y-47585714D01*
X31150592Y-47585714D02*
X31245830Y-47633333D01*
X31245830Y-47633333D02*
X31293450Y-47680952D01*
X31293450Y-47680952D02*
X31341069Y-47776190D01*
X31341069Y-47776190D02*
X31341069Y-47871428D01*
X31341069Y-47871428D02*
X31293450Y-47966666D01*
X31293450Y-47966666D02*
X31245830Y-48014285D01*
X31245830Y-48014285D02*
X31150592Y-48061904D01*
X31150592Y-48061904D02*
X30960116Y-48109523D01*
X30960116Y-48109523D02*
X30722021Y-48109523D01*
X30722021Y-48109523D02*
X30531545Y-48061904D01*
X30531545Y-48061904D02*
X30436307Y-48014285D01*
X30436307Y-48014285D02*
X30388688Y-47966666D01*
X30388688Y-47966666D02*
X30341069Y-47871428D01*
X22645830Y-48966666D02*
X22693450Y-49014285D01*
X22693450Y-49014285D02*
X22741069Y-49157142D01*
X22741069Y-49157142D02*
X22741069Y-49252380D01*
X22741069Y-49252380D02*
X22693450Y-49395237D01*
X22693450Y-49395237D02*
X22598211Y-49490475D01*
X22598211Y-49490475D02*
X22502973Y-49538094D01*
X22502973Y-49538094D02*
X22312497Y-49585713D01*
X22312497Y-49585713D02*
X22169640Y-49585713D01*
X22169640Y-49585713D02*
X21979164Y-49538094D01*
X21979164Y-49538094D02*
X21883926Y-49490475D01*
X21883926Y-49490475D02*
X21788688Y-49395237D01*
X21788688Y-49395237D02*
X21741069Y-49252380D01*
X21741069Y-49252380D02*
X21741069Y-49157142D01*
X21741069Y-49157142D02*
X21788688Y-49014285D01*
X21788688Y-49014285D02*
X21836307Y-48966666D01*
X22074402Y-48109523D02*
X22741069Y-48109523D01*
X21693450Y-48347618D02*
X22407735Y-48585713D01*
X22407735Y-48585713D02*
X22407735Y-47966666D01*
X59569583Y-40359580D02*
X59521964Y-40407200D01*
X59521964Y-40407200D02*
X59379107Y-40454819D01*
X59379107Y-40454819D02*
X59283869Y-40454819D01*
X59283869Y-40454819D02*
X59141012Y-40407200D01*
X59141012Y-40407200D02*
X59045774Y-40311961D01*
X59045774Y-40311961D02*
X58998155Y-40216723D01*
X58998155Y-40216723D02*
X58950536Y-40026247D01*
X58950536Y-40026247D02*
X58950536Y-39883390D01*
X58950536Y-39883390D02*
X58998155Y-39692914D01*
X58998155Y-39692914D02*
X59045774Y-39597676D01*
X59045774Y-39597676D02*
X59141012Y-39502438D01*
X59141012Y-39502438D02*
X59283869Y-39454819D01*
X59283869Y-39454819D02*
X59379107Y-39454819D01*
X59379107Y-39454819D02*
X59521964Y-39502438D01*
X59521964Y-39502438D02*
X59569583Y-39550057D01*
X59950536Y-39550057D02*
X59998155Y-39502438D01*
X59998155Y-39502438D02*
X60093393Y-39454819D01*
X60093393Y-39454819D02*
X60331488Y-39454819D01*
X60331488Y-39454819D02*
X60426726Y-39502438D01*
X60426726Y-39502438D02*
X60474345Y-39550057D01*
X60474345Y-39550057D02*
X60521964Y-39645295D01*
X60521964Y-39645295D02*
X60521964Y-39740533D01*
X60521964Y-39740533D02*
X60474345Y-39883390D01*
X60474345Y-39883390D02*
X59902917Y-40454819D01*
X59902917Y-40454819D02*
X60521964Y-40454819D01*
X74169583Y-28624819D02*
X73836250Y-28148628D01*
X73598155Y-28624819D02*
X73598155Y-27624819D01*
X73598155Y-27624819D02*
X73979107Y-27624819D01*
X73979107Y-27624819D02*
X74074345Y-27672438D01*
X74074345Y-27672438D02*
X74121964Y-27720057D01*
X74121964Y-27720057D02*
X74169583Y-27815295D01*
X74169583Y-27815295D02*
X74169583Y-27958152D01*
X74169583Y-27958152D02*
X74121964Y-28053390D01*
X74121964Y-28053390D02*
X74074345Y-28101009D01*
X74074345Y-28101009D02*
X73979107Y-28148628D01*
X73979107Y-28148628D02*
X73598155Y-28148628D01*
X75074345Y-27624819D02*
X74598155Y-27624819D01*
X74598155Y-27624819D02*
X74550536Y-28101009D01*
X74550536Y-28101009D02*
X74598155Y-28053390D01*
X74598155Y-28053390D02*
X74693393Y-28005771D01*
X74693393Y-28005771D02*
X74931488Y-28005771D01*
X74931488Y-28005771D02*
X75026726Y-28053390D01*
X75026726Y-28053390D02*
X75074345Y-28101009D01*
X75074345Y-28101009D02*
X75121964Y-28196247D01*
X75121964Y-28196247D02*
X75121964Y-28434342D01*
X75121964Y-28434342D02*
X75074345Y-28529580D01*
X75074345Y-28529580D02*
X75026726Y-28577200D01*
X75026726Y-28577200D02*
X74931488Y-28624819D01*
X74931488Y-28624819D02*
X74693393Y-28624819D01*
X74693393Y-28624819D02*
X74598155Y-28577200D01*
X74598155Y-28577200D02*
X74550536Y-28529580D01*
X30252917Y-31307200D02*
X30395774Y-31354819D01*
X30395774Y-31354819D02*
X30633869Y-31354819D01*
X30633869Y-31354819D02*
X30729107Y-31307200D01*
X30729107Y-31307200D02*
X30776726Y-31259580D01*
X30776726Y-31259580D02*
X30824345Y-31164342D01*
X30824345Y-31164342D02*
X30824345Y-31069104D01*
X30824345Y-31069104D02*
X30776726Y-30973866D01*
X30776726Y-30973866D02*
X30729107Y-30926247D01*
X30729107Y-30926247D02*
X30633869Y-30878628D01*
X30633869Y-30878628D02*
X30443393Y-30831009D01*
X30443393Y-30831009D02*
X30348155Y-30783390D01*
X30348155Y-30783390D02*
X30300536Y-30735771D01*
X30300536Y-30735771D02*
X30252917Y-30640533D01*
X30252917Y-30640533D02*
X30252917Y-30545295D01*
X30252917Y-30545295D02*
X30300536Y-30450057D01*
X30300536Y-30450057D02*
X30348155Y-30402438D01*
X30348155Y-30402438D02*
X30443393Y-30354819D01*
X30443393Y-30354819D02*
X30681488Y-30354819D01*
X30681488Y-30354819D02*
X30824345Y-30402438D01*
X31157679Y-30354819D02*
X31395774Y-31354819D01*
X31395774Y-31354819D02*
X31586250Y-30640533D01*
X31586250Y-30640533D02*
X31776726Y-31354819D01*
X31776726Y-31354819D02*
X32014822Y-30354819D01*
X32919583Y-31354819D02*
X32348155Y-31354819D01*
X32633869Y-31354819D02*
X32633869Y-30354819D01*
X32633869Y-30354819D02*
X32538631Y-30497676D01*
X32538631Y-30497676D02*
X32443393Y-30592914D01*
X32443393Y-30592914D02*
X32348155Y-30640533D01*
X29333333Y-41279580D02*
X29285714Y-41327200D01*
X29285714Y-41327200D02*
X29142857Y-41374819D01*
X29142857Y-41374819D02*
X29047619Y-41374819D01*
X29047619Y-41374819D02*
X28904762Y-41327200D01*
X28904762Y-41327200D02*
X28809524Y-41231961D01*
X28809524Y-41231961D02*
X28761905Y-41136723D01*
X28761905Y-41136723D02*
X28714286Y-40946247D01*
X28714286Y-40946247D02*
X28714286Y-40803390D01*
X28714286Y-40803390D02*
X28761905Y-40612914D01*
X28761905Y-40612914D02*
X28809524Y-40517676D01*
X28809524Y-40517676D02*
X28904762Y-40422438D01*
X28904762Y-40422438D02*
X29047619Y-40374819D01*
X29047619Y-40374819D02*
X29142857Y-40374819D01*
X29142857Y-40374819D02*
X29285714Y-40422438D01*
X29285714Y-40422438D02*
X29333333Y-40470057D01*
X29666667Y-40374819D02*
X30285714Y-40374819D01*
X30285714Y-40374819D02*
X29952381Y-40755771D01*
X29952381Y-40755771D02*
X30095238Y-40755771D01*
X30095238Y-40755771D02*
X30190476Y-40803390D01*
X30190476Y-40803390D02*
X30238095Y-40851009D01*
X30238095Y-40851009D02*
X30285714Y-40946247D01*
X30285714Y-40946247D02*
X30285714Y-41184342D01*
X30285714Y-41184342D02*
X30238095Y-41279580D01*
X30238095Y-41279580D02*
X30190476Y-41327200D01*
X30190476Y-41327200D02*
X30095238Y-41374819D01*
X30095238Y-41374819D02*
X29809524Y-41374819D01*
X29809524Y-41374819D02*
X29714286Y-41327200D01*
X29714286Y-41327200D02*
X29666667Y-41279580D01*
X59569583Y-37024819D02*
X59236250Y-36548628D01*
X58998155Y-37024819D02*
X58998155Y-36024819D01*
X58998155Y-36024819D02*
X59379107Y-36024819D01*
X59379107Y-36024819D02*
X59474345Y-36072438D01*
X59474345Y-36072438D02*
X59521964Y-36120057D01*
X59521964Y-36120057D02*
X59569583Y-36215295D01*
X59569583Y-36215295D02*
X59569583Y-36358152D01*
X59569583Y-36358152D02*
X59521964Y-36453390D01*
X59521964Y-36453390D02*
X59474345Y-36501009D01*
X59474345Y-36501009D02*
X59379107Y-36548628D01*
X59379107Y-36548628D02*
X58998155Y-36548628D01*
X60521964Y-37024819D02*
X59950536Y-37024819D01*
X60236250Y-37024819D02*
X60236250Y-36024819D01*
X60236250Y-36024819D02*
X60141012Y-36167676D01*
X60141012Y-36167676D02*
X60045774Y-36262914D01*
X60045774Y-36262914D02*
X59950536Y-36310533D01*
X80653569Y-42766666D02*
X80177378Y-43099999D01*
X80653569Y-43338094D02*
X79653569Y-43338094D01*
X79653569Y-43338094D02*
X79653569Y-42957142D01*
X79653569Y-42957142D02*
X79701188Y-42861904D01*
X79701188Y-42861904D02*
X79748807Y-42814285D01*
X79748807Y-42814285D02*
X79844045Y-42766666D01*
X79844045Y-42766666D02*
X79986902Y-42766666D01*
X79986902Y-42766666D02*
X80082140Y-42814285D01*
X80082140Y-42814285D02*
X80129759Y-42861904D01*
X80129759Y-42861904D02*
X80177378Y-42957142D01*
X80177378Y-42957142D02*
X80177378Y-43338094D01*
X79986902Y-41909523D02*
X80653569Y-41909523D01*
X79605950Y-42147618D02*
X80320235Y-42385713D01*
X80320235Y-42385713D02*
X80320235Y-41766666D01*
X43061069Y-35338094D02*
X42061069Y-35338094D01*
X42061069Y-35338094D02*
X42061069Y-35099999D01*
X42061069Y-35099999D02*
X42108688Y-34957142D01*
X42108688Y-34957142D02*
X42203926Y-34861904D01*
X42203926Y-34861904D02*
X42299164Y-34814285D01*
X42299164Y-34814285D02*
X42489640Y-34766666D01*
X42489640Y-34766666D02*
X42632497Y-34766666D01*
X42632497Y-34766666D02*
X42822973Y-34814285D01*
X42822973Y-34814285D02*
X42918211Y-34861904D01*
X42918211Y-34861904D02*
X43013450Y-34957142D01*
X43013450Y-34957142D02*
X43061069Y-35099999D01*
X43061069Y-35099999D02*
X43061069Y-35338094D01*
X43061069Y-33814285D02*
X43061069Y-34385713D01*
X43061069Y-34099999D02*
X42061069Y-34099999D01*
X42061069Y-34099999D02*
X42203926Y-34195237D01*
X42203926Y-34195237D02*
X42299164Y-34290475D01*
X42299164Y-34290475D02*
X42346783Y-34385713D01*
X44315830Y-34666666D02*
X44363450Y-34714285D01*
X44363450Y-34714285D02*
X44411069Y-34857142D01*
X44411069Y-34857142D02*
X44411069Y-34952380D01*
X44411069Y-34952380D02*
X44363450Y-35095237D01*
X44363450Y-35095237D02*
X44268211Y-35190475D01*
X44268211Y-35190475D02*
X44172973Y-35238094D01*
X44172973Y-35238094D02*
X43982497Y-35285713D01*
X43982497Y-35285713D02*
X43839640Y-35285713D01*
X43839640Y-35285713D02*
X43649164Y-35238094D01*
X43649164Y-35238094D02*
X43553926Y-35190475D01*
X43553926Y-35190475D02*
X43458688Y-35095237D01*
X43458688Y-35095237D02*
X43411069Y-34952380D01*
X43411069Y-34952380D02*
X43411069Y-34857142D01*
X43411069Y-34857142D02*
X43458688Y-34714285D01*
X43458688Y-34714285D02*
X43506307Y-34666666D01*
X44411069Y-33714285D02*
X44411069Y-34285713D01*
X44411069Y-33999999D02*
X43411069Y-33999999D01*
X43411069Y-33999999D02*
X43553926Y-34095237D01*
X43553926Y-34095237D02*
X43649164Y-34190475D01*
X43649164Y-34190475D02*
X43696783Y-34285713D01*
X47841069Y-34666666D02*
X47364878Y-34999999D01*
X47841069Y-35238094D02*
X46841069Y-35238094D01*
X46841069Y-35238094D02*
X46841069Y-34857142D01*
X46841069Y-34857142D02*
X46888688Y-34761904D01*
X46888688Y-34761904D02*
X46936307Y-34714285D01*
X46936307Y-34714285D02*
X47031545Y-34666666D01*
X47031545Y-34666666D02*
X47174402Y-34666666D01*
X47174402Y-34666666D02*
X47269640Y-34714285D01*
X47269640Y-34714285D02*
X47317259Y-34761904D01*
X47317259Y-34761904D02*
X47364878Y-34857142D01*
X47364878Y-34857142D02*
X47364878Y-35238094D01*
X46936307Y-34285713D02*
X46888688Y-34238094D01*
X46888688Y-34238094D02*
X46841069Y-34142856D01*
X46841069Y-34142856D02*
X46841069Y-33904761D01*
X46841069Y-33904761D02*
X46888688Y-33809523D01*
X46888688Y-33809523D02*
X46936307Y-33761904D01*
X46936307Y-33761904D02*
X47031545Y-33714285D01*
X47031545Y-33714285D02*
X47126783Y-33714285D01*
X47126783Y-33714285D02*
X47269640Y-33761904D01*
X47269640Y-33761904D02*
X47841069Y-34333332D01*
X47841069Y-34333332D02*
X47841069Y-33714285D01*
X62561069Y-35171904D02*
X63370592Y-35171904D01*
X63370592Y-35171904D02*
X63465830Y-35124285D01*
X63465830Y-35124285D02*
X63513450Y-35076666D01*
X63513450Y-35076666D02*
X63561069Y-34981428D01*
X63561069Y-34981428D02*
X63561069Y-34790952D01*
X63561069Y-34790952D02*
X63513450Y-34695714D01*
X63513450Y-34695714D02*
X63465830Y-34648095D01*
X63465830Y-34648095D02*
X63370592Y-34600476D01*
X63370592Y-34600476D02*
X62561069Y-34600476D01*
X62656307Y-34171904D02*
X62608688Y-34124285D01*
X62608688Y-34124285D02*
X62561069Y-34029047D01*
X62561069Y-34029047D02*
X62561069Y-33790952D01*
X62561069Y-33790952D02*
X62608688Y-33695714D01*
X62608688Y-33695714D02*
X62656307Y-33648095D01*
X62656307Y-33648095D02*
X62751545Y-33600476D01*
X62751545Y-33600476D02*
X62846783Y-33600476D01*
X62846783Y-33600476D02*
X62989640Y-33648095D01*
X62989640Y-33648095D02*
X63561069Y-34219523D01*
X63561069Y-34219523D02*
X63561069Y-33600476D01*
X63341069Y-42486666D02*
X62864878Y-42819999D01*
X63341069Y-43058094D02*
X62341069Y-43058094D01*
X62341069Y-43058094D02*
X62341069Y-42677142D01*
X62341069Y-42677142D02*
X62388688Y-42581904D01*
X62388688Y-42581904D02*
X62436307Y-42534285D01*
X62436307Y-42534285D02*
X62531545Y-42486666D01*
X62531545Y-42486666D02*
X62674402Y-42486666D01*
X62674402Y-42486666D02*
X62769640Y-42534285D01*
X62769640Y-42534285D02*
X62817259Y-42581904D01*
X62817259Y-42581904D02*
X62864878Y-42677142D01*
X62864878Y-42677142D02*
X62864878Y-43058094D01*
X62341069Y-42153332D02*
X62341069Y-41534285D01*
X62341069Y-41534285D02*
X62722021Y-41867618D01*
X62722021Y-41867618D02*
X62722021Y-41724761D01*
X62722021Y-41724761D02*
X62769640Y-41629523D01*
X62769640Y-41629523D02*
X62817259Y-41581904D01*
X62817259Y-41581904D02*
X62912497Y-41534285D01*
X62912497Y-41534285D02*
X63150592Y-41534285D01*
X63150592Y-41534285D02*
X63245830Y-41581904D01*
X63245830Y-41581904D02*
X63293450Y-41629523D01*
X63293450Y-41629523D02*
X63341069Y-41724761D01*
X63341069Y-41724761D02*
X63341069Y-42010475D01*
X63341069Y-42010475D02*
X63293450Y-42105713D01*
X63293450Y-42105713D02*
X63245830Y-42153332D01*
X101869583Y-25204819D02*
X101536250Y-24728628D01*
X101298155Y-25204819D02*
X101298155Y-24204819D01*
X101298155Y-24204819D02*
X101679107Y-24204819D01*
X101679107Y-24204819D02*
X101774345Y-24252438D01*
X101774345Y-24252438D02*
X101821964Y-24300057D01*
X101821964Y-24300057D02*
X101869583Y-24395295D01*
X101869583Y-24395295D02*
X101869583Y-24538152D01*
X101869583Y-24538152D02*
X101821964Y-24633390D01*
X101821964Y-24633390D02*
X101774345Y-24681009D01*
X101774345Y-24681009D02*
X101679107Y-24728628D01*
X101679107Y-24728628D02*
X101298155Y-24728628D01*
X102441012Y-24633390D02*
X102345774Y-24585771D01*
X102345774Y-24585771D02*
X102298155Y-24538152D01*
X102298155Y-24538152D02*
X102250536Y-24442914D01*
X102250536Y-24442914D02*
X102250536Y-24395295D01*
X102250536Y-24395295D02*
X102298155Y-24300057D01*
X102298155Y-24300057D02*
X102345774Y-24252438D01*
X102345774Y-24252438D02*
X102441012Y-24204819D01*
X102441012Y-24204819D02*
X102631488Y-24204819D01*
X102631488Y-24204819D02*
X102726726Y-24252438D01*
X102726726Y-24252438D02*
X102774345Y-24300057D01*
X102774345Y-24300057D02*
X102821964Y-24395295D01*
X102821964Y-24395295D02*
X102821964Y-24442914D01*
X102821964Y-24442914D02*
X102774345Y-24538152D01*
X102774345Y-24538152D02*
X102726726Y-24585771D01*
X102726726Y-24585771D02*
X102631488Y-24633390D01*
X102631488Y-24633390D02*
X102441012Y-24633390D01*
X102441012Y-24633390D02*
X102345774Y-24681009D01*
X102345774Y-24681009D02*
X102298155Y-24728628D01*
X102298155Y-24728628D02*
X102250536Y-24823866D01*
X102250536Y-24823866D02*
X102250536Y-25014342D01*
X102250536Y-25014342D02*
X102298155Y-25109580D01*
X102298155Y-25109580D02*
X102345774Y-25157200D01*
X102345774Y-25157200D02*
X102441012Y-25204819D01*
X102441012Y-25204819D02*
X102631488Y-25204819D01*
X102631488Y-25204819D02*
X102726726Y-25157200D01*
X102726726Y-25157200D02*
X102774345Y-25109580D01*
X102774345Y-25109580D02*
X102821964Y-25014342D01*
X102821964Y-25014342D02*
X102821964Y-24823866D01*
X102821964Y-24823866D02*
X102774345Y-24728628D01*
X102774345Y-24728628D02*
X102726726Y-24681009D01*
X102726726Y-24681009D02*
X102631488Y-24633390D01*
X25102916Y-28361009D02*
X24769583Y-28361009D01*
X24769583Y-28884819D02*
X24769583Y-27884819D01*
X24769583Y-27884819D02*
X25245773Y-27884819D01*
X26150535Y-28884819D02*
X25579107Y-28884819D01*
X25864821Y-28884819D02*
X25864821Y-27884819D01*
X25864821Y-27884819D02*
X25769583Y-28027676D01*
X25769583Y-28027676D02*
X25674345Y-28122914D01*
X25674345Y-28122914D02*
X25579107Y-28170533D01*
X80169583Y-28624819D02*
X79836250Y-28148628D01*
X79598155Y-28624819D02*
X79598155Y-27624819D01*
X79598155Y-27624819D02*
X79979107Y-27624819D01*
X79979107Y-27624819D02*
X80074345Y-27672438D01*
X80074345Y-27672438D02*
X80121964Y-27720057D01*
X80121964Y-27720057D02*
X80169583Y-27815295D01*
X80169583Y-27815295D02*
X80169583Y-27958152D01*
X80169583Y-27958152D02*
X80121964Y-28053390D01*
X80121964Y-28053390D02*
X80074345Y-28101009D01*
X80074345Y-28101009D02*
X79979107Y-28148628D01*
X79979107Y-28148628D02*
X79598155Y-28148628D01*
X81026726Y-27624819D02*
X80836250Y-27624819D01*
X80836250Y-27624819D02*
X80741012Y-27672438D01*
X80741012Y-27672438D02*
X80693393Y-27720057D01*
X80693393Y-27720057D02*
X80598155Y-27862914D01*
X80598155Y-27862914D02*
X80550536Y-28053390D01*
X80550536Y-28053390D02*
X80550536Y-28434342D01*
X80550536Y-28434342D02*
X80598155Y-28529580D01*
X80598155Y-28529580D02*
X80645774Y-28577200D01*
X80645774Y-28577200D02*
X80741012Y-28624819D01*
X80741012Y-28624819D02*
X80931488Y-28624819D01*
X80931488Y-28624819D02*
X81026726Y-28577200D01*
X81026726Y-28577200D02*
X81074345Y-28529580D01*
X81074345Y-28529580D02*
X81121964Y-28434342D01*
X81121964Y-28434342D02*
X81121964Y-28196247D01*
X81121964Y-28196247D02*
X81074345Y-28101009D01*
X81074345Y-28101009D02*
X81026726Y-28053390D01*
X81026726Y-28053390D02*
X80931488Y-28005771D01*
X80931488Y-28005771D02*
X80741012Y-28005771D01*
X80741012Y-28005771D02*
X80645774Y-28053390D01*
X80645774Y-28053390D02*
X80598155Y-28101009D01*
X80598155Y-28101009D02*
X80550536Y-28196247D01*
D11*
%TO.C,D6*%
X23426250Y-20850000D02*
X23426250Y-24150000D01*
X23426250Y-20850000D02*
X28936250Y-20850000D01*
X23426250Y-24150000D02*
X28936250Y-24150000D01*
%TO.C,C5*%
X50501250Y-45788748D02*
X50501250Y-46311252D01*
X51971250Y-45788748D02*
X51971250Y-46311252D01*
%TO.C,R7*%
X101749186Y-33865000D02*
X102203314Y-33865000D01*
X101749186Y-35335000D02*
X102203314Y-35335000D01*
%TO.C,R9*%
X101809186Y-42065000D02*
X102263314Y-42065000D01*
X101809186Y-43535000D02*
X102263314Y-43535000D01*
%TO.C,R10*%
X28501250Y-48572936D02*
X28501250Y-49027064D01*
X29971250Y-48572936D02*
X29971250Y-49027064D01*
%TO.C,C4*%
X23251250Y-48538748D02*
X23251250Y-49061252D01*
X24721250Y-48538748D02*
X24721250Y-49061252D01*
%TO.C,C2*%
X59997502Y-37585000D02*
X59474998Y-37585000D01*
X59997502Y-39055000D02*
X59474998Y-39055000D01*
%TO.C,R5*%
X74563314Y-25785000D02*
X74109186Y-25785000D01*
X74563314Y-27255000D02*
X74109186Y-27255000D01*
%TO.C,SW1*%
X30226250Y-31790000D02*
X32946250Y-31790000D01*
X30226250Y-32050000D02*
X29686250Y-32050000D01*
X30226250Y-32050000D02*
X30226250Y-31800000D01*
X30226250Y-33620000D02*
X30226250Y-35580000D01*
X30226250Y-37410000D02*
X30226250Y-37150000D01*
X32936250Y-37410000D02*
X30236250Y-37410000D01*
X32946250Y-31790000D02*
X32946250Y-33800000D01*
X32946250Y-35400000D02*
X32946250Y-37410000D01*
%TO.C,C3*%
X29238748Y-41865000D02*
X29761252Y-41865000D01*
X29238748Y-43335000D02*
X29761252Y-43335000D01*
%TO.C,R1*%
X59963314Y-34185000D02*
X59509186Y-34185000D01*
X59963314Y-35655000D02*
X59509186Y-35655000D01*
%TO.C,R4*%
X81113750Y-42827064D02*
X81113750Y-42372936D01*
X82583750Y-42827064D02*
X82583750Y-42372936D01*
%TO.C,D1*%
X37176250Y-37010000D02*
X37176250Y-32140000D01*
X38376250Y-37010000D02*
X37176250Y-37010000D01*
X38476250Y-32140000D02*
X37176250Y-32140000D01*
X38476250Y-32140000D02*
X38476250Y-31220000D01*
X40396250Y-32140000D02*
X40396250Y-31220000D01*
X41696250Y-32140000D02*
X40396250Y-32140000D01*
X41696250Y-32140000D02*
X41696250Y-37010000D01*
X41696250Y-37010000D02*
X40496250Y-37010000D01*
%TO.C,C1*%
X44901250Y-34761252D02*
X44901250Y-34238748D01*
X46371250Y-34761252D02*
X46371250Y-34238748D01*
%TO.C,R2*%
X48301250Y-34727064D02*
X48301250Y-34272936D01*
X49771250Y-34727064D02*
X49771250Y-34272936D01*
%TO.C,U2*%
X64106250Y-31760000D02*
X64106250Y-33410000D01*
X64106250Y-35410000D02*
X64106250Y-37060000D01*
X64106250Y-37060000D02*
X82006250Y-37060000D01*
X82006250Y-31760000D02*
X64106250Y-31760000D01*
X82006250Y-37060000D02*
X82006250Y-31760000D01*
X64046250Y-39550000D02*
X82066250Y-39550000D01*
X82066250Y-29270000D01*
X64046250Y-29270000D01*
X64046250Y-39550000D01*
X64106250Y-33410000D02*
G75*
G02*
X64106250Y-35410000I0J-1000000D01*
G01*
%TO.C,R3*%
X63801250Y-42547064D02*
X63801250Y-42092936D01*
X65271250Y-42547064D02*
X65271250Y-42092936D01*
%TO.C,R8*%
X101809186Y-25665000D02*
X102263314Y-25665000D01*
X101809186Y-27135000D02*
X102263314Y-27135000D01*
%TO.C,F1*%
X26163314Y-25690000D02*
X24709186Y-25690000D01*
X26163314Y-27510000D02*
X24709186Y-27510000D01*
%TO.C,R6*%
X80563314Y-25785000D02*
X80109186Y-25785000D01*
X80563314Y-27255000D02*
X80109186Y-27255000D01*
%TD*%
M02*
