%TF.GenerationSoftware,KiCad,Pcbnew,9.0.5*%
%TF.CreationDate,2025-12-07T13:39:54+02:00*%
%TF.ProjectId,scheme,73636865-6d65-42e6-9b69-6361645f7063,rev?*%
%TF.SameCoordinates,Original*%
%TF.FileFunction,Legend,Bot*%
%TF.FilePolarity,Positive*%
%FSLAX46Y46*%
G04 Gerber Fmt 4.6, Leading zero omitted, Abs format (unit mm)*
G04 Created by KiCad (PCBNEW 9.0.5) date 2025-12-07 13:39:54*
%MOMM*%
%LPD*%
G01*
G04 APERTURE LIST*
%ADD10C,0.150000*%
%ADD11C,0.120000*%
G04 APERTURE END LIST*
D10*
X73951964Y-16801009D02*
X73809107Y-16848628D01*
X73809107Y-16848628D02*
X73761488Y-16896247D01*
X73761488Y-16896247D02*
X73713869Y-16991485D01*
X73713869Y-16991485D02*
X73713869Y-17134342D01*
X73713869Y-17134342D02*
X73761488Y-17229580D01*
X73761488Y-17229580D02*
X73809107Y-17277200D01*
X73809107Y-17277200D02*
X73904345Y-17324819D01*
X73904345Y-17324819D02*
X74285297Y-17324819D01*
X74285297Y-17324819D02*
X74285297Y-16324819D01*
X74285297Y-16324819D02*
X73951964Y-16324819D01*
X73951964Y-16324819D02*
X73856726Y-16372438D01*
X73856726Y-16372438D02*
X73809107Y-16420057D01*
X73809107Y-16420057D02*
X73761488Y-16515295D01*
X73761488Y-16515295D02*
X73761488Y-16610533D01*
X73761488Y-16610533D02*
X73809107Y-16705771D01*
X73809107Y-16705771D02*
X73856726Y-16753390D01*
X73856726Y-16753390D02*
X73951964Y-16801009D01*
X73951964Y-16801009D02*
X74285297Y-16801009D01*
X73428154Y-16324819D02*
X72856726Y-16324819D01*
X73142440Y-17324819D02*
X73142440Y-16324819D01*
X71999583Y-17324819D02*
X72571011Y-17324819D01*
X72285297Y-17324819D02*
X72285297Y-16324819D01*
X72285297Y-16324819D02*
X72380535Y-16467676D01*
X72380535Y-16467676D02*
X72475773Y-16562914D01*
X72475773Y-16562914D02*
X72571011Y-16610533D01*
X35304819Y-48061905D02*
X34304819Y-48061905D01*
X34304819Y-48061905D02*
X34304819Y-48300000D01*
X34304819Y-48300000D02*
X34352438Y-48442857D01*
X34352438Y-48442857D02*
X34447676Y-48538095D01*
X34447676Y-48538095D02*
X34542914Y-48585714D01*
X34542914Y-48585714D02*
X34733390Y-48633333D01*
X34733390Y-48633333D02*
X34876247Y-48633333D01*
X34876247Y-48633333D02*
X35066723Y-48585714D01*
X35066723Y-48585714D02*
X35161961Y-48538095D01*
X35161961Y-48538095D02*
X35257200Y-48442857D01*
X35257200Y-48442857D02*
X35304819Y-48300000D01*
X35304819Y-48300000D02*
X35304819Y-48061905D01*
X34304819Y-49538095D02*
X34304819Y-49061905D01*
X34304819Y-49061905D02*
X34781009Y-49014286D01*
X34781009Y-49014286D02*
X34733390Y-49061905D01*
X34733390Y-49061905D02*
X34685771Y-49157143D01*
X34685771Y-49157143D02*
X34685771Y-49395238D01*
X34685771Y-49395238D02*
X34733390Y-49490476D01*
X34733390Y-49490476D02*
X34781009Y-49538095D01*
X34781009Y-49538095D02*
X34876247Y-49585714D01*
X34876247Y-49585714D02*
X35114342Y-49585714D01*
X35114342Y-49585714D02*
X35209580Y-49538095D01*
X35209580Y-49538095D02*
X35257200Y-49490476D01*
X35257200Y-49490476D02*
X35304819Y-49395238D01*
X35304819Y-49395238D02*
X35304819Y-49157143D01*
X35304819Y-49157143D02*
X35257200Y-49061905D01*
X35257200Y-49061905D02*
X35209580Y-49014286D01*
X106009819Y-41756905D02*
X105009819Y-41756905D01*
X105009819Y-41756905D02*
X105009819Y-41995000D01*
X105009819Y-41995000D02*
X105057438Y-42137857D01*
X105057438Y-42137857D02*
X105152676Y-42233095D01*
X105152676Y-42233095D02*
X105247914Y-42280714D01*
X105247914Y-42280714D02*
X105438390Y-42328333D01*
X105438390Y-42328333D02*
X105581247Y-42328333D01*
X105581247Y-42328333D02*
X105771723Y-42280714D01*
X105771723Y-42280714D02*
X105866961Y-42233095D01*
X105866961Y-42233095D02*
X105962200Y-42137857D01*
X105962200Y-42137857D02*
X106009819Y-41995000D01*
X106009819Y-41995000D02*
X106009819Y-41756905D01*
X105343152Y-43185476D02*
X106009819Y-43185476D01*
X104962200Y-42947381D02*
X105676485Y-42709286D01*
X105676485Y-42709286D02*
X105676485Y-43328333D01*
X106009819Y-33756905D02*
X105009819Y-33756905D01*
X105009819Y-33756905D02*
X105009819Y-33995000D01*
X105009819Y-33995000D02*
X105057438Y-34137857D01*
X105057438Y-34137857D02*
X105152676Y-34233095D01*
X105152676Y-34233095D02*
X105247914Y-34280714D01*
X105247914Y-34280714D02*
X105438390Y-34328333D01*
X105438390Y-34328333D02*
X105581247Y-34328333D01*
X105581247Y-34328333D02*
X105771723Y-34280714D01*
X105771723Y-34280714D02*
X105866961Y-34233095D01*
X105866961Y-34233095D02*
X105962200Y-34137857D01*
X105962200Y-34137857D02*
X106009819Y-33995000D01*
X106009819Y-33995000D02*
X106009819Y-33756905D01*
X105105057Y-34709286D02*
X105057438Y-34756905D01*
X105057438Y-34756905D02*
X105009819Y-34852143D01*
X105009819Y-34852143D02*
X105009819Y-35090238D01*
X105009819Y-35090238D02*
X105057438Y-35185476D01*
X105057438Y-35185476D02*
X105105057Y-35233095D01*
X105105057Y-35233095D02*
X105200295Y-35280714D01*
X105200295Y-35280714D02*
X105295533Y-35280714D01*
X105295533Y-35280714D02*
X105438390Y-35233095D01*
X105438390Y-35233095D02*
X106009819Y-34661667D01*
X106009819Y-34661667D02*
X106009819Y-35280714D01*
X25641069Y-33838095D02*
X26450592Y-33838095D01*
X26450592Y-33838095D02*
X26545830Y-33885714D01*
X26545830Y-33885714D02*
X26593450Y-33933333D01*
X26593450Y-33933333D02*
X26641069Y-34028571D01*
X26641069Y-34028571D02*
X26641069Y-34219047D01*
X26641069Y-34219047D02*
X26593450Y-34314285D01*
X26593450Y-34314285D02*
X26545830Y-34361904D01*
X26545830Y-34361904D02*
X26450592Y-34409523D01*
X26450592Y-34409523D02*
X25641069Y-34409523D01*
X26641069Y-35409523D02*
X26641069Y-34838095D01*
X26641069Y-35123809D02*
X25641069Y-35123809D01*
X25641069Y-35123809D02*
X25783926Y-35028571D01*
X25783926Y-35028571D02*
X25879164Y-34933333D01*
X25879164Y-34933333D02*
X25926783Y-34838095D01*
X106009819Y-25756905D02*
X105009819Y-25756905D01*
X105009819Y-25756905D02*
X105009819Y-25995000D01*
X105009819Y-25995000D02*
X105057438Y-26137857D01*
X105057438Y-26137857D02*
X105152676Y-26233095D01*
X105152676Y-26233095D02*
X105247914Y-26280714D01*
X105247914Y-26280714D02*
X105438390Y-26328333D01*
X105438390Y-26328333D02*
X105581247Y-26328333D01*
X105581247Y-26328333D02*
X105771723Y-26280714D01*
X105771723Y-26280714D02*
X105866961Y-26233095D01*
X105866961Y-26233095D02*
X105962200Y-26137857D01*
X105962200Y-26137857D02*
X106009819Y-25995000D01*
X106009819Y-25995000D02*
X106009819Y-25756905D01*
X105009819Y-26661667D02*
X105009819Y-27280714D01*
X105009819Y-27280714D02*
X105390771Y-26947381D01*
X105390771Y-26947381D02*
X105390771Y-27090238D01*
X105390771Y-27090238D02*
X105438390Y-27185476D01*
X105438390Y-27185476D02*
X105486009Y-27233095D01*
X105486009Y-27233095D02*
X105581247Y-27280714D01*
X105581247Y-27280714D02*
X105819342Y-27280714D01*
X105819342Y-27280714D02*
X105914580Y-27233095D01*
X105914580Y-27233095D02*
X105962200Y-27185476D01*
X105962200Y-27185476D02*
X106009819Y-27090238D01*
X106009819Y-27090238D02*
X106009819Y-26804524D01*
X106009819Y-26804524D02*
X105962200Y-26709286D01*
X105962200Y-26709286D02*
X105914580Y-26661667D01*
D11*
%TO.C,BT1*%
X45936250Y-19550000D02*
X45936250Y-49750000D01*
X45936250Y-49750000D02*
X100436250Y-49750000D01*
X100436250Y-19550000D02*
X45936250Y-19550000D01*
X100436250Y-49750000D02*
X100436250Y-19550000D01*
%TO.C,D5*%
X35540000Y-47115000D02*
X37460000Y-47115000D01*
X35540000Y-49800000D02*
X35540000Y-47115000D01*
X37460000Y-47115000D02*
X37460000Y-49800000D01*
%TO.C,D4*%
X108595000Y-41225000D02*
X108725000Y-41225000D01*
X108595000Y-43765000D02*
X108725000Y-43765000D01*
X108725000Y-39935000D02*
X108725000Y-45055000D01*
X108725000Y-39935000D02*
X114885000Y-39935000D01*
X108725000Y-41225000D02*
X108595000Y-41225000D01*
X108725000Y-43765000D02*
X108595000Y-43765000D01*
X108725000Y-45055000D02*
X108725000Y-45455000D01*
X108725000Y-45055000D02*
X114885000Y-45055000D01*
X108725000Y-45455000D02*
X109845000Y-45455000D01*
X109845000Y-45055000D02*
X108725000Y-45055000D01*
X109845000Y-45455000D02*
X109845000Y-45055000D01*
X114885000Y-39935000D02*
G75*
G02*
X114885000Y-45055000I0J-2560000D01*
G01*
%TO.C,D2*%
X108595000Y-33225000D02*
X108725000Y-33225000D01*
X108595000Y-35765000D02*
X108725000Y-35765000D01*
X108725000Y-31935000D02*
X108725000Y-37055000D01*
X108725000Y-31935000D02*
X114885000Y-31935000D01*
X108725000Y-33225000D02*
X108595000Y-33225000D01*
X108725000Y-35765000D02*
X108595000Y-35765000D01*
X108725000Y-37055000D02*
X108725000Y-37455000D01*
X108725000Y-37055000D02*
X114885000Y-37055000D01*
X108725000Y-37455000D02*
X109845000Y-37455000D01*
X109845000Y-37055000D02*
X108725000Y-37055000D01*
X109845000Y-37455000D02*
X109845000Y-37055000D01*
X114885000Y-31935000D02*
G75*
G02*
X114885000Y-37055000I0J-2560000D01*
G01*
%TO.C,U1*%
X20726250Y-29490000D02*
X20726250Y-39710000D01*
X20726250Y-32750000D02*
X22106250Y-32750000D01*
X20726250Y-36450000D02*
X22106250Y-36450000D01*
X20726250Y-39710000D02*
X25346250Y-39710000D01*
X22106250Y-29490000D02*
X22106250Y-39710000D01*
X25346250Y-29490000D02*
X20726250Y-29490000D01*
X25346250Y-39710000D02*
X25346250Y-29490000D01*
%TO.C,D3*%
X108595000Y-25225000D02*
X108725000Y-25225000D01*
X108595000Y-27765000D02*
X108725000Y-27765000D01*
X108725000Y-23935000D02*
X108725000Y-29055000D01*
X108725000Y-23935000D02*
X114885000Y-23935000D01*
X108725000Y-25225000D02*
X108595000Y-25225000D01*
X108725000Y-27765000D02*
X108595000Y-27765000D01*
X108725000Y-29055000D02*
X108725000Y-29455000D01*
X108725000Y-29055000D02*
X114885000Y-29055000D01*
X108725000Y-29455000D02*
X109845000Y-29455000D01*
X109845000Y-29055000D02*
X108725000Y-29055000D01*
X109845000Y-29455000D02*
X109845000Y-29055000D01*
X114885000Y-23935000D02*
G75*
G02*
X114885000Y-29055000I0J-2560000D01*
G01*
%TD*%
M02*
