%TF.GenerationSoftware,KiCad,Pcbnew,9.0.5*%
%TF.CreationDate,2025-12-07T13:39:54+02:00*%
%TF.ProjectId,scheme,73636865-6d65-42e6-9b69-6361645f7063,rev?*%
%TF.SameCoordinates,Original*%
%TF.FileFunction,Paste,Top*%
%TF.FilePolarity,Positive*%
%FSLAX46Y46*%
G04 Gerber Fmt 4.6, Leading zero omitted, Abs format (unit mm)*
G04 Created by KiCad (PCBNEW 9.0.5) date 2025-12-07 13:39:54*
%MOMM*%
%LPD*%
G01*
G04 APERTURE LIST*
G04 Aperture macros list*
%AMRoundRect*
0 Rectangle with rounded corners*
0 $1 Rounding radius*
0 $2 $3 $4 $5 $6 $7 $8 $9 X,Y pos of 4 corners*
0 Add a 4 corners polygon primitive as box body*
4,1,4,$2,$3,$4,$5,$6,$7,$8,$9,$2,$3,0*
0 Add four circle primitives for the rounded corners*
1,1,$1+$1,$2,$3*
1,1,$1+$1,$4,$5*
1,1,$1+$1,$6,$7*
1,1,$1+$1,$8,$9*
0 Add four rect primitives between the rounded corners*
20,1,$1+$1,$2,$3,$4,$5,0*
20,1,$1+$1,$4,$5,$6,$7,0*
20,1,$1+$1,$6,$7,$8,$9,0*
20,1,$1+$1,$8,$9,$2,$3,0*%
G04 Aperture macros list end*
%ADD10RoundRect,0.250000X-1.000000X-0.650000X1.000000X-0.650000X1.000000X0.650000X-1.000000X0.650000X0*%
%ADD11RoundRect,0.250000X-0.475000X0.250000X-0.475000X-0.250000X0.475000X-0.250000X0.475000X0.250000X0*%
%ADD12RoundRect,0.250000X-0.262500X-0.450000X0.262500X-0.450000X0.262500X0.450000X-0.262500X0.450000X0*%
%ADD13RoundRect,0.250000X-0.450000X0.262500X-0.450000X-0.262500X0.450000X-0.262500X0.450000X0.262500X0*%
%ADD14RoundRect,0.250000X0.250000X0.475000X-0.250000X0.475000X-0.250000X-0.475000X0.250000X-0.475000X0*%
%ADD15RoundRect,0.250000X0.262500X0.450000X-0.262500X0.450000X-0.262500X-0.450000X0.262500X-0.450000X0*%
%ADD16RoundRect,0.250000X-0.550000X0.250000X-0.550000X-0.250000X0.550000X-0.250000X0.550000X0.250000X0*%
%ADD17RoundRect,0.250000X-0.250000X-0.475000X0.250000X-0.475000X0.250000X0.475000X-0.250000X0.475000X0*%
%ADD18RoundRect,0.250000X0.450000X-0.262500X0.450000X0.262500X-0.450000X0.262500X-0.450000X-0.262500X0*%
%ADD19RoundRect,0.250000X0.475000X-0.250000X0.475000X0.250000X-0.475000X0.250000X-0.475000X-0.250000X0*%
%ADD20RoundRect,0.250000X0.550000X-0.550000X0.550000X0.550000X-0.550000X0.550000X-0.550000X-0.550000X0*%
%ADD21RoundRect,0.250000X0.312500X0.625000X-0.312500X0.625000X-0.312500X-0.625000X0.312500X-0.625000X0*%
G04 APERTURE END LIST*
D10*
%TO.C,D6*%
X24936250Y-22500000D03*
X28936250Y-22500000D03*
%TD*%
D11*
%TO.C,C5*%
X51236250Y-45100000D03*
X51236250Y-47000000D03*
%TD*%
D12*
%TO.C,R7*%
X101063750Y-34600000D03*
X102888750Y-34600000D03*
%TD*%
%TO.C,R9*%
X101123750Y-42800000D03*
X102948750Y-42800000D03*
%TD*%
D13*
%TO.C,R10*%
X29236250Y-47887500D03*
X29236250Y-49712500D03*
%TD*%
D11*
%TO.C,C4*%
X23986250Y-47850000D03*
X23986250Y-49750000D03*
%TD*%
D14*
%TO.C,C2*%
X60686250Y-38320000D03*
X58786250Y-38320000D03*
%TD*%
D15*
%TO.C,R5*%
X75248750Y-26520000D03*
X73423750Y-26520000D03*
%TD*%
D16*
%TO.C,SW1*%
X30436250Y-32850000D03*
X32736250Y-34600000D03*
X30436250Y-36350000D03*
%TD*%
D17*
%TO.C,C3*%
X28550000Y-42600000D03*
X30450000Y-42600000D03*
%TD*%
D15*
%TO.C,R1*%
X60648750Y-34920000D03*
X58823750Y-34920000D03*
%TD*%
D18*
%TO.C,R4*%
X81848750Y-43512500D03*
X81848750Y-41687500D03*
%TD*%
D19*
%TO.C,C1*%
X45636250Y-35450000D03*
X45636250Y-33550000D03*
%TD*%
D18*
%TO.C,R2*%
X49036250Y-35412500D03*
X49036250Y-33587500D03*
%TD*%
D20*
%TO.C,U2*%
X65436250Y-38220000D03*
X67976250Y-38220000D03*
X70516250Y-38220000D03*
X73056250Y-38220000D03*
X75596250Y-38220000D03*
X78136250Y-38220000D03*
X80676250Y-38220000D03*
X80676250Y-30600000D03*
X78136250Y-30600000D03*
X75596250Y-30600000D03*
X73056250Y-30600000D03*
X70516250Y-30600000D03*
X67976250Y-30600000D03*
X65436250Y-30600000D03*
%TD*%
D18*
%TO.C,R3*%
X64536250Y-43232500D03*
X64536250Y-41407500D03*
%TD*%
D12*
%TO.C,R8*%
X101123750Y-26400000D03*
X102948750Y-26400000D03*
%TD*%
D21*
%TO.C,F1*%
X26898750Y-26600000D03*
X23973750Y-26600000D03*
%TD*%
D15*
%TO.C,R6*%
X81248750Y-26520000D03*
X79423750Y-26520000D03*
%TD*%
M02*
