M48
; DRILL file {KiCad 9.0.2} date 2025-11-18T18:39:58+0200
; FORMAT={-:-/ absolute / metric / decimal}
; #@! TF.CreationDate,2025-11-18T18:39:58+02:00
; #@! TF.GenerationSoftware,Kicad,Pcbnew,9.0.2
; #@! TF.FileFunction,Plated,1,2,PTH
FMAT,2
METRIC
; #@! TA.AperFunction,Plated,PTH,ViaDrill
T1C0.300
; #@! TA.AperFunction,Plated,PTH,ComponentDrill
T2C0.750
; #@! TA.AperFunction,Plated,PTH,ComponentDrill
T3C0.800
; #@! TA.AperFunction,Plated,PTH,ComponentDrill
T4C1.016
; #@! TA.AperFunction,Plated,PTH,ComponentDrill
T5C1.100
; #@! TA.AperFunction,Plated,PTH,ComponentDrill
T6C1.300
%
G90
G05
T1
X146.5Y-64.5
X146.5Y-68.5
X165.151Y-67.564
X171.13Y-61.382
T2
X152.13Y-56.815
X153.4Y-56.815
X154.67Y-56.815
X159.13Y-56.815
X160.4Y-56.815
X161.67Y-56.815
X166.13Y-56.815
X167.4Y-56.815
X168.67Y-56.815
T4
X152.982Y-75.794
X152.982Y-91.034
X155.522Y-75.794
X155.522Y-91.034
X158.062Y-75.794
X158.062Y-91.034
X160.602Y-75.794
X160.602Y-91.034
X163.142Y-75.794
X163.142Y-91.034
X165.682Y-75.794
X165.682Y-91.034
X168.222Y-75.794
X168.222Y-91.034
X170.762Y-75.794
X170.762Y-91.034
X173.302Y-75.794
X173.302Y-91.034
X175.842Y-75.794
X175.842Y-91.034
X178.382Y-75.794
X178.382Y-91.034
X180.922Y-75.794
X180.922Y-91.034
X183.462Y-75.794
X183.462Y-91.034
X186.002Y-75.794
X186.002Y-91.034
X188.542Y-75.794
X188.542Y-91.034
T5
X174.13Y-50.815
X174.13Y-57.315
X178.63Y-50.815
X178.63Y-57.315
T6
X180.63Y-63.78
X180.63Y-68.86
T3
G00X116.668Y-67.683
M15
G01X116.668Y-69.883
M16
G05
G00X118.368Y-73.583
M15
G01X120.568Y-73.583
M16
G05
G00X122.468Y-67.483
M15
G01X122.468Y-70.083
M16
G05
M30
